<?xml version="1.0" encoding="UTF-8"?>
<svg xmlns="http://www.w3.org/2000/svg" viewBox="0 0 950 744"
     font-family="-apple-system, 'Segoe UI', Roboto, 'Helvetica Neue', Arial, sans-serif">

  <style>
    text[fill="white"] { fill: #ffffff; }
    .cp, .cs, .ca, .env, .dyn, .rad, .core { fill: #ffffff; }
  </style>

  <!-- Background -->
  <rect width="950" height="744" fill="transparent" rx="12"/>

  <!-- ════════════════════ TITLE ════════════════════ -->
  <text x="475" y="24" text-anchor="middle" font-size="17" font-weight="700" class="cp"
        letter-spacing="0.3">VegasAfterglow</text>

  <!-- ════════════════════ CLI + WEBTOOL LAYER ════════════════════ -->
  <g id="cli-layer">
    <rect x="25" y="38" width="438" height="68" rx="8" fill="transparent" stroke="#3D5040" stroke-width="1"/>
    <rect x="25" y="38" width="438" height="26" rx="8" fill="#2D8060"/>
    <rect x="25" y="52" width="438" height="12" fill="#2D8060"/>
    <text x="244" y="56" text-anchor="middle" font-size="12" font-weight="700" fill="white">Command-Line Interface</text>
    <rect x="40"  y="75" width="99" height="17" rx="3" fill="#2D8060" opacity="0.7"/>
    <text x="89"  y="87" text-anchor="middle" font-size="8.5" fill="white" font-weight="500">Light Curves</text>
    <rect x="144" y="75" width="99" height="17" rx="3" fill="#2D8060" opacity="0.7"/>
    <text x="193" y="87" text-anchor="middle" font-size="8.5" fill="white" font-weight="500">Multi-band</text>
    <rect x="248" y="75" width="99" height="17" rx="3" fill="#2D8060" opacity="0.7"/>
    <text x="297" y="87" text-anchor="middle" font-size="8.5" fill="white" font-weight="500">Named Filters</text>
    <rect x="352" y="75" width="99" height="17" rx="3" fill="#2D8060" opacity="0.7"/>
    <text x="401" y="87" text-anchor="middle" font-size="8.5" fill="white" font-weight="500">CSV / JSON / PNG</text>
  </g>
  <g id="webtool-layer">
    <rect x="467" y="38" width="458" height="68" rx="8" fill="transparent" stroke="#2A4068" stroke-width="1"/>
    <rect x="467" y="38" width="458" height="26" rx="8" fill="#4A8BC4"/>
    <rect x="467" y="52" width="458" height="12" fill="#4A8BC4"/>
    <text x="696" y="56" text-anchor="middle" font-size="12" font-weight="700" fill="white">Web Tool</text>
    <rect x="482" y="75" width="103" height="17" rx="3" fill="#4A8BC4" opacity="0.7"/>
    <text x="533" y="87" text-anchor="middle" font-size="8.5" fill="white" font-weight="500">Light Curves</text>
    <rect x="590" y="75" width="103" height="17" rx="3" fill="#4A8BC4" opacity="0.7"/>
    <text x="641" y="87" text-anchor="middle" font-size="8.5" fill="white" font-weight="500">Spectra</text>
    <rect x="698" y="75" width="103" height="17" rx="3" fill="#4A8BC4" opacity="0.7"/>
    <text x="749" y="87" text-anchor="middle" font-size="8.5" fill="white" font-weight="500">Sky Maps</text>
    <rect x="806" y="75" width="103" height="17" rx="3" fill="#4A8BC4" opacity="0.7"/>
    <text x="857" y="87" text-anchor="middle" font-size="8.5" fill="white" font-weight="500">Interactive</text>
  </g>

  <!-- ════════════════════ ARROW CLI→API ════════════════════ -->
  <g class="ca">
    <polygon points="475,108 470,116 480,116"/>
    <rect x="474" y="106" width="2" height="4"/>
  </g>

  <!-- ════════════════════ PYTHON API LAYER ════════════════════ -->
  <g id="python-api">
    <rect x="25" y="118" width="900" height="90" rx="8" fill="transparent" stroke="#2A3A5C" stroke-width="1"/>
    <rect x="25" y="118" width="900" height="26" rx="8" fill="#5B8ADB"/>
    <rect x="25" y="132" width="900" height="12" fill="#5B8ADB"/>
    <text x="475" y="136" text-anchor="middle" font-size="12" font-weight="700" fill="white">Python API</text>

    <!-- Group: Model & Fitting -->
    <rect x="40" y="154" width="195" height="44" rx="5" fill="transparent" stroke="#2D4068" stroke-width="0.5"/>
    <text x="137" y="166" text-anchor="middle" font-size="8.5" font-weight="600" class="cs">Model &amp; Fitting</text>
    <rect x="48" y="172" width="55" height="19" rx="3" fill="#5B8ADB" opacity="0.85"/>
    <text x="75" y="185" text-anchor="middle" font-size="9" fill="white" font-weight="500">Model</text>
    <rect x="108" y="172" width="50" height="19" rx="3" fill="#5B8ADB" opacity="0.85"/>
    <text x="133" y="185" text-anchor="middle" font-size="9" fill="white" font-weight="500">Fitter</text>
    <rect x="163" y="172" width="64" height="19" rx="3" fill="#5B8ADB" opacity="0.85"/>
    <text x="195" y="185" text-anchor="middle" font-size="9" fill="white" font-weight="500">ParamDef</text>

    <!-- Group: Jet Structures -->
    <rect x="245" y="154" width="280" height="44" rx="5" fill="transparent" stroke="#2D4068" stroke-width="0.5"/>
    <text x="385" y="166" text-anchor="middle" font-size="8.5" font-weight="600" class="cs">Jet Structures</text>
    <rect x="253" y="172" width="62" height="19" rx="3" fill="#5B8ADB" opacity="0.85"/>
    <text x="284" y="185" text-anchor="middle" font-size="9" fill="white" font-weight="500">TophatJet</text>
    <rect x="320" y="172" width="72" height="19" rx="3" fill="#5B8ADB" opacity="0.85"/>
    <text x="356" y="185" text-anchor="middle" font-size="9" fill="white" font-weight="500">GaussianJet</text>
    <rect x="397" y="172" width="72" height="19" rx="3" fill="#5B8ADB" opacity="0.85"/>
    <text x="433" y="185" text-anchor="middle" font-size="9" fill="white" font-weight="500">PowerLawJet</text>
    <rect x="474" y="172" width="43" height="19" rx="3" fill="#5B8ADB" opacity="0.65"/>
    <text x="496" y="185" text-anchor="middle" font-size="9" fill="white" font-weight="500">...</text>

    <!-- Group: Physics Setup -->
    <rect x="535" y="154" width="230" height="44" rx="5" fill="transparent" stroke="#2D4068" stroke-width="0.5"/>
    <text x="650" y="166" text-anchor="middle" font-size="8.5" font-weight="600" class="cs">Physics Setup</text>
    <rect x="543" y="172" width="36" height="19" rx="3" fill="#5B8ADB" opacity="0.85"/>
    <text x="561" y="185" text-anchor="middle" font-size="9" fill="white" font-weight="500">ISM</text>
    <rect x="584" y="172" width="40" height="19" rx="3" fill="#5B8ADB" opacity="0.85"/>
    <text x="604" y="185" text-anchor="middle" font-size="9" fill="white" font-weight="500">Wind</text>
    <rect x="629" y="172" width="58" height="19" rx="3" fill="#5B8ADB" opacity="0.85"/>
    <text x="658" y="185" text-anchor="middle" font-size="9" fill="white" font-weight="500">Observer</text>
    <rect x="692" y="172" width="64" height="19" rx="3" fill="#5B8ADB" opacity="0.85"/>
    <text x="724" y="185" text-anchor="middle" font-size="9" fill="white" font-weight="500">Radiation</text>

    <!-- Group: Results -->
    <rect x="775" y="154" width="140" height="44" rx="5" fill="transparent" stroke="#2D4068" stroke-width="0.5"/>
    <text x="845" y="166" text-anchor="middle" font-size="8.5" font-weight="600" class="cs">Results</text>
    <rect x="783" y="172" width="56" height="19" rx="3" fill="#5B8ADB" opacity="0.85"/>
    <text x="811" y="185" text-anchor="middle" font-size="9" fill="white" font-weight="500">FluxDict</text>
    <rect x="844" y="172" width="63" height="19" rx="3" fill="#5B8ADB" opacity="0.85"/>
    <text x="876" y="185" text-anchor="middle" font-size="9" fill="white" font-weight="500">Details</text>
  </g>

  <!-- ════════════════════ ARROWS 1 ════════════════════ -->
  <g class="ca">
    <polygon points="475,210 470,218 480,218"/>
    <rect x="474" y="208" width="2" height="4"/>
  </g>

  <!-- ════════════════════ PYTHON BINDINGS ════════════════════ -->
  <g id="pybind-bridge">
    <rect x="25" y="220" width="900" height="52" rx="8" fill="transparent" stroke="#352D55" stroke-width="1"/>
    <rect x="25" y="220" width="900" height="26" rx="8" fill="#9B7DD0"/>
    <rect x="25" y="234" width="900" height="12" fill="#9B7DD0"/>
    <text x="475" y="238" text-anchor="middle" font-size="12" font-weight="700" fill="white">Python Bindings</text>
    <rect x="40"  y="252" width="171" height="15" rx="3" fill="#9B7DD0" opacity="0.75"/>
    <text x="125" y="263" text-anchor="middle" font-size="8.5" fill="white" font-weight="500">NumPy Interface</text>
    <rect x="216" y="252" width="171" height="15" rx="3" fill="#9B7DD0" opacity="0.75"/>
    <text x="301" y="263" text-anchor="middle" font-size="8.5" fill="white" font-weight="500">Type Conversion</text>
    <rect x="392" y="252" width="171" height="15" rx="3" fill="#9B7DD0" opacity="0.75"/>
    <text x="477" y="263" text-anchor="middle" font-size="8.5" fill="white" font-weight="500">Error Handling</text>
    <rect x="568" y="252" width="171" height="15" rx="3" fill="#9B7DD0" opacity="0.75"/>
    <text x="653" y="263" text-anchor="middle" font-size="8.5" fill="white" font-weight="500">Model Dispatch</text>
    <rect x="744" y="252" width="171" height="15" rx="3" fill="#9B7DD0" opacity="0.75"/>
    <text x="829" y="263" text-anchor="middle" font-size="8.5" fill="white" font-weight="500">Zero-copy Arrays</text>
  </g>

  <!-- ════════════════════ ARROWS 2 ════════════════════ -->
  <g class="ca">
    <polygon points="475,274 470,282 480,282"/>
    <rect x="474" y="272" width="2" height="4"/>
  </g>

  <!-- ════════════════════ C++ ENGINE ════════════════════ -->
  <g id="cpp-engine">
    <rect x="25" y="284" width="900" height="345" rx="8" fill="transparent" stroke="#2D3345" stroke-width="1"/>
    <rect x="25" y="284" width="900" height="26" rx="8" fill="#2D3650"/>
    <rect x="25" y="298" width="900" height="12" fill="#2D3650"/>
    <text x="475" y="302" text-anchor="middle" font-size="12" font-weight="700" fill="white">C++ Engine</text>

    <!-- ──── Column 1: Environment ──── -->
    <g id="col-environment">
      <rect x="35" y="320" width="168" height="298" rx="6" fill="transparent" stroke="#1E4035" stroke-width="0.5"/>
      <rect x="35" y="320" width="168" height="24" rx="6" fill="#45AB8A"/>
      <rect x="35" y="334" width="168" height="10" fill="#45AB8A"/>
      <text x="119" y="337" text-anchor="middle" font-size="11" font-weight="700" fill="white">Environment</text>

      <text x="119" y="360" text-anchor="middle" font-size="9" font-weight="600" class="env">Jet Structures</text>
      <rect x="43" y="368" width="152" height="20" rx="3" fill="#45AB8A" opacity="0.15"/>
      <text x="119" y="382" text-anchor="middle" font-size="9.5" class="cp">Tophat</text>
      <rect x="43" y="392" width="152" height="20" rx="3" fill="#45AB8A" opacity="0.15"/>
      <text x="119" y="406" text-anchor="middle" font-size="9.5" class="cp">Gaussian</text>
      <rect x="43" y="416" width="152" height="20" rx="3" fill="#45AB8A" opacity="0.15"/>
      <text x="119" y="430" text-anchor="middle" font-size="9.5" class="cp">PowerLaw</text>
      <rect x="43" y="440" width="152" height="20" rx="3" fill="#45AB8A" opacity="0.15"/>
      <text x="119" y="454" text-anchor="middle" font-size="9.5" class="cp">TwoComponent</text>
      <rect x="43" y="464" width="152" height="20" rx="3" fill="#45AB8A" opacity="0.15"/>
      <text x="119" y="478" text-anchor="middle" font-size="9.5" class="cp" font-style="italic">Custom (user-defined)</text>

      <text x="119" y="504" text-anchor="middle" font-size="9" font-weight="600" class="env">Medium</text>
      <rect x="43" y="512" width="152" height="20" rx="3" fill="#45AB8A" opacity="0.15"/>
      <text x="119" y="526" text-anchor="middle" font-size="9.5" class="cp">ISM (constant density)</text>
      <rect x="43" y="536" width="152" height="20" rx="3" fill="#45AB8A" opacity="0.15"/>
      <text x="119" y="550" text-anchor="middle" font-size="9.5" class="cp">Wind (r⁻² profile)</text>
      <rect x="43" y="560" width="152" height="20" rx="3" fill="#45AB8A" opacity="0.15"/>
      <text x="119" y="574" text-anchor="middle" font-size="9.5" class="cp" font-style="italic">Custom (user-defined)</text>

      <text x="119" y="600" text-anchor="middle" font-size="9" font-weight="600" class="env">Injection</text>
      <rect x="43" y="606" width="74" height="7" rx="2" fill="#45AB8A" opacity="0.3"/>
      <rect x="121" y="606" width="74" height="7" rx="2" fill="#45AB8A" opacity="0.3"/>
    </g>

    <!-- ──── Column 2: Dynamics ──── -->
    <g id="col-dynamics">
      <rect x="213" y="320" width="168" height="298" rx="6" fill="transparent" stroke="#3D3420" stroke-width="0.5"/>
      <rect x="213" y="320" width="168" height="24" rx="6" fill="#D49B40"/>
      <rect x="213" y="334" width="168" height="10" fill="#D49B40"/>
      <text x="297" y="337" text-anchor="middle" font-size="11" font-weight="700" fill="white">Dynamics</text>

      <text x="297" y="360" text-anchor="middle" font-size="9" font-weight="600" class="dyn">Shock Models</text>
      <rect x="221" y="368" width="152" height="20" rx="3" fill="#D49B40" opacity="0.15"/>
      <text x="297" y="382" text-anchor="middle" font-size="9.5" class="cp">Forward Shock</text>
      <rect x="221" y="392" width="152" height="20" rx="3" fill="#D49B40" opacity="0.15"/>
      <text x="297" y="406" text-anchor="middle" font-size="9.5" class="cp">Reverse Shock</text>
      <rect x="221" y="416" width="152" height="20" rx="3" fill="#D49B40" opacity="0.15"/>
      <text x="297" y="430" text-anchor="middle" font-size="9.5" class="cp">Simple Shock</text>

      <text x="297" y="460" text-anchor="middle" font-size="9" font-weight="600" class="dyn">Physics</text>
      <rect x="221" y="468" width="152" height="20" rx="3" fill="#D49B40" opacity="0.15"/>
      <text x="297" y="482" text-anchor="middle" font-size="9.5" class="cp">Shock Jump Conditions</text>
      <rect x="221" y="492" width="152" height="20" rx="3" fill="#D49B40" opacity="0.15"/>
      <text x="297" y="506" text-anchor="middle" font-size="9.5" class="cp">Lateral Spreading</text>
      <rect x="221" y="516" width="152" height="20" rx="3" fill="#D49B40" opacity="0.15"/>
      <text x="297" y="530" text-anchor="middle" font-size="9.5" class="cp">Energy / Mass Injection</text>

      <text x="297" y="560" text-anchor="middle" font-size="9" font-weight="600" class="dyn">Regimes</text>
      <rect x="221" y="568" width="74" height="18" rx="3" fill="#D49B40" opacity="0.15"/>
      <text x="258" y="581" text-anchor="middle" font-size="8.5" class="cp">Relativistic</text>
      <rect x="299" y="568" width="74" height="18" rx="3" fill="#D49B40" opacity="0.15"/>
      <text x="336" y="581" text-anchor="middle" font-size="8.5" class="cp">Newtonian</text>
      <rect x="221" y="590" width="74" height="18" rx="3" fill="#D49B40" opacity="0.15"/>
      <text x="258" y="603" text-anchor="middle" font-size="8.5" class="cp">Adiabatic</text>
      <rect x="299" y="590" width="74" height="18" rx="3" fill="#D49B40" opacity="0.15"/>
      <text x="336" y="603" text-anchor="middle" font-size="8.5" class="cp">Radiative</text>
    </g>

    <!-- ──── Column 3: Radiation ──── -->
    <g id="col-radiation">
      <rect x="391" y="320" width="168" height="298" rx="6" fill="transparent" stroke="#3D2528" stroke-width="0.5"/>
      <rect x="391" y="320" width="168" height="24" rx="6" fill="#D46565"/>
      <rect x="391" y="334" width="168" height="10" fill="#D46565"/>
      <text x="475" y="337" text-anchor="middle" font-size="11" font-weight="700" fill="white">Radiation</text>

      <text x="475" y="360" text-anchor="middle" font-size="9" font-weight="600" class="rad">Emission Mechanisms</text>
      <rect x="399" y="368" width="152" height="20" rx="3" fill="#D46565" opacity="0.12"/>
      <text x="475" y="382" text-anchor="middle" font-size="9.5" class="cp">Synchrotron</text>
      <rect x="399" y="392" width="152" height="20" rx="3" fill="#D46565" opacity="0.12"/>
      <text x="475" y="406" text-anchor="middle" font-size="9.5" class="cp">Inverse Compton / SSC</text>
      <rect x="399" y="416" width="152" height="20" rx="3" fill="#D46565" opacity="0.12"/>
      <text x="475" y="430" text-anchor="middle" font-size="9.5" class="cp">Self-Absorption (SSA)</text>
      <rect x="399" y="440" width="152" height="20" rx="3" fill="#D46565" opacity="0.12"/>
      <text x="475" y="454" text-anchor="middle" font-size="9.5" class="cp">Prompt Emission</text>

      <text x="475" y="480" text-anchor="middle" font-size="9" font-weight="600" class="rad">Corrections</text>
      <rect x="399" y="488" width="152" height="20" rx="3" fill="#D46565" opacity="0.12"/>
      <text x="475" y="502" text-anchor="middle" font-size="9.5" class="cp">Klein-Nishina</text>

      <text x="475" y="528" text-anchor="middle" font-size="9" font-weight="600" class="rad">Cooling Regime</text>
      <rect x="399" y="536" width="74" height="18" rx="3" fill="#D46565" opacity="0.12"/>
      <text x="436" y="549" text-anchor="middle" font-size="8.5" class="cp">Slow cooling</text>
      <rect x="477" y="536" width="74" height="18" rx="3" fill="#D46565" opacity="0.12"/>
      <text x="514" y="549" text-anchor="middle" font-size="8.5" class="cp">Fast cooling</text>
    </g>

    <!-- ──── Column 4: Core ──── -->
    <g id="col-core">
      <rect x="569" y="320" width="168" height="298" rx="6" fill="transparent" stroke="#204048" stroke-width="0.5"/>
      <rect x="569" y="320" width="168" height="24" rx="6" fill="#4DA5BB"/>
      <rect x="569" y="334" width="168" height="10" fill="#4DA5BB"/>
      <text x="653" y="337" text-anchor="middle" font-size="11" font-weight="700" fill="white">Core</text>

      <text x="653" y="360" text-anchor="middle" font-size="9" font-weight="600" class="core">Spatial-Temporal Grid</text>
      <rect x="577" y="368" width="152" height="20" rx="3" fill="#4DA5BB" opacity="0.12"/>
      <text x="653" y="382" text-anchor="middle" font-size="9.5" class="cp">Time-Angle-Phi Grid</text>
      <rect x="577" y="392" width="152" height="20" rx="3" fill="#4DA5BB" opacity="0.12"/>
      <text x="653" y="406" text-anchor="middle" font-size="9.5" class="cp">Adaptive Resolution</text>

      <text x="653" y="432" text-anchor="middle" font-size="9" font-weight="600" class="core">Observer Effects</text>
      <rect x="577" y="440" width="152" height="20" rx="3" fill="#4DA5BB" opacity="0.12"/>
      <text x="653" y="454" text-anchor="middle" font-size="9.5" class="cp">Equal Arrival Time</text>
      <rect x="577" y="464" width="152" height="20" rx="3" fill="#4DA5BB" opacity="0.12"/>
      <text x="653" y="478" text-anchor="middle" font-size="9.5" class="cp">Doppler Boosting</text>
      <rect x="577" y="488" width="152" height="20" rx="3" fill="#4DA5BB" opacity="0.12"/>
      <text x="653" y="502" text-anchor="middle" font-size="9.5" class="cp">Flux Integration</text>

      <text x="653" y="528" text-anchor="middle" font-size="9" font-weight="600" class="core">Numerics</text>
      <rect x="577" y="536" width="152" height="20" rx="3" fill="#4DA5BB" opacity="0.12"/>
      <text x="653" y="550" text-anchor="middle" font-size="9.5" class="cp">Quadrature</text>
      <rect x="577" y="560" width="152" height="20" rx="3" fill="#4DA5BB" opacity="0.12"/>
      <text x="653" y="574" text-anchor="middle" font-size="9.5" class="cp">Physics Constants</text>
    </g>

    <!-- ──── Column 5: Utilities ──── -->
    <g id="col-utilities">
      <rect x="747" y="320" width="168" height="298" rx="6" fill="transparent" stroke="#2D3038" stroke-width="0.5"/>
      <rect x="747" y="320" width="168" height="24" rx="6" fill="#7D8595"/>
      <rect x="747" y="334" width="168" height="10" fill="#7D8595"/>
      <text x="831" y="337" text-anchor="middle" font-size="11" font-weight="700" fill="white">Utilities</text>

      <text x="831" y="360" text-anchor="middle" font-size="9" font-weight="600" class="cs">Performance</text>
      <rect x="755" y="368" width="152" height="20" rx="3" fill="#7D8595" opacity="0.12"/>
      <text x="831" y="382" text-anchor="middle" font-size="9.5" class="cp">Fast Math</text>
      <rect x="755" y="392" width="152" height="20" rx="3" fill="#7D8595" opacity="0.12"/>
      <text x="831" y="406" text-anchor="middle" font-size="9.5" class="cp">Profiler</text>

      <text x="831" y="432" text-anchor="middle" font-size="9" font-weight="600" class="cs">Infrastructure</text>
      <rect x="755" y="440" width="152" height="20" rx="3" fill="#7D8595" opacity="0.12"/>
      <text x="831" y="454" text-anchor="middle" font-size="9.5" class="cp">File I/O</text>
      <rect x="755" y="464" width="152" height="20" rx="3" fill="#7D8595" opacity="0.12"/>
      <text x="831" y="478" text-anchor="middle" font-size="9.5" class="cp">Physics Units</text>

      <text x="831" y="504" text-anchor="middle" font-size="9" font-weight="600" class="cs">Defaults</text>
      <rect x="755" y="512" width="152" height="20" rx="3" fill="#7D8595" opacity="0.12"/>
      <text x="831" y="526" text-anchor="middle" font-size="9.5" class="cp">Simulation Defaults</text>
    </g>
  </g>

  <!-- ════════════════════ COMPUTATION PIPELINE ════════════════════ -->
  <g id="pipeline">
    <rect x="25" y="642" width="900" height="58" rx="8" fill="transparent" stroke="#2D3345" stroke-width="1"/>
    <text x="475" y="658" text-anchor="middle" font-size="10" font-weight="600" class="cp">Computation Pipeline</text>

    <rect x="42" y="666" width="90" height="24" rx="4" fill="#2D3850"/>
    <text x="87" y="682" text-anchor="middle" font-size="8.5" fill="white" font-weight="500">User Input</text>
    <text x="140" y="680" text-anchor="middle" font-size="11" class="ca">→</text>

    <rect x="150" y="666" width="110" height="24" rx="4" fill="#45AB8A"/>
    <text x="205" y="682" text-anchor="middle" font-size="8.5" fill="white" font-weight="500">Jet + Medium</text>
    <text x="268" y="680" text-anchor="middle" font-size="11" class="ca">→</text>

    <rect x="278" y="666" width="90" height="24" rx="4" fill="#4DA5BB"/>
    <text x="323" y="682" text-anchor="middle" font-size="8.5" fill="white" font-weight="500">3D Mesh</text>
    <text x="376" y="680" text-anchor="middle" font-size="11" class="ca">→</text>

    <rect x="386" y="666" width="120" height="24" rx="4" fill="#D49B40"/>
    <text x="446" y="682" text-anchor="middle" font-size="8.5" fill="white" font-weight="500">Shock Evolution</text>
    <text x="514" y="680" text-anchor="middle" font-size="11" class="ca">→</text>

    <rect x="524" y="666" width="120" height="24" rx="4" fill="#D46565"/>
    <text x="584" y="682" text-anchor="middle" font-size="8.5" fill="white" font-weight="500">Radiation Calc</text>
    <text x="652" y="680" text-anchor="middle" font-size="11" class="ca">→</text>

    <rect x="662" y="666" width="110" height="24" rx="4" fill="#4DA5BB"/>
    <text x="717" y="682" text-anchor="middle" font-size="8.5" fill="white" font-weight="500">Flux Integration</text>
    <text x="780" y="680" text-anchor="middle" font-size="11" class="ca">→</text>

    <rect x="790" y="666" width="120" height="24" rx="4" fill="#2D3850"/>
    <text x="850" y="682" text-anchor="middle" font-size="8.5" fill="white" font-weight="500">Light Curves / Spectra</text>
  </g>

  <!-- ════════════════════ EXTERNAL DEPENDENCIES ════════════════════ -->
  <g id="external">
    <rect x="25" y="713" width="900" height="26" rx="6" fill="transparent" stroke="#2D3345" stroke-width="1"/>
    <text x="475" y="730" text-anchor="middle" font-size="10" class="cs">
      <tspan font-weight="600">External:</tspan>
      <tspan dx="8">xtensor</tspan>
      <tspan dx="8">·</tspan>
      <tspan dx="8">pybind11</tspan>
      <tspan dx="8">·</tspan>
      <tspan dx="8">NumPy</tspan>
      <tspan dx="8">·</tspan>
      <tspan dx="8">C++20</tspan>
      <tspan dx="8">·</tspan>
      <tspan dx="8">Python 3.8+</tspan>
    </text>
  </g>

</svg>
