<?xml version="1.0" encoding="UTF-8"?>
<svg xmlns="http://www.w3.org/2000/svg" viewBox="0 0 950 360"
     font-family="-apple-system, 'Segoe UI', Roboto, 'Helvetica Neue', Arial, sans-serif">

  <style>
    .cp { fill: #E6EDF3; }
    .cs { fill: #A8B8CC; }
    .cb { fill: #D0DDE8; }
    .mi { fill: #5B8ADB; }
    .mw { fill: #45AB8A; }
    .gl { stroke: #2D3345; fill: none; }
  </style>

  <rect width="950" height="360" fill="transparent" rx="12"/>

  <text x="475" y="28" text-anchor="middle" font-size="15" font-weight="700" class="cp" letter-spacing="0.3">Performance · Full SSC</text>
  <text x="475" y="44" text-anchor="middle" font-size="9" class="cs">CPU time by stage · Apple M2 · single core · default resolution</text>
  <text x="475" y="57" text-anchor="middle" font-size="9" class="cs">each group: θv/θc = 0 │ 1 │ 2 │ 4 (left → right)</text>

  <rect x="82" y="67" width="12" height="12" rx="2" fill="#D49B40"/>
  <text x="98" y="78" font-size="10" class="cb">Shock Dynamics</text>
  <rect x="197" y="67" width="12" height="12" rx="2" fill="#4DA5BB"/>
  <text x="213" y="78" font-size="10" class="cb">EAT Grid</text>
  <rect x="276" y="67" width="12" height="12" rx="2" fill="#45AB8A"/>
  <text x="292" y="78" font-size="10" class="cb">Syn. Electrons</text>
  <rect x="391" y="67" width="12" height="12" rx="2" fill="#D46565"/>
  <text x="407" y="78" font-size="10" class="cb">Syn. Photons</text>
  <rect x="494" y="67" width="12" height="12" rx="2" fill="#5B8ADB"/>
  <text x="510" y="78" font-size="10" class="cb">Flux Integration</text>
  <rect x="621" y="67" width="12" height="12" rx="2" fill="#9B72CF"/>
  <text x="637" y="78" font-size="10" class="cb">IC Cooling</text>
  <rect x="712" y="67" width="12" height="12" rx="2" fill="#D4693A"/>
  <text x="728" y="78" font-size="10" class="cb">IC Photons</text>
  <rect x="803" y="67" width="12" height="12" rx="2" fill="#52A87C"/>
  <text x="819" y="78" font-size="10" class="cb">SSC Flux</text>

  <line x1="52" y1="265" x2="935" y2="265" class="gl" stroke-width="1"/>
  <line x1="52" y1="222.8" x2="935" y2="222.8" class="gl" stroke-width="1" stroke-dasharray="4,3"/>
  <text x="48" y="226.8" text-anchor="end" font-size="8" class="cs">50 ms</text>
  <line x1="52" y1="180.5" x2="935" y2="180.5" class="gl" stroke-width="1" stroke-dasharray="4,3"/>
  <text x="48" y="184.5" text-anchor="end" font-size="8" class="cs">100 ms</text>
  <line x1="52" y1="138.2" x2="935" y2="138.2" class="gl" stroke-width="1" stroke-dasharray="4,3"/>
  <text x="48" y="142.2" text-anchor="end" font-size="8" class="cs">150 ms</text>
  <line x1="52" y1="96.0" x2="935" y2="96.0" class="gl" stroke-width="1" stroke-dasharray="4,3"/>
  <text x="48" y="100.0" text-anchor="end" font-size="8" class="cs">200 ms</text>
  <text x="48" y="269" text-anchor="end" font-size="8" class="cs">0</text>

  <rect x="52.0" y="264.9" width="21" height="0.1" fill="#D49B40"/>
  <rect x="52.0" y="264.9" width="21" height="0.0" fill="#4DA5BB"/>
  <rect x="52.0" y="264.9" width="21" height="0.1" fill="#45AB8A"/>
  <rect x="52.0" y="264.7" width="21" height="0.1" fill="#D46565"/>
  <rect x="52.0" y="264.6" width="21" height="0.1" fill="#5B8ADB"/>
  <rect x="52.0" y="264.5" width="21" height="0.1" fill="#9B72CF"/>
  <rect x="52.0" y="261.8" width="21" height="2.8" fill="#D4693A"/>
  <rect x="52.0" y="261.6" width="21" height="0.2" fill="#52A87C"/>
  <text x="62.5" y="257.6" text-anchor="middle" font-size="8" font-weight="600" class="cb">4.1</text>
  <rect x="76.0" y="264.8" width="21" height="0.2" fill="#D49B40"/>
  <rect x="76.0" y="263.4" width="21" height="1.4" fill="#4DA5BB"/>
  <rect x="76.0" y="263.2" width="21" height="0.1" fill="#45AB8A"/>
  <rect x="76.0" y="263.1" width="21" height="0.2" fill="#D46565"/>
  <rect x="76.0" y="258.4" width="21" height="4.7" fill="#5B8ADB"/>
  <rect x="76.0" y="258.3" width="21" height="0.1" fill="#9B72CF"/>
  <rect x="76.0" y="255.8" width="21" height="2.6" fill="#D4693A"/>
  <rect x="76.0" y="253.5" width="21" height="2.2" fill="#52A87C"/>
  <text x="86.5" y="249.5" text-anchor="middle" font-size="8" font-weight="600" class="cb">13.6</text>
  <rect x="100.0" y="264.9" width="21" height="0.1" fill="#D49B40"/>
  <rect x="100.0" y="263.3" width="21" height="1.6" fill="#4DA5BB"/>
  <rect x="100.0" y="263.1" width="21" height="0.1" fill="#45AB8A"/>
  <rect x="100.0" y="262.9" width="21" height="0.2" fill="#D46565"/>
  <rect x="100.0" y="257.2" width="21" height="5.8" fill="#5B8ADB"/>
  <rect x="100.0" y="257.1" width="21" height="0.1" fill="#9B72CF"/>
  <rect x="100.0" y="254.2" width="21" height="2.9" fill="#D4693A"/>
  <rect x="100.0" y="251.5" width="21" height="2.8" fill="#52A87C"/>
  <text x="110.5" y="247.5" text-anchor="middle" font-size="8" font-weight="600" class="cb">16.0</text>
  <rect x="124.0" y="264.9" width="21" height="0.1" fill="#D49B40"/>
  <rect x="124.0" y="263.2" width="21" height="1.7" fill="#4DA5BB"/>
  <rect x="124.0" y="263.0" width="21" height="0.1" fill="#45AB8A"/>
  <rect x="124.0" y="262.9" width="21" height="0.2" fill="#D46565"/>
  <rect x="124.0" y="258.0" width="21" height="4.8" fill="#5B8ADB"/>
  <rect x="124.0" y="258.0" width="21" height="0.1" fill="#9B72CF"/>
  <rect x="124.0" y="255.0" width="21" height="3.0" fill="#D4693A"/>
  <rect x="124.0" y="252.3" width="21" height="2.7" fill="#52A87C"/>
  <text x="134.5" y="248.3" text-anchor="middle" font-size="8" font-weight="600" class="cb">15.0</text>
  <rect x="161.0" y="264.9" width="21" height="0.1" fill="#D49B40"/>
  <rect x="161.0" y="264.9" width="21" height="0.0" fill="#4DA5BB"/>
  <rect x="161.0" y="264.8" width="21" height="0.1" fill="#45AB8A"/>
  <rect x="161.0" y="264.6" width="21" height="0.2" fill="#D46565"/>
  <rect x="161.0" y="264.5" width="21" height="0.1" fill="#5B8ADB"/>
  <rect x="161.0" y="264.4" width="21" height="0.1" fill="#9B72CF"/>
  <rect x="161.0" y="261.8" width="21" height="2.7" fill="#D4693A"/>
  <rect x="161.0" y="261.6" width="21" height="0.2" fill="#52A87C"/>
  <text x="171.5" y="257.6" text-anchor="middle" font-size="8" font-weight="600" class="cb">4.0</text>
  <rect x="185.0" y="264.8" width="21" height="0.2" fill="#D49B40"/>
  <rect x="185.0" y="263.3" width="21" height="1.5" fill="#4DA5BB"/>
  <rect x="185.0" y="263.2" width="21" height="0.1" fill="#45AB8A"/>
  <rect x="185.0" y="263.0" width="21" height="0.2" fill="#D46565"/>
  <rect x="185.0" y="259.0" width="21" height="4.0" fill="#5B8ADB"/>
  <rect x="185.0" y="258.9" width="21" height="0.1" fill="#9B72CF"/>
  <rect x="185.0" y="256.0" width="21" height="2.8" fill="#D4693A"/>
  <rect x="185.0" y="253.7" width="21" height="2.3" fill="#52A87C"/>
  <text x="195.5" y="249.7" text-anchor="middle" font-size="8" font-weight="600" class="cb">13.3</text>
  <rect x="209.0" y="264.9" width="21" height="0.1" fill="#D49B40"/>
  <rect x="209.0" y="263.3" width="21" height="1.6" fill="#4DA5BB"/>
  <rect x="209.0" y="263.1" width="21" height="0.1" fill="#45AB8A"/>
  <rect x="209.0" y="262.9" width="21" height="0.2" fill="#D46565"/>
  <rect x="209.0" y="258.3" width="21" height="4.6" fill="#5B8ADB"/>
  <rect x="209.0" y="258.2" width="21" height="0.1" fill="#9B72CF"/>
  <rect x="209.0" y="255.3" width="21" height="2.9" fill="#D4693A"/>
  <rect x="209.0" y="252.7" width="21" height="2.6" fill="#52A87C"/>
  <text x="219.5" y="248.7" text-anchor="middle" font-size="8" font-weight="600" class="cb">14.6</text>
  <rect x="233.0" y="264.9" width="21" height="0.1" fill="#D49B40"/>
  <rect x="233.0" y="263.2" width="21" height="1.6" fill="#4DA5BB"/>
  <rect x="233.0" y="263.1" width="21" height="0.1" fill="#45AB8A"/>
  <rect x="233.0" y="262.9" width="21" height="0.2" fill="#D46565"/>
  <rect x="233.0" y="257.6" width="21" height="5.3" fill="#5B8ADB"/>
  <rect x="233.0" y="257.5" width="21" height="0.1" fill="#9B72CF"/>
  <rect x="233.0" y="254.1" width="21" height="3.4" fill="#D4693A"/>
  <rect x="233.0" y="251.3" width="21" height="2.8" fill="#52A87C"/>
  <text x="243.5" y="247.3" text-anchor="middle" font-size="8" font-weight="600" class="cb">16.3</text>
  <rect x="270.0" y="264.9" width="21" height="0.1" fill="#D49B40"/>
  <rect x="270.0" y="264.8" width="21" height="0.0" fill="#4DA5BB"/>
  <rect x="270.0" y="264.7" width="21" height="0.1" fill="#45AB8A"/>
  <rect x="270.0" y="264.5" width="21" height="0.2" fill="#D46565"/>
  <rect x="270.0" y="264.4" width="21" height="0.1" fill="#5B8ADB"/>
  <rect x="270.0" y="264.3" width="21" height="0.1" fill="#9B72CF"/>
  <rect x="270.0" y="260.0" width="21" height="4.3" fill="#D4693A"/>
  <rect x="270.0" y="259.8" width="21" height="0.2" fill="#52A87C"/>
  <text x="280.5" y="255.8" text-anchor="middle" font-size="8" font-weight="600" class="cb">6.1</text>
  <rect x="294.0" y="264.8" width="21" height="0.2" fill="#D49B40"/>
  <rect x="294.0" y="262.1" width="21" height="2.7" fill="#4DA5BB"/>
  <rect x="294.0" y="261.9" width="21" height="0.2" fill="#45AB8A"/>
  <rect x="294.0" y="261.7" width="21" height="0.2" fill="#D46565"/>
  <rect x="294.0" y="254.2" width="21" height="7.5" fill="#5B8ADB"/>
  <rect x="294.0" y="254.1" width="21" height="0.1" fill="#9B72CF"/>
  <rect x="294.0" y="249.7" width="21" height="4.4" fill="#D4693A"/>
  <rect x="294.0" y="245.2" width="21" height="4.5" fill="#52A87C"/>
  <text x="304.5" y="241.2" text-anchor="middle" font-size="8" font-weight="600" class="cb">23.4</text>
  <rect x="318.0" y="264.8" width="21" height="0.2" fill="#D49B40"/>
  <rect x="318.0" y="263.0" width="21" height="1.8" fill="#4DA5BB"/>
  <rect x="318.0" y="262.9" width="21" height="0.2" fill="#45AB8A"/>
  <rect x="318.0" y="262.6" width="21" height="0.2" fill="#D46565"/>
  <rect x="318.0" y="258.3" width="21" height="4.3" fill="#5B8ADB"/>
  <rect x="318.0" y="258.2" width="21" height="0.1" fill="#9B72CF"/>
  <rect x="318.0" y="253.7" width="21" height="4.5" fill="#D4693A"/>
  <rect x="318.0" y="250.8" width="21" height="2.9" fill="#52A87C"/>
  <text x="328.5" y="246.8" text-anchor="middle" font-size="8" font-weight="600" class="cb">16.8</text>
  <rect x="342.0" y="264.8" width="21" height="0.2" fill="#D49B40"/>
  <rect x="342.0" y="262.4" width="21" height="2.3" fill="#4DA5BB"/>
  <rect x="342.0" y="262.3" width="21" height="0.2" fill="#45AB8A"/>
  <rect x="342.0" y="262.1" width="21" height="0.2" fill="#D46565"/>
  <rect x="342.0" y="256.8" width="21" height="5.3" fill="#5B8ADB"/>
  <rect x="342.0" y="256.7" width="21" height="0.1" fill="#9B72CF"/>
  <rect x="342.0" y="251.7" width="21" height="5.0" fill="#D4693A"/>
  <rect x="342.0" y="248.0" width="21" height="3.6" fill="#52A87C"/>
  <text x="352.5" y="244.0" text-anchor="middle" font-size="8" font-weight="600" class="cb">20.1</text>
  <rect x="379.0" y="264.9" width="21" height="0.1" fill="#D49B40"/>
  <rect x="379.0" y="264.8" width="21" height="0.0" fill="#4DA5BB"/>
  <rect x="379.0" y="264.7" width="21" height="0.1" fill="#45AB8A"/>
  <rect x="379.0" y="264.5" width="21" height="0.2" fill="#D46565"/>
  <rect x="379.0" y="264.4" width="21" height="0.1" fill="#5B8ADB"/>
  <rect x="379.0" y="264.3" width="21" height="0.1" fill="#9B72CF"/>
  <rect x="379.0" y="260.2" width="21" height="4.1" fill="#D4693A"/>
  <rect x="379.0" y="260.0" width="21" height="0.2" fill="#52A87C"/>
  <text x="389.5" y="256.0" text-anchor="middle" font-size="8" font-weight="600" class="cb">6.0</text>
  <rect x="403.0" y="264.7" width="21" height="0.3" fill="#D49B40"/>
  <rect x="403.0" y="262.0" width="21" height="2.7" fill="#4DA5BB"/>
  <rect x="403.0" y="261.9" width="21" height="0.2" fill="#45AB8A"/>
  <rect x="403.0" y="261.6" width="21" height="0.2" fill="#D46565"/>
  <rect x="403.0" y="253.6" width="21" height="8.0" fill="#5B8ADB"/>
  <rect x="403.0" y="253.5" width="21" height="0.1" fill="#9B72CF"/>
  <rect x="403.0" y="249.3" width="21" height="4.3" fill="#D4693A"/>
  <rect x="403.0" y="244.2" width="21" height="5.1" fill="#52A87C"/>
  <text x="413.5" y="240.2" text-anchor="middle" font-size="8" font-weight="600" class="cb">24.7</text>
  <rect x="427.0" y="264.8" width="21" height="0.2" fill="#D49B40"/>
  <rect x="427.0" y="263.1" width="21" height="1.7" fill="#4DA5BB"/>
  <rect x="427.0" y="262.9" width="21" height="0.1" fill="#45AB8A"/>
  <rect x="427.0" y="262.7" width="21" height="0.2" fill="#D46565"/>
  <rect x="427.0" y="257.8" width="21" height="4.9" fill="#5B8ADB"/>
  <rect x="427.0" y="257.7" width="21" height="0.1" fill="#9B72CF"/>
  <rect x="427.0" y="253.4" width="21" height="4.3" fill="#D4693A"/>
  <rect x="427.0" y="250.3" width="21" height="3.1" fill="#52A87C"/>
  <text x="437.5" y="246.3" text-anchor="middle" font-size="8" font-weight="600" class="cb">17.4</text>
  <rect x="451.0" y="264.8" width="21" height="0.2" fill="#D49B40"/>
  <rect x="451.0" y="262.4" width="21" height="2.3" fill="#4DA5BB"/>
  <rect x="451.0" y="262.3" width="21" height="0.2" fill="#45AB8A"/>
  <rect x="451.0" y="262.1" width="21" height="0.2" fill="#D46565"/>
  <rect x="451.0" y="255.6" width="21" height="6.5" fill="#5B8ADB"/>
  <rect x="451.0" y="255.5" width="21" height="0.1" fill="#9B72CF"/>
  <rect x="451.0" y="250.6" width="21" height="4.8" fill="#D4693A"/>
  <rect x="451.0" y="246.5" width="21" height="4.1" fill="#52A87C"/>
  <text x="461.5" y="242.5" text-anchor="middle" font-size="8" font-weight="600" class="cb">21.9</text>
  <rect x="488.0" y="263.9" width="21" height="1.1" fill="#D49B40"/>
  <rect x="488.0" y="263.9" width="21" height="0.0" fill="#4DA5BB"/>
  <rect x="488.0" y="263.6" width="21" height="0.2" fill="#45AB8A"/>
  <rect x="488.0" y="263.4" width="21" height="0.2" fill="#D46565"/>
  <rect x="488.0" y="263.3" width="21" height="0.1" fill="#5B8ADB"/>
  <rect x="488.0" y="262.3" width="21" height="1.0" fill="#9B72CF"/>
  <rect x="488.0" y="181.7" width="21" height="80.7" fill="#D4693A"/>
  <rect x="488.0" y="181.3" width="21" height="0.3" fill="#52A87C"/>
  <text x="498.5" y="177.3" text-anchor="middle" font-size="8" font-weight="600" class="cb">99.0</text>
  <rect x="512.0" y="263.6" width="21" height="1.4" fill="#D49B40"/>
  <rect x="512.0" y="260.6" width="21" height="3.1" fill="#4DA5BB"/>
  <rect x="512.0" y="260.3" width="21" height="0.3" fill="#45AB8A"/>
  <rect x="512.0" y="260.0" width="21" height="0.3" fill="#D46565"/>
  <rect x="512.0" y="251.6" width="21" height="8.4" fill="#5B8ADB"/>
  <rect x="512.0" y="250.4" width="21" height="1.2" fill="#9B72CF"/>
  <rect x="512.0" y="158.9" width="21" height="91.5" fill="#D4693A"/>
  <rect x="512.0" y="153.2" width="21" height="5.7" fill="#52A87C"/>
  <text x="522.5" y="149.2" text-anchor="middle" font-size="8" font-weight="600" class="cb">132.3</text>
  <rect x="536.0" y="263.8" width="21" height="1.2" fill="#D49B40"/>
  <rect x="536.0" y="261.6" width="21" height="2.2" fill="#4DA5BB"/>
  <rect x="536.0" y="261.3" width="21" height="0.3" fill="#45AB8A"/>
  <rect x="536.0" y="261.0" width="21" height="0.3" fill="#D46565"/>
  <rect x="536.0" y="255.8" width="21" height="5.2" fill="#5B8ADB"/>
  <rect x="536.0" y="254.5" width="21" height="1.4" fill="#9B72CF"/>
  <rect x="536.0" y="160.8" width="21" height="93.7" fill="#D4693A"/>
  <rect x="536.0" y="156.4" width="21" height="4.4" fill="#52A87C"/>
  <text x="546.5" y="152.4" text-anchor="middle" font-size="8" font-weight="600" class="cb">128.5</text>
  <rect x="560.0" y="263.8" width="21" height="1.2" fill="#D49B40"/>
  <rect x="560.0" y="262.0" width="21" height="1.8" fill="#4DA5BB"/>
  <rect x="560.0" y="261.7" width="21" height="0.3" fill="#45AB8A"/>
  <rect x="560.0" y="261.5" width="21" height="0.3" fill="#D46565"/>
  <rect x="560.0" y="257.3" width="21" height="4.1" fill="#5B8ADB"/>
  <rect x="560.0" y="256.1" width="21" height="1.2" fill="#9B72CF"/>
  <rect x="560.0" y="163.6" width="21" height="92.5" fill="#D4693A"/>
  <rect x="560.0" y="159.9" width="21" height="3.7" fill="#52A87C"/>
  <text x="570.5" y="155.9" text-anchor="middle" font-size="8" font-weight="600" class="cb">124.4</text>
  <rect x="597.0" y="263.7" width="21" height="1.3" fill="#D49B40"/>
  <rect x="597.0" y="263.7" width="21" height="0.0" fill="#4DA5BB"/>
  <rect x="597.0" y="263.4" width="21" height="0.3" fill="#45AB8A"/>
  <rect x="597.0" y="263.1" width="21" height="0.2" fill="#D46565"/>
  <rect x="597.0" y="263.0" width="21" height="0.1" fill="#5B8ADB"/>
  <rect x="597.0" y="262.0" width="21" height="1.0" fill="#9B72CF"/>
  <rect x="597.0" y="185.1" width="21" height="77.0" fill="#D4693A"/>
  <rect x="597.0" y="184.7" width="21" height="0.3" fill="#52A87C"/>
  <text x="607.5" y="180.7" text-anchor="middle" font-size="8" font-weight="600" class="cb">95.0</text>
  <rect x="621.0" y="263.4" width="21" height="1.6" fill="#D49B40"/>
  <rect x="621.0" y="260.3" width="21" height="3.1" fill="#4DA5BB"/>
  <rect x="621.0" y="260.0" width="21" height="0.3" fill="#45AB8A"/>
  <rect x="621.0" y="259.7" width="21" height="0.3" fill="#D46565"/>
  <rect x="621.0" y="251.1" width="21" height="8.6" fill="#5B8ADB"/>
  <rect x="621.0" y="249.9" width="21" height="1.2" fill="#9B72CF"/>
  <rect x="621.0" y="162.9" width="21" height="87.0" fill="#D4693A"/>
  <rect x="621.0" y="156.8" width="21" height="6.1" fill="#52A87C"/>
  <text x="631.5" y="152.8" text-anchor="middle" font-size="8" font-weight="600" class="cb">128.1</text>
  <rect x="645.0" y="263.6" width="21" height="1.4" fill="#D49B40"/>
  <rect x="645.0" y="261.5" width="21" height="2.1" fill="#4DA5BB"/>
  <rect x="645.0" y="261.2" width="21" height="0.3" fill="#45AB8A"/>
  <rect x="645.0" y="260.9" width="21" height="0.3" fill="#D46565"/>
  <rect x="645.0" y="255.1" width="21" height="5.8" fill="#5B8ADB"/>
  <rect x="645.0" y="254.1" width="21" height="1.0" fill="#9B72CF"/>
  <rect x="645.0" y="169.7" width="21" height="84.4" fill="#D4693A"/>
  <rect x="645.0" y="165.4" width="21" height="4.3" fill="#52A87C"/>
  <text x="655.5" y="161.4" text-anchor="middle" font-size="8" font-weight="600" class="cb">117.9</text>
  <rect x="669.0" y="263.7" width="21" height="1.3" fill="#D49B40"/>
  <rect x="669.0" y="261.7" width="21" height="1.9" fill="#4DA5BB"/>
  <rect x="669.0" y="261.4" width="21" height="0.3" fill="#45AB8A"/>
  <rect x="669.0" y="261.2" width="21" height="0.3" fill="#D46565"/>
  <rect x="669.0" y="256.0" width="21" height="5.2" fill="#5B8ADB"/>
  <rect x="669.0" y="254.9" width="21" height="1.1" fill="#9B72CF"/>
  <rect x="669.0" y="168.6" width="21" height="86.3" fill="#D4693A"/>
  <rect x="669.0" y="164.6" width="21" height="4.0" fill="#52A87C"/>
  <text x="679.5" y="160.6" text-anchor="middle" font-size="8" font-weight="600" class="cb">118.8</text>
  <rect x="706.0" y="263.7" width="21" height="1.3" fill="#D49B40"/>
  <rect x="706.0" y="263.7" width="21" height="0.1" fill="#4DA5BB"/>
  <rect x="706.0" y="263.3" width="21" height="0.3" fill="#45AB8A"/>
  <rect x="706.0" y="263.0" width="21" height="0.3" fill="#D46565"/>
  <rect x="706.0" y="262.9" width="21" height="0.1" fill="#5B8ADB"/>
  <rect x="706.0" y="261.6" width="21" height="1.3" fill="#9B72CF"/>
  <rect x="706.0" y="161.3" width="21" height="100.3" fill="#D4693A"/>
  <rect x="706.0" y="160.9" width="21" height="0.4" fill="#52A87C"/>
  <text x="716.5" y="156.9" text-anchor="middle" font-size="8" font-weight="600" class="cb">123.2</text>
  <rect x="730.0" y="263.3" width="21" height="1.7" fill="#D49B40"/>
  <rect x="730.0" y="259.5" width="21" height="3.7" fill="#4DA5BB"/>
  <rect x="730.0" y="259.1" width="21" height="0.4" fill="#45AB8A"/>
  <rect x="730.0" y="258.8" width="21" height="0.3" fill="#D46565"/>
  <rect x="730.0" y="249.6" width="21" height="9.2" fill="#5B8ADB"/>
  <rect x="730.0" y="248.0" width="21" height="1.6" fill="#9B72CF"/>
  <rect x="730.0" y="130.3" width="21" height="117.7" fill="#D4693A"/>
  <rect x="730.0" y="122.8" width="21" height="7.5" fill="#52A87C"/>
  <text x="740.5" y="118.8" text-anchor="middle" font-size="8" font-weight="600" class="cb">168.3</text>
  <rect x="754.0" y="263.4" width="21" height="1.6" fill="#D49B40"/>
  <rect x="754.0" y="260.0" width="21" height="3.3" fill="#4DA5BB"/>
  <rect x="754.0" y="259.6" width="21" height="0.5" fill="#45AB8A"/>
  <rect x="754.0" y="259.2" width="21" height="0.4" fill="#D46565"/>
  <rect x="754.0" y="251.5" width="21" height="7.7" fill="#5B8ADB"/>
  <rect x="754.0" y="249.8" width="21" height="1.7" fill="#9B72CF"/>
  <rect x="754.0" y="128.5" width="21" height="121.3" fill="#D4693A"/>
  <rect x="754.0" y="121.9" width="21" height="6.5" fill="#52A87C"/>
  <text x="764.5" y="117.9" text-anchor="middle" font-size="8" font-weight="600" class="cb">169.3</text>
  <rect x="778.0" y="263.5" width="21" height="1.5" fill="#D49B40"/>
  <rect x="778.0" y="260.8" width="21" height="2.7" fill="#4DA5BB"/>
  <rect x="778.0" y="260.4" width="21" height="0.4" fill="#45AB8A"/>
  <rect x="778.0" y="260.0" width="21" height="0.4" fill="#D46565"/>
  <rect x="778.0" y="254.5" width="21" height="5.5" fill="#5B8ADB"/>
  <rect x="778.0" y="252.8" width="21" height="1.8" fill="#9B72CF"/>
  <rect x="778.0" y="131.5" width="21" height="121.3" fill="#D4693A"/>
  <rect x="778.0" y="126.3" width="21" height="5.2" fill="#52A87C"/>
  <text x="788.5" y="122.3" text-anchor="middle" font-size="8" font-weight="600" class="cb">164.1</text>
  <rect x="815.0" y="263.5" width="21" height="1.5" fill="#D49B40"/>
  <rect x="815.0" y="263.4" width="21" height="0.1" fill="#4DA5BB"/>
  <rect x="815.0" y="263.1" width="21" height="0.3" fill="#45AB8A"/>
  <rect x="815.0" y="262.8" width="21" height="0.3" fill="#D46565"/>
  <rect x="815.0" y="262.6" width="21" height="0.2" fill="#5B8ADB"/>
  <rect x="815.0" y="261.4" width="21" height="1.2" fill="#9B72CF"/>
  <rect x="815.0" y="166.9" width="21" height="94.5" fill="#D4693A"/>
  <rect x="815.0" y="166.4" width="21" height="0.4" fill="#52A87C"/>
  <text x="825.5" y="162.4" text-anchor="middle" font-size="8" font-weight="600" class="cb">116.6</text>
  <rect x="839.0" y="263.0" width="21" height="2.0" fill="#D49B40"/>
  <rect x="839.0" y="259.2" width="21" height="3.8" fill="#4DA5BB"/>
  <rect x="839.0" y="258.8" width="21" height="0.4" fill="#45AB8A"/>
  <rect x="839.0" y="258.4" width="21" height="0.4" fill="#D46565"/>
  <rect x="839.0" y="247.6" width="21" height="10.8" fill="#5B8ADB"/>
  <rect x="839.0" y="246.2" width="21" height="1.4" fill="#9B72CF"/>
  <rect x="839.0" y="134.7" width="21" height="111.5" fill="#D4693A"/>
  <rect x="839.0" y="126.8" width="21" height="7.9" fill="#52A87C"/>
  <text x="849.5" y="122.8" text-anchor="middle" font-size="8" font-weight="600" class="cb">163.5</text>
  <rect x="863.0" y="263.1" width="21" height="1.9" fill="#D49B40"/>
  <rect x="863.0" y="259.6" width="21" height="3.5" fill="#4DA5BB"/>
  <rect x="863.0" y="259.1" width="21" height="0.4" fill="#45AB8A"/>
  <rect x="863.0" y="258.8" width="21" height="0.4" fill="#D46565"/>
  <rect x="863.0" y="249.3" width="21" height="9.4" fill="#5B8ADB"/>
  <rect x="863.0" y="247.9" width="21" height="1.4" fill="#9B72CF"/>
  <rect x="863.0" y="136.6" width="21" height="111.3" fill="#D4693A"/>
  <rect x="863.0" y="129.6" width="21" height="7.0" fill="#52A87C"/>
  <text x="873.5" y="125.6" text-anchor="middle" font-size="8" font-weight="600" class="cb">160.2</text>
  <rect x="887.0" y="263.2" width="21" height="1.8" fill="#D49B40"/>
  <rect x="887.0" y="260.5" width="21" height="2.7" fill="#4DA5BB"/>
  <rect x="887.0" y="260.0" width="21" height="0.4" fill="#45AB8A"/>
  <rect x="887.0" y="259.6" width="21" height="0.4" fill="#D46565"/>
  <rect x="887.0" y="252.3" width="21" height="7.3" fill="#5B8ADB"/>
  <rect x="887.0" y="250.8" width="21" height="1.5" fill="#9B72CF"/>
  <rect x="887.0" y="138.8" width="21" height="112.0" fill="#D4693A"/>
  <rect x="887.0" y="132.8" width="21" height="6.0" fill="#52A87C"/>
  <text x="897.5" y="128.8" text-anchor="middle" font-size="8" font-weight="600" class="cb">156.4</text>

  <text x="62.5" y="278" text-anchor="middle" font-size="7.5" class="cs">0</text>
  <text x="86.5" y="278" text-anchor="middle" font-size="7.5" class="cs">1</text>
  <text x="110.5" y="278" text-anchor="middle" font-size="7.5" class="cs">2</text>
  <text x="134.5" y="278" text-anchor="middle" font-size="7.5" class="cs">4</text>
  <text x="171.5" y="278" text-anchor="middle" font-size="7.5" class="cs">0</text>
  <text x="195.5" y="278" text-anchor="middle" font-size="7.5" class="cs">1</text>
  <text x="219.5" y="278" text-anchor="middle" font-size="7.5" class="cs">2</text>
  <text x="243.5" y="278" text-anchor="middle" font-size="7.5" class="cs">4</text>
  <text x="280.5" y="278" text-anchor="middle" font-size="7.5" class="cs">0</text>
  <text x="304.5" y="278" text-anchor="middle" font-size="7.5" class="cs">1</text>
  <text x="328.5" y="278" text-anchor="middle" font-size="7.5" class="cs">2</text>
  <text x="352.5" y="278" text-anchor="middle" font-size="7.5" class="cs">4</text>
  <text x="389.5" y="278" text-anchor="middle" font-size="7.5" class="cs">0</text>
  <text x="413.5" y="278" text-anchor="middle" font-size="7.5" class="cs">1</text>
  <text x="437.5" y="278" text-anchor="middle" font-size="7.5" class="cs">2</text>
  <text x="461.5" y="278" text-anchor="middle" font-size="7.5" class="cs">4</text>
  <text x="498.5" y="278" text-anchor="middle" font-size="7.5" class="cs">0</text>
  <text x="522.5" y="278" text-anchor="middle" font-size="7.5" class="cs">1</text>
  <text x="546.5" y="278" text-anchor="middle" font-size="7.5" class="cs">2</text>
  <text x="570.5" y="278" text-anchor="middle" font-size="7.5" class="cs">4</text>
  <text x="607.5" y="278" text-anchor="middle" font-size="7.5" class="cs">0</text>
  <text x="631.5" y="278" text-anchor="middle" font-size="7.5" class="cs">1</text>
  <text x="655.5" y="278" text-anchor="middle" font-size="7.5" class="cs">2</text>
  <text x="679.5" y="278" text-anchor="middle" font-size="7.5" class="cs">4</text>
  <text x="716.5" y="278" text-anchor="middle" font-size="7.5" class="cs">0</text>
  <text x="740.5" y="278" text-anchor="middle" font-size="7.5" class="cs">1</text>
  <text x="764.5" y="278" text-anchor="middle" font-size="7.5" class="cs">2</text>
  <text x="788.5" y="278" text-anchor="middle" font-size="7.5" class="cs">4</text>
  <text x="825.5" y="278" text-anchor="middle" font-size="7.5" class="cs">0</text>
  <text x="849.5" y="278" text-anchor="middle" font-size="7.5" class="cs">1</text>
  <text x="873.5" y="278" text-anchor="middle" font-size="7.5" class="cs">2</text>
  <text x="897.5" y="278" text-anchor="middle" font-size="7.5" class="cs">4</text>

  <text x="98.5" y="293" text-anchor="middle" font-size="9.5" font-weight="700" class="cp">Tophat</text>
  <text x="98.5" y="306" text-anchor="middle" font-size="8.5" class="mi">ISM</text>
  <text x="207.5" y="293" text-anchor="middle" font-size="9.5" font-weight="700" class="cp">Tophat</text>
  <text x="207.5" y="306" text-anchor="middle" font-size="8.5" class="mw">wind</text>
  <text x="316.5" y="293" text-anchor="middle" font-size="9.5" font-weight="700" class="cp">Two-comp.</text>
  <text x="316.5" y="306" text-anchor="middle" font-size="8.5" class="mi">ISM</text>
  <text x="425.5" y="293" text-anchor="middle" font-size="9.5" font-weight="700" class="cp">Two-comp.</text>
  <text x="425.5" y="306" text-anchor="middle" font-size="8.5" class="mw">wind</text>
  <text x="534.5" y="293" text-anchor="middle" font-size="9.5" font-weight="700" class="cp">Gaussian</text>
  <text x="534.5" y="306" text-anchor="middle" font-size="8.5" class="mi">ISM</text>
  <text x="643.5" y="293" text-anchor="middle" font-size="9.5" font-weight="700" class="cp">Gaussian</text>
  <text x="643.5" y="306" text-anchor="middle" font-size="8.5" class="mw">wind</text>
  <text x="752.5" y="293" text-anchor="middle" font-size="9.5" font-weight="700" class="cp">Power-law</text>
  <text x="752.5" y="306" text-anchor="middle" font-size="8.5" class="mi">ISM</text>
  <text x="861.5" y="293" text-anchor="middle" font-size="9.5" font-weight="700" class="cp">Power-law</text>
  <text x="861.5" y="306" text-anchor="middle" font-size="8.5" class="mw">wind</text>

  <text x="13" y="180" text-anchor="middle" font-size="9" class="cs" transform="rotate(-90, 13, 180)">Wall time (ms)</text>

</svg>
