<?xml version="1.0" encoding="UTF-8"?>
<svg xmlns="http://www.w3.org/2000/svg" viewBox="0 0 950 360"
     font-family="-apple-system, 'Segoe UI', Roboto, 'Helvetica Neue', Arial, sans-serif">

  <style>
    .cp { fill: #E6EDF3; }
    .cs { fill: #A8B8CC; }
    .cb { fill: #D0DDE8; }
    .mi { fill: #5B8ADB; }
    .mw { fill: #45AB8A; }
    .gl { stroke: #2D3345; fill: none; }
  </style>

  <rect width="950" height="360" fill="transparent" rx="12"/>

  <text x="475" y="28" text-anchor="middle" font-size="15" font-weight="700" class="cp" letter-spacing="0.3">Performance · Reverse Shock</text>
  <text x="475" y="44" text-anchor="middle" font-size="9" class="cs">CPU time by stage · Apple M2 · single core · default resolution</text>
  <text x="475" y="57" text-anchor="middle" font-size="9" class="cs">each group: θv/θc = 0 │ 1 │ 2 │ 4 (left → right)</text>

  <rect x="213" y="67" width="12" height="12" rx="2" fill="#D49B40"/>
  <text x="229" y="78" font-size="10" class="cb">Shock Dynamics</text>
  <rect x="328" y="67" width="12" height="12" rx="2" fill="#4DA5BB"/>
  <text x="344" y="78" font-size="10" class="cb">EAT Grid</text>
  <rect x="407" y="67" width="12" height="12" rx="2" fill="#45AB8A"/>
  <text x="423" y="78" font-size="10" class="cb">Syn. Electrons</text>
  <rect x="522" y="67" width="12" height="12" rx="2" fill="#D46565"/>
  <text x="538" y="78" font-size="10" class="cb">Syn. Photons</text>
  <rect x="625" y="67" width="12" height="12" rx="2" fill="#5B8ADB"/>
  <text x="641" y="78" font-size="10" class="cb">Flux Integration</text>

  <line x1="52" y1="265" x2="935" y2="265" class="gl" stroke-width="1"/>
  <line x1="52" y1="222.8" x2="935" y2="222.8" class="gl" stroke-width="1" stroke-dasharray="4,3"/>
  <text x="48" y="226.8" text-anchor="end" font-size="8" class="cs">7.5 ms</text>
  <line x1="52" y1="180.5" x2="935" y2="180.5" class="gl" stroke-width="1" stroke-dasharray="4,3"/>
  <text x="48" y="184.5" text-anchor="end" font-size="8" class="cs">15 ms</text>
  <line x1="52" y1="138.2" x2="935" y2="138.2" class="gl" stroke-width="1" stroke-dasharray="4,3"/>
  <text x="48" y="142.2" text-anchor="end" font-size="8" class="cs">22.5 ms</text>
  <line x1="52" y1="96.0" x2="935" y2="96.0" class="gl" stroke-width="1" stroke-dasharray="4,3"/>
  <text x="48" y="100.0" text-anchor="end" font-size="8" class="cs">30 ms</text>
  <text x="48" y="269" text-anchor="end" font-size="8" class="cs">0</text>

  <rect x="52.0" y="264.1" width="21" height="0.9" fill="#D49B40"/>
  <rect x="52.0" y="263.5" width="21" height="0.6" fill="#4DA5BB"/>
  <rect x="52.0" y="262.1" width="21" height="1.4" fill="#45AB8A"/>
  <rect x="52.0" y="258.5" width="21" height="3.5" fill="#D46565"/>
  <rect x="52.0" y="257.6" width="21" height="0.9" fill="#5B8ADB"/>
  <text x="62.5" y="253.6" text-anchor="middle" font-size="8" font-weight="600" class="cb">1.3</text>
  <rect x="76.0" y="263.8" width="21" height="1.2" fill="#D49B40"/>
  <rect x="76.0" y="232.9" width="21" height="30.9" fill="#4DA5BB"/>
  <rect x="76.0" y="230.7" width="21" height="2.2" fill="#45AB8A"/>
  <rect x="76.0" y="226.4" width="21" height="4.3" fill="#D46565"/>
  <rect x="76.0" y="187.2" width="21" height="39.2" fill="#5B8ADB"/>
  <text x="86.5" y="183.2" text-anchor="middle" font-size="8" font-weight="600" class="cb">13.8</text>
  <rect x="100.0" y="263.8" width="21" height="1.2" fill="#D49B40"/>
  <rect x="100.0" y="251.1" width="21" height="12.7" fill="#4DA5BB"/>
  <rect x="100.0" y="248.9" width="21" height="2.2" fill="#45AB8A"/>
  <rect x="100.0" y="244.8" width="21" height="4.1" fill="#D46565"/>
  <rect x="100.0" y="229.9" width="21" height="14.9" fill="#5B8ADB"/>
  <text x="110.5" y="225.9" text-anchor="middle" font-size="8" font-weight="600" class="cb">6.2</text>
  <rect x="124.0" y="263.9" width="21" height="1.1" fill="#D49B40"/>
  <rect x="124.0" y="251.6" width="21" height="12.3" fill="#4DA5BB"/>
  <rect x="124.0" y="248.8" width="21" height="2.8" fill="#45AB8A"/>
  <rect x="124.0" y="244.0" width="21" height="4.8" fill="#D46565"/>
  <rect x="124.0" y="229.2" width="21" height="14.8" fill="#5B8ADB"/>
  <text x="134.5" y="225.2" text-anchor="middle" font-size="8" font-weight="600" class="cb">6.4</text>
  <rect x="161.0" y="264.1" width="21" height="0.9" fill="#D49B40"/>
  <rect x="161.0" y="263.2" width="21" height="0.9" fill="#4DA5BB"/>
  <rect x="161.0" y="261.8" width="21" height="1.4" fill="#45AB8A"/>
  <rect x="161.0" y="258.4" width="21" height="3.4" fill="#D46565"/>
  <rect x="161.0" y="257.6" width="21" height="0.8" fill="#5B8ADB"/>
  <text x="171.5" y="253.6" text-anchor="middle" font-size="8" font-weight="600" class="cb">1.3</text>
  <rect x="185.0" y="263.5" width="21" height="1.5" fill="#D49B40"/>
  <rect x="185.0" y="232.7" width="21" height="30.8" fill="#4DA5BB"/>
  <rect x="185.0" y="230.2" width="21" height="2.5" fill="#45AB8A"/>
  <rect x="185.0" y="225.7" width="21" height="4.4" fill="#D46565"/>
  <rect x="185.0" y="185.3" width="21" height="40.5" fill="#5B8ADB"/>
  <text x="195.5" y="181.3" text-anchor="middle" font-size="8" font-weight="600" class="cb">14.2</text>
  <rect x="209.0" y="263.8" width="21" height="1.2" fill="#D49B40"/>
  <rect x="209.0" y="252.5" width="21" height="11.4" fill="#4DA5BB"/>
  <rect x="209.0" y="250.4" width="21" height="2.0" fill="#45AB8A"/>
  <rect x="209.0" y="246.6" width="21" height="3.9" fill="#D46565"/>
  <rect x="209.0" y="229.5" width="21" height="17.0" fill="#5B8ADB"/>
  <text x="219.5" y="225.5" text-anchor="middle" font-size="8" font-weight="600" class="cb">6.3</text>
  <rect x="233.0" y="263.7" width="21" height="1.3" fill="#D49B40"/>
  <rect x="233.0" y="249.3" width="21" height="14.5" fill="#4DA5BB"/>
  <rect x="233.0" y="246.9" width="21" height="2.3" fill="#45AB8A"/>
  <rect x="233.0" y="242.9" width="21" height="4.0" fill="#D46565"/>
  <rect x="233.0" y="223.2" width="21" height="19.6" fill="#5B8ADB"/>
  <text x="243.5" y="219.2" text-anchor="middle" font-size="8" font-weight="600" class="cb">7.4</text>
  <rect x="270.0" y="263.4" width="21" height="1.6" fill="#D49B40"/>
  <rect x="270.0" y="262.2" width="21" height="1.2" fill="#4DA5BB"/>
  <rect x="270.0" y="259.9" width="21" height="2.4" fill="#45AB8A"/>
  <rect x="270.0" y="255.1" width="21" height="4.7" fill="#D46565"/>
  <rect x="270.0" y="254.1" width="21" height="1.0" fill="#5B8ADB"/>
  <text x="280.5" y="250.1" text-anchor="middle" font-size="8" font-weight="600" class="cb">1.9</text>
  <rect x="294.0" y="262.9" width="21" height="2.1" fill="#D49B40"/>
  <rect x="294.0" y="241.9" width="21" height="21.0" fill="#4DA5BB"/>
  <rect x="294.0" y="238.5" width="21" height="3.4" fill="#45AB8A"/>
  <rect x="294.0" y="232.9" width="21" height="5.6" fill="#D46565"/>
  <rect x="294.0" y="205.0" width="21" height="27.9" fill="#5B8ADB"/>
  <text x="304.5" y="201.0" text-anchor="middle" font-size="8" font-weight="600" class="cb">10.6</text>
  <rect x="318.0" y="262.7" width="21" height="2.3" fill="#D49B40"/>
  <rect x="318.0" y="243.1" width="21" height="19.6" fill="#4DA5BB"/>
  <rect x="318.0" y="240.1" width="21" height="3.0" fill="#45AB8A"/>
  <rect x="318.0" y="234.1" width="21" height="6.0" fill="#D46565"/>
  <rect x="318.0" y="211.1" width="21" height="23.1" fill="#5B8ADB"/>
  <text x="328.5" y="207.1" text-anchor="middle" font-size="8" font-weight="600" class="cb">9.6</text>
  <rect x="342.0" y="262.5" width="21" height="2.5" fill="#D49B40"/>
  <rect x="342.0" y="233.4" width="21" height="29.0" fill="#4DA5BB"/>
  <rect x="342.0" y="230.2" width="21" height="3.2" fill="#45AB8A"/>
  <rect x="342.0" y="224.0" width="21" height="6.2" fill="#D46565"/>
  <rect x="342.0" y="190.2" width="21" height="33.7" fill="#5B8ADB"/>
  <text x="352.5" y="186.2" text-anchor="middle" font-size="8" font-weight="600" class="cb">13.3</text>
  <rect x="379.0" y="263.2" width="21" height="1.8" fill="#D49B40"/>
  <rect x="379.0" y="262.2" width="21" height="1.0" fill="#4DA5BB"/>
  <rect x="379.0" y="260.1" width="21" height="2.1" fill="#45AB8A"/>
  <rect x="379.0" y="256.3" width="21" height="3.8" fill="#D46565"/>
  <rect x="379.0" y="255.5" width="21" height="0.9" fill="#5B8ADB"/>
  <text x="389.5" y="251.5" text-anchor="middle" font-size="8" font-weight="600" class="cb">1.7</text>
  <rect x="403.0" y="262.8" width="21" height="2.2" fill="#D49B40"/>
  <rect x="403.0" y="247.7" width="21" height="15.1" fill="#4DA5BB"/>
  <rect x="403.0" y="245.1" width="21" height="2.6" fill="#45AB8A"/>
  <rect x="403.0" y="240.6" width="21" height="4.5" fill="#D46565"/>
  <rect x="403.0" y="218.0" width="21" height="22.5" fill="#5B8ADB"/>
  <text x="413.5" y="214.0" text-anchor="middle" font-size="8" font-weight="600" class="cb">8.3</text>
  <rect x="427.0" y="262.9" width="21" height="2.1" fill="#D49B40"/>
  <rect x="427.0" y="248.8" width="21" height="14.0" fill="#4DA5BB"/>
  <rect x="427.0" y="245.8" width="21" height="3.1" fill="#45AB8A"/>
  <rect x="427.0" y="241.3" width="21" height="4.5" fill="#D46565"/>
  <rect x="427.0" y="223.5" width="21" height="17.8" fill="#5B8ADB"/>
  <text x="437.5" y="219.5" text-anchor="middle" font-size="8" font-weight="600" class="cb">7.4</text>
  <rect x="451.0" y="262.8" width="21" height="2.2" fill="#D49B40"/>
  <rect x="451.0" y="237.5" width="21" height="25.4" fill="#4DA5BB"/>
  <rect x="451.0" y="234.4" width="21" height="3.0" fill="#45AB8A"/>
  <rect x="451.0" y="229.1" width="21" height="5.4" fill="#D46565"/>
  <rect x="451.0" y="200.7" width="21" height="28.3" fill="#5B8ADB"/>
  <text x="461.5" y="196.7" text-anchor="middle" font-size="8" font-weight="600" class="cb">11.4</text>
  <rect x="488.0" y="240.4" width="21" height="24.6" fill="#D49B40"/>
  <rect x="488.0" y="239.2" width="21" height="1.3" fill="#4DA5BB"/>
  <rect x="488.0" y="232.4" width="21" height="6.8" fill="#45AB8A"/>
  <rect x="488.0" y="222.3" width="21" height="10.0" fill="#D46565"/>
  <rect x="488.0" y="221.1" width="21" height="1.2" fill="#5B8ADB"/>
  <text x="498.5" y="217.1" text-anchor="middle" font-size="8" font-weight="600" class="cb">7.8</text>
  <rect x="512.0" y="234.7" width="21" height="30.3" fill="#D49B40"/>
  <rect x="512.0" y="191.9" width="21" height="42.7" fill="#4DA5BB"/>
  <rect x="512.0" y="182.8" width="21" height="9.2" fill="#45AB8A"/>
  <rect x="512.0" y="170.8" width="21" height="12.0" fill="#D46565"/>
  <rect x="512.0" y="135.5" width="21" height="35.3" fill="#5B8ADB"/>
  <text x="522.5" y="131.5" text-anchor="middle" font-size="8" font-weight="600" class="cb">23.0</text>
  <rect x="536.0" y="235.1" width="21" height="29.9" fill="#D49B40"/>
  <rect x="536.0" y="203.6" width="21" height="31.5" fill="#4DA5BB"/>
  <rect x="536.0" y="194.9" width="21" height="8.7" fill="#45AB8A"/>
  <rect x="536.0" y="182.4" width="21" height="12.5" fill="#D46565"/>
  <rect x="536.0" y="153.8" width="21" height="28.6" fill="#5B8ADB"/>
  <text x="546.5" y="149.8" text-anchor="middle" font-size="8" font-weight="600" class="cb">19.7</text>
  <rect x="560.0" y="238.8" width="21" height="26.2" fill="#D49B40"/>
  <rect x="560.0" y="214.6" width="21" height="24.2" fill="#4DA5BB"/>
  <rect x="560.0" y="205.3" width="21" height="9.3" fill="#45AB8A"/>
  <rect x="560.0" y="193.6" width="21" height="11.7" fill="#D46565"/>
  <rect x="560.0" y="176.0" width="21" height="17.6" fill="#5B8ADB"/>
  <text x="570.5" y="172.0" text-anchor="middle" font-size="8" font-weight="600" class="cb">15.8</text>
  <rect x="597.0" y="242.5" width="21" height="22.5" fill="#D49B40"/>
  <rect x="597.0" y="241.1" width="21" height="1.4" fill="#4DA5BB"/>
  <rect x="597.0" y="233.2" width="21" height="7.9" fill="#45AB8A"/>
  <rect x="597.0" y="224.3" width="21" height="8.9" fill="#D46565"/>
  <rect x="597.0" y="223.3" width="21" height="1.0" fill="#5B8ADB"/>
  <text x="607.5" y="219.3" text-anchor="middle" font-size="8" font-weight="600" class="cb">7.4</text>
  <rect x="621.0" y="233.4" width="21" height="31.6" fill="#D49B40"/>
  <rect x="621.0" y="193.2" width="21" height="40.2" fill="#4DA5BB"/>
  <rect x="621.0" y="181.9" width="21" height="11.3" fill="#45AB8A"/>
  <rect x="621.0" y="170.5" width="21" height="11.4" fill="#D46565"/>
  <rect x="621.0" y="134.8" width="21" height="35.7" fill="#5B8ADB"/>
  <text x="631.5" y="130.8" text-anchor="middle" font-size="8" font-weight="600" class="cb">23.1</text>
  <rect x="645.0" y="238.3" width="21" height="26.7" fill="#D49B40"/>
  <rect x="645.0" y="206.0" width="21" height="32.2" fill="#4DA5BB"/>
  <rect x="645.0" y="195.7" width="21" height="10.3" fill="#45AB8A"/>
  <rect x="645.0" y="184.7" width="21" height="11.0" fill="#D46565"/>
  <rect x="645.0" y="156.6" width="21" height="28.1" fill="#5B8ADB"/>
  <text x="655.5" y="152.6" text-anchor="middle" font-size="8" font-weight="600" class="cb">19.2</text>
  <rect x="669.0" y="241.3" width="21" height="23.7" fill="#D49B40"/>
  <rect x="669.0" y="217.8" width="21" height="23.4" fill="#4DA5BB"/>
  <rect x="669.0" y="208.3" width="21" height="9.5" fill="#45AB8A"/>
  <rect x="669.0" y="196.7" width="21" height="11.6" fill="#D46565"/>
  <rect x="669.0" y="175.0" width="21" height="21.6" fill="#5B8ADB"/>
  <text x="679.5" y="171.0" text-anchor="middle" font-size="8" font-weight="600" class="cb">16.0</text>
  <rect x="706.0" y="229.2" width="21" height="35.8" fill="#D49B40"/>
  <rect x="706.0" y="227.7" width="21" height="1.5" fill="#4DA5BB"/>
  <rect x="706.0" y="218.0" width="21" height="9.7" fill="#45AB8A"/>
  <rect x="706.0" y="205.7" width="21" height="12.4" fill="#D46565"/>
  <rect x="706.0" y="204.0" width="21" height="1.6" fill="#5B8ADB"/>
  <text x="716.5" y="200.0" text-anchor="middle" font-size="8" font-weight="600" class="cb">10.8</text>
  <rect x="730.0" y="221.9" width="21" height="43.1" fill="#D49B40"/>
  <rect x="730.0" y="183.1" width="21" height="38.8" fill="#4DA5BB"/>
  <rect x="730.0" y="171.0" width="21" height="12.1" fill="#45AB8A"/>
  <rect x="730.0" y="156.8" width="21" height="14.2" fill="#D46565"/>
  <rect x="730.0" y="116.8" width="21" height="40.0" fill="#5B8ADB"/>
  <text x="740.5" y="112.8" text-anchor="middle" font-size="8" font-weight="600" class="cb">26.3</text>
  <rect x="754.0" y="221.6" width="21" height="43.4" fill="#D49B40"/>
  <rect x="754.0" y="183.6" width="21" height="37.9" fill="#4DA5BB"/>
  <rect x="754.0" y="169.9" width="21" height="13.7" fill="#45AB8A"/>
  <rect x="754.0" y="153.1" width="21" height="16.8" fill="#D46565"/>
  <rect x="754.0" y="119.0" width="21" height="34.1" fill="#5B8ADB"/>
  <text x="764.5" y="115.0" text-anchor="middle" font-size="8" font-weight="600" class="cb">25.9</text>
  <rect x="778.0" y="222.4" width="21" height="42.6" fill="#D49B40"/>
  <rect x="778.0" y="189.1" width="21" height="33.2" fill="#4DA5BB"/>
  <rect x="778.0" y="175.4" width="21" height="13.7" fill="#45AB8A"/>
  <rect x="778.0" y="160.2" width="21" height="15.2" fill="#D46565"/>
  <rect x="778.0" y="134.6" width="21" height="25.6" fill="#5B8ADB"/>
  <text x="788.5" y="130.6" text-anchor="middle" font-size="8" font-weight="600" class="cb">23.1</text>
  <rect x="815.0" y="234.3" width="21" height="30.7" fill="#D49B40"/>
  <rect x="815.0" y="232.7" width="21" height="1.6" fill="#4DA5BB"/>
  <rect x="815.0" y="222.3" width="21" height="10.4" fill="#45AB8A"/>
  <rect x="815.0" y="211.5" width="21" height="10.8" fill="#D46565"/>
  <rect x="815.0" y="210.1" width="21" height="1.3" fill="#5B8ADB"/>
  <text x="825.5" y="206.1" text-anchor="middle" font-size="8" font-weight="600" class="cb">9.7</text>
  <rect x="839.0" y="221.8" width="21" height="43.2" fill="#D49B40"/>
  <rect x="839.0" y="183.7" width="21" height="38.1" fill="#4DA5BB"/>
  <rect x="839.0" y="170.5" width="21" height="13.3" fill="#45AB8A"/>
  <rect x="839.0" y="156.7" width="21" height="13.7" fill="#D46565"/>
  <rect x="839.0" y="119.0" width="21" height="37.7" fill="#5B8ADB"/>
  <text x="849.5" y="115.0" text-anchor="middle" font-size="8" font-weight="600" class="cb">25.9</text>
  <rect x="863.0" y="224.1" width="21" height="40.9" fill="#D49B40"/>
  <rect x="863.0" y="188.1" width="21" height="36.0" fill="#4DA5BB"/>
  <rect x="863.0" y="174.3" width="21" height="13.8" fill="#45AB8A"/>
  <rect x="863.0" y="159.2" width="21" height="15.1" fill="#D46565"/>
  <rect x="863.0" y="122.4" width="21" height="36.8" fill="#5B8ADB"/>
  <text x="873.5" y="118.4" text-anchor="middle" font-size="8" font-weight="600" class="cb">25.3</text>
  <rect x="887.0" y="228.6" width="21" height="36.4" fill="#D49B40"/>
  <rect x="887.0" y="195.6" width="21" height="33.0" fill="#4DA5BB"/>
  <rect x="887.0" y="180.6" width="21" height="15.0" fill="#45AB8A"/>
  <rect x="887.0" y="165.0" width="21" height="15.6" fill="#D46565"/>
  <rect x="887.0" y="133.3" width="21" height="31.8" fill="#5B8ADB"/>
  <text x="897.5" y="129.3" text-anchor="middle" font-size="8" font-weight="600" class="cb">23.4</text>

  <text x="62.5" y="278" text-anchor="middle" font-size="7.5" class="cs">0</text>
  <text x="86.5" y="278" text-anchor="middle" font-size="7.5" class="cs">1</text>
  <text x="110.5" y="278" text-anchor="middle" font-size="7.5" class="cs">2</text>
  <text x="134.5" y="278" text-anchor="middle" font-size="7.5" class="cs">4</text>
  <text x="171.5" y="278" text-anchor="middle" font-size="7.5" class="cs">0</text>
  <text x="195.5" y="278" text-anchor="middle" font-size="7.5" class="cs">1</text>
  <text x="219.5" y="278" text-anchor="middle" font-size="7.5" class="cs">2</text>
  <text x="243.5" y="278" text-anchor="middle" font-size="7.5" class="cs">4</text>
  <text x="280.5" y="278" text-anchor="middle" font-size="7.5" class="cs">0</text>
  <text x="304.5" y="278" text-anchor="middle" font-size="7.5" class="cs">1</text>
  <text x="328.5" y="278" text-anchor="middle" font-size="7.5" class="cs">2</text>
  <text x="352.5" y="278" text-anchor="middle" font-size="7.5" class="cs">4</text>
  <text x="389.5" y="278" text-anchor="middle" font-size="7.5" class="cs">0</text>
  <text x="413.5" y="278" text-anchor="middle" font-size="7.5" class="cs">1</text>
  <text x="437.5" y="278" text-anchor="middle" font-size="7.5" class="cs">2</text>
  <text x="461.5" y="278" text-anchor="middle" font-size="7.5" class="cs">4</text>
  <text x="498.5" y="278" text-anchor="middle" font-size="7.5" class="cs">0</text>
  <text x="522.5" y="278" text-anchor="middle" font-size="7.5" class="cs">1</text>
  <text x="546.5" y="278" text-anchor="middle" font-size="7.5" class="cs">2</text>
  <text x="570.5" y="278" text-anchor="middle" font-size="7.5" class="cs">4</text>
  <text x="607.5" y="278" text-anchor="middle" font-size="7.5" class="cs">0</text>
  <text x="631.5" y="278" text-anchor="middle" font-size="7.5" class="cs">1</text>
  <text x="655.5" y="278" text-anchor="middle" font-size="7.5" class="cs">2</text>
  <text x="679.5" y="278" text-anchor="middle" font-size="7.5" class="cs">4</text>
  <text x="716.5" y="278" text-anchor="middle" font-size="7.5" class="cs">0</text>
  <text x="740.5" y="278" text-anchor="middle" font-size="7.5" class="cs">1</text>
  <text x="764.5" y="278" text-anchor="middle" font-size="7.5" class="cs">2</text>
  <text x="788.5" y="278" text-anchor="middle" font-size="7.5" class="cs">4</text>
  <text x="825.5" y="278" text-anchor="middle" font-size="7.5" class="cs">0</text>
  <text x="849.5" y="278" text-anchor="middle" font-size="7.5" class="cs">1</text>
  <text x="873.5" y="278" text-anchor="middle" font-size="7.5" class="cs">2</text>
  <text x="897.5" y="278" text-anchor="middle" font-size="7.5" class="cs">4</text>

  <text x="98.5" y="293" text-anchor="middle" font-size="9.5" font-weight="700" class="cp">Tophat</text>
  <text x="98.5" y="306" text-anchor="middle" font-size="8.5" class="mi">ISM</text>
  <text x="207.5" y="293" text-anchor="middle" font-size="9.5" font-weight="700" class="cp">Tophat</text>
  <text x="207.5" y="306" text-anchor="middle" font-size="8.5" class="mw">wind</text>
  <text x="316.5" y="293" text-anchor="middle" font-size="9.5" font-weight="700" class="cp">Two-comp.</text>
  <text x="316.5" y="306" text-anchor="middle" font-size="8.5" class="mi">ISM</text>
  <text x="425.5" y="293" text-anchor="middle" font-size="9.5" font-weight="700" class="cp">Two-comp.</text>
  <text x="425.5" y="306" text-anchor="middle" font-size="8.5" class="mw">wind</text>
  <text x="534.5" y="293" text-anchor="middle" font-size="9.5" font-weight="700" class="cp">Gaussian</text>
  <text x="534.5" y="306" text-anchor="middle" font-size="8.5" class="mi">ISM</text>
  <text x="643.5" y="293" text-anchor="middle" font-size="9.5" font-weight="700" class="cp">Gaussian</text>
  <text x="643.5" y="306" text-anchor="middle" font-size="8.5" class="mw">wind</text>
  <text x="752.5" y="293" text-anchor="middle" font-size="9.5" font-weight="700" class="cp">Power-law</text>
  <text x="752.5" y="306" text-anchor="middle" font-size="8.5" class="mi">ISM</text>
  <text x="861.5" y="293" text-anchor="middle" font-size="9.5" font-weight="700" class="cp">Power-law</text>
  <text x="861.5" y="306" text-anchor="middle" font-size="8.5" class="mw">wind</text>

  <text x="13" y="180" text-anchor="middle" font-size="9" class="cs" transform="rotate(-90, 13, 180)">Wall time (ms)</text>

</svg>
