<?xml version="1.0" encoding="UTF-8"?>
<svg xmlns="http://www.w3.org/2000/svg" viewBox="0 0 950 360"
     font-family="-apple-system, 'Segoe UI', Roboto, 'Helvetica Neue', Arial, sans-serif">

  <style>
    :root {
      --cp: #E6EDF3;
      --cs: #A8B8CC;
      --cb: #D0DDE8;
      --cg: #2D3345;
    }
    @media (prefers-color-scheme: light) {
      :root {
        --cp: #24292f;
        --cs: #57606a;
        --cb: #24292f;
        --cg: #d0d7de;
      }
    }
    .cp { fill: var(--cp); }
    .cs { fill: var(--cs); }
    .cb { fill: var(--cb); }
    .gl { stroke: var(--cg); fill: none; }
  </style>

  <rect width="950" height="360" fill="transparent" rx="12"/>

  <text x="475" y="28" text-anchor="middle" font-size="15" font-weight="700" class="cp" letter-spacing="0.3">Performance · Reverse Shock</text>
  <text x="475" y="44" text-anchor="middle" font-size="9" class="cs">CPU time by stage · Apple M2 · single core · default resolution</text>
  <text x="475" y="57" text-anchor="middle" font-size="9" class="cs">each group: θv/θc = 0 │ 1 │ 2 │ 4 (left → right)</text>

  <rect x="213" y="67" width="12" height="12" rx="2" fill="#D49B40"/>
  <text x="229" y="78" font-size="10" class="cb">Shock Dynamics</text>
  <rect x="328" y="67" width="12" height="12" rx="2" fill="#4DA5BB"/>
  <text x="344" y="78" font-size="10" class="cb">EAT Grid</text>
  <rect x="407" y="67" width="12" height="12" rx="2" fill="#45AB8A"/>
  <text x="423" y="78" font-size="10" class="cb">Syn. Electrons</text>
  <rect x="522" y="67" width="12" height="12" rx="2" fill="#D46565"/>
  <text x="538" y="78" font-size="10" class="cb">Syn. Photons</text>
  <rect x="625" y="67" width="12" height="12" rx="2" fill="#5B8ADB"/>
  <text x="641" y="78" font-size="10" class="cb">Flux Integration</text>

  <line x1="52" y1="265" x2="935" y2="265" class="gl" stroke-width="1"/>
  <line x1="52" y1="222.8" x2="935" y2="222.8" class="gl" stroke-width="1" stroke-dasharray="4,3"/>
  <text x="48" y="226.8" text-anchor="end" font-size="8" class="cs">30 ms</text>
  <line x1="52" y1="180.5" x2="935" y2="180.5" class="gl" stroke-width="1" stroke-dasharray="4,3"/>
  <text x="48" y="184.5" text-anchor="end" font-size="8" class="cs">60 ms</text>
  <line x1="52" y1="138.2" x2="935" y2="138.2" class="gl" stroke-width="1" stroke-dasharray="4,3"/>
  <text x="48" y="142.2" text-anchor="end" font-size="8" class="cs">90 ms</text>
  <line x1="52" y1="96.0" x2="935" y2="96.0" class="gl" stroke-width="1" stroke-dasharray="4,3"/>
  <text x="48" y="100.0" text-anchor="end" font-size="8" class="cs">120 ms</text>
  <text x="48" y="269" text-anchor="end" font-size="8" class="cs">0</text>

  <rect x="52.0" y="264.5" width="21" height="0.5" fill="#D49B40"/>
  <rect x="52.0" y="264.3" width="21" height="0.2" fill="#4DA5BB"/>
  <rect x="52.0" y="264.0" width="21" height="0.3" fill="#45AB8A"/>
  <rect x="52.0" y="263.1" width="21" height="0.9" fill="#D46565"/>
  <rect x="52.0" y="262.7" width="21" height="0.4" fill="#5B8ADB"/>
  <text x="62.5" y="258.7" text-anchor="middle" font-size="8" font-weight="600" class="cb">1.7</text>
  <rect x="76.0" y="264.6" width="21" height="0.4" fill="#D49B40"/>
  <rect x="76.0" y="257.7" width="21" height="6.9" fill="#4DA5BB"/>
  <rect x="76.0" y="257.1" width="21" height="0.5" fill="#45AB8A"/>
  <rect x="76.0" y="256.3" width="21" height="0.8" fill="#D46565"/>
  <rect x="76.0" y="245.8" width="21" height="10.5" fill="#5B8ADB"/>
  <text x="86.5" y="241.8" text-anchor="middle" font-size="8" font-weight="600" class="cb">13.6</text>
  <rect x="100.0" y="264.7" width="21" height="0.3" fill="#D49B40"/>
  <rect x="100.0" y="256.5" width="21" height="8.1" fill="#4DA5BB"/>
  <rect x="100.0" y="255.8" width="21" height="0.7" fill="#45AB8A"/>
  <rect x="100.0" y="254.9" width="21" height="0.9" fill="#D46565"/>
  <rect x="100.0" y="243.9" width="21" height="11.0" fill="#5B8ADB"/>
  <text x="110.5" y="239.9" text-anchor="middle" font-size="8" font-weight="600" class="cb">15.0</text>
  <rect x="124.0" y="264.7" width="21" height="0.3" fill="#D49B40"/>
  <rect x="124.0" y="256.4" width="21" height="8.3" fill="#4DA5BB"/>
  <rect x="124.0" y="255.7" width="21" height="0.7" fill="#45AB8A"/>
  <rect x="124.0" y="254.5" width="21" height="1.2" fill="#D46565"/>
  <rect x="124.0" y="243.8" width="21" height="10.7" fill="#5B8ADB"/>
  <text x="134.5" y="239.8" text-anchor="middle" font-size="8" font-weight="600" class="cb">15.0</text>
  <rect x="161.0" y="264.8" width="21" height="0.2" fill="#D49B40"/>
  <rect x="161.0" y="264.1" width="21" height="0.6" fill="#4DA5BB"/>
  <rect x="161.0" y="261.1" width="21" height="3.1" fill="#45AB8A"/>
  <rect x="161.0" y="257.9" width="21" height="3.2" fill="#D46565"/>
  <rect x="161.0" y="255.5" width="21" height="2.4" fill="#5B8ADB"/>
  <text x="171.5" y="251.5" text-anchor="middle" font-size="8" font-weight="600" class="cb">6.7</text>
  <rect x="185.0" y="264.1" width="21" height="0.9" fill="#D49B40"/>
  <rect x="185.0" y="220.2" width="21" height="43.9" fill="#4DA5BB"/>
  <rect x="185.0" y="218.7" width="21" height="1.5" fill="#45AB8A"/>
  <rect x="185.0" y="214.6" width="21" height="4.1" fill="#D46565"/>
  <rect x="185.0" y="124.3" width="21" height="90.3" fill="#5B8ADB"/>
  <text x="195.5" y="120.3" text-anchor="middle" font-size="8" font-weight="600" class="cb">99.9</text>
  <rect x="209.0" y="264.7" width="21" height="0.3" fill="#D49B40"/>
  <rect x="209.0" y="250.4" width="21" height="14.3" fill="#4DA5BB"/>
  <rect x="209.0" y="249.7" width="21" height="0.7" fill="#45AB8A"/>
  <rect x="209.0" y="248.7" width="21" height="1.0" fill="#D46565"/>
  <rect x="209.0" y="225.0" width="21" height="23.7" fill="#5B8ADB"/>
  <text x="219.5" y="221.0" text-anchor="middle" font-size="8" font-weight="600" class="cb">28.4</text>
  <rect x="233.0" y="264.7" width="21" height="0.3" fill="#D49B40"/>
  <rect x="233.0" y="257.0" width="21" height="7.7" fill="#4DA5BB"/>
  <rect x="233.0" y="256.4" width="21" height="0.6" fill="#45AB8A"/>
  <rect x="233.0" y="255.5" width="21" height="0.9" fill="#D46565"/>
  <rect x="233.0" y="243.5" width="21" height="11.9" fill="#5B8ADB"/>
  <text x="243.5" y="239.5" text-anchor="middle" font-size="8" font-weight="600" class="cb">15.2</text>
  <rect x="270.0" y="264.6" width="21" height="0.4" fill="#D49B40"/>
  <rect x="270.0" y="264.4" width="21" height="0.2" fill="#4DA5BB"/>
  <rect x="270.0" y="263.9" width="21" height="0.5" fill="#45AB8A"/>
  <rect x="270.0" y="262.9" width="21" height="0.9" fill="#D46565"/>
  <rect x="270.0" y="262.6" width="21" height="0.3" fill="#5B8ADB"/>
  <text x="280.5" y="258.6" text-anchor="middle" font-size="8" font-weight="600" class="cb">1.7</text>
  <rect x="294.0" y="264.4" width="21" height="0.6" fill="#D49B40"/>
  <rect x="294.0" y="251.1" width="21" height="13.3" fill="#4DA5BB"/>
  <rect x="294.0" y="250.3" width="21" height="0.8" fill="#45AB8A"/>
  <rect x="294.0" y="249.2" width="21" height="1.1" fill="#D46565"/>
  <rect x="294.0" y="230.0" width="21" height="19.2" fill="#5B8ADB"/>
  <text x="304.5" y="226.0" text-anchor="middle" font-size="8" font-weight="600" class="cb">24.9</text>
  <rect x="318.0" y="264.4" width="21" height="0.6" fill="#D49B40"/>
  <rect x="318.0" y="255.8" width="21" height="8.7" fill="#4DA5BB"/>
  <rect x="318.0" y="255.1" width="21" height="0.7" fill="#45AB8A"/>
  <rect x="318.0" y="253.9" width="21" height="1.2" fill="#D46565"/>
  <rect x="318.0" y="242.2" width="21" height="11.7" fill="#5B8ADB"/>
  <text x="328.5" y="238.2" text-anchor="middle" font-size="8" font-weight="600" class="cb">16.2</text>
  <rect x="342.0" y="264.4" width="21" height="0.6" fill="#D49B40"/>
  <rect x="342.0" y="252.9" width="21" height="11.5" fill="#4DA5BB"/>
  <rect x="342.0" y="252.1" width="21" height="0.8" fill="#45AB8A"/>
  <rect x="342.0" y="251.0" width="21" height="1.1" fill="#D46565"/>
  <rect x="342.0" y="236.1" width="21" height="14.9" fill="#5B8ADB"/>
  <text x="352.5" y="232.1" text-anchor="middle" font-size="8" font-weight="600" class="cb">20.5</text>
  <rect x="379.0" y="264.6" width="21" height="0.4" fill="#D49B40"/>
  <rect x="379.0" y="263.7" width="21" height="0.8" fill="#4DA5BB"/>
  <rect x="379.0" y="263.2" width="21" height="0.6" fill="#45AB8A"/>
  <rect x="379.0" y="262.3" width="21" height="0.9" fill="#D46565"/>
  <rect x="379.0" y="261.9" width="21" height="0.4" fill="#5B8ADB"/>
  <text x="389.5" y="257.9" text-anchor="middle" font-size="8" font-weight="600" class="cb">2.2</text>
  <rect x="403.0" y="264.3" width="21" height="0.7" fill="#D49B40"/>
  <rect x="403.0" y="253.7" width="21" height="10.7" fill="#4DA5BB"/>
  <rect x="403.0" y="253.1" width="21" height="0.5" fill="#45AB8A"/>
  <rect x="403.0" y="252.3" width="21" height="0.8" fill="#D46565"/>
  <rect x="403.0" y="232.9" width="21" height="19.4" fill="#5B8ADB"/>
  <text x="413.5" y="228.9" text-anchor="middle" font-size="8" font-weight="600" class="cb">22.8</text>
  <rect x="427.0" y="264.4" width="21" height="0.6" fill="#D49B40"/>
  <rect x="427.0" y="257.5" width="21" height="7.0" fill="#4DA5BB"/>
  <rect x="427.0" y="256.9" width="21" height="0.6" fill="#45AB8A"/>
  <rect x="427.0" y="256.1" width="21" height="0.8" fill="#D46565"/>
  <rect x="427.0" y="243.8" width="21" height="12.3" fill="#5B8ADB"/>
  <text x="437.5" y="239.8" text-anchor="middle" font-size="8" font-weight="600" class="cb">15.1</text>
  <rect x="451.0" y="264.3" width="21" height="0.7" fill="#D49B40"/>
  <rect x="451.0" y="253.7" width="21" height="10.6" fill="#4DA5BB"/>
  <rect x="451.0" y="253.0" width="21" height="0.7" fill="#45AB8A"/>
  <rect x="451.0" y="252.0" width="21" height="1.0" fill="#D46565"/>
  <rect x="451.0" y="236.9" width="21" height="15.1" fill="#5B8ADB"/>
  <text x="461.5" y="232.9" text-anchor="middle" font-size="8" font-weight="600" class="cb">20.0</text>
  <rect x="488.0" y="259.4" width="21" height="5.6" fill="#D49B40"/>
  <rect x="488.0" y="259.1" width="21" height="0.3" fill="#4DA5BB"/>
  <rect x="488.0" y="257.6" width="21" height="1.4" fill="#45AB8A"/>
  <rect x="488.0" y="256.1" width="21" height="1.5" fill="#D46565"/>
  <rect x="488.0" y="255.8" width="21" height="0.3" fill="#5B8ADB"/>
  <text x="498.5" y="251.8" text-anchor="middle" font-size="8" font-weight="600" class="cb">6.5</text>
  <rect x="512.0" y="258.3" width="21" height="6.7" fill="#D49B40"/>
  <rect x="512.0" y="235.9" width="21" height="22.4" fill="#4DA5BB"/>
  <rect x="512.0" y="233.9" width="21" height="2.0" fill="#45AB8A"/>
  <rect x="512.0" y="232.0" width="21" height="1.9" fill="#D46565"/>
  <rect x="512.0" y="209.9" width="21" height="22.1" fill="#5B8ADB"/>
  <text x="522.5" y="205.9" text-anchor="middle" font-size="8" font-weight="600" class="cb">39.1</text>
  <rect x="536.0" y="259.3" width="21" height="5.7" fill="#D49B40"/>
  <rect x="536.0" y="245.3" width="21" height="14.0" fill="#4DA5BB"/>
  <rect x="536.0" y="243.4" width="21" height="1.9" fill="#45AB8A"/>
  <rect x="536.0" y="241.5" width="21" height="1.9" fill="#D46565"/>
  <rect x="536.0" y="228.1" width="21" height="13.4" fill="#5B8ADB"/>
  <text x="546.5" y="224.1" text-anchor="middle" font-size="8" font-weight="600" class="cb">26.2</text>
  <rect x="560.0" y="258.8" width="21" height="6.2" fill="#D49B40"/>
  <rect x="560.0" y="245.9" width="21" height="12.9" fill="#4DA5BB"/>
  <rect x="560.0" y="244.0" width="21" height="1.9" fill="#45AB8A"/>
  <rect x="560.0" y="242.0" width="21" height="1.9" fill="#D46565"/>
  <rect x="560.0" y="230.9" width="21" height="11.1" fill="#5B8ADB"/>
  <text x="570.5" y="226.9" text-anchor="middle" font-size="8" font-weight="600" class="cb">24.2</text>
  <rect x="597.0" y="259.7" width="21" height="5.3" fill="#D49B40"/>
  <rect x="597.0" y="259.2" width="21" height="0.5" fill="#4DA5BB"/>
  <rect x="597.0" y="257.5" width="21" height="1.6" fill="#45AB8A"/>
  <rect x="597.0" y="256.1" width="21" height="1.4" fill="#D46565"/>
  <rect x="597.0" y="255.8" width="21" height="0.3" fill="#5B8ADB"/>
  <text x="607.5" y="251.8" text-anchor="middle" font-size="8" font-weight="600" class="cb">6.5</text>
  <rect x="621.0" y="258.4" width="21" height="6.6" fill="#D49B40"/>
  <rect x="621.0" y="238.2" width="21" height="20.3" fill="#4DA5BB"/>
  <rect x="621.0" y="236.1" width="21" height="2.0" fill="#45AB8A"/>
  <rect x="621.0" y="234.3" width="21" height="1.8" fill="#D46565"/>
  <rect x="621.0" y="212.3" width="21" height="22.0" fill="#5B8ADB"/>
  <text x="631.5" y="208.3" text-anchor="middle" font-size="8" font-weight="600" class="cb">37.4</text>
  <rect x="645.0" y="259.2" width="21" height="5.8" fill="#D49B40"/>
  <rect x="645.0" y="246.4" width="21" height="12.8" fill="#4DA5BB"/>
  <rect x="645.0" y="244.5" width="21" height="1.9" fill="#45AB8A"/>
  <rect x="645.0" y="242.9" width="21" height="1.7" fill="#D46565"/>
  <rect x="645.0" y="228.5" width="21" height="14.3" fill="#5B8ADB"/>
  <text x="655.5" y="224.5" text-anchor="middle" font-size="8" font-weight="600" class="cb">25.9</text>
  <rect x="669.0" y="259.2" width="21" height="5.8" fill="#D49B40"/>
  <rect x="669.0" y="246.9" width="21" height="12.3" fill="#4DA5BB"/>
  <rect x="669.0" y="244.8" width="21" height="2.1" fill="#45AB8A"/>
  <rect x="669.0" y="242.8" width="21" height="2.0" fill="#D46565"/>
  <rect x="669.0" y="230.2" width="21" height="12.6" fill="#5B8ADB"/>
  <text x="679.5" y="226.2" text-anchor="middle" font-size="8" font-weight="600" class="cb">24.7</text>
  <rect x="706.0" y="256.5" width="21" height="8.5" fill="#D49B40"/>
  <rect x="706.0" y="256.2" width="21" height="0.4" fill="#4DA5BB"/>
  <rect x="706.0" y="254.2" width="21" height="2.0" fill="#45AB8A"/>
  <rect x="706.0" y="252.3" width="21" height="1.9" fill="#D46565"/>
  <rect x="706.0" y="251.9" width="21" height="0.4" fill="#5B8ADB"/>
  <text x="716.5" y="247.9" text-anchor="middle" font-size="8" font-weight="600" class="cb">9.3</text>
  <rect x="730.0" y="255.1" width="21" height="9.9" fill="#D49B40"/>
  <rect x="730.0" y="231.2" width="21" height="23.8" fill="#4DA5BB"/>
  <rect x="730.0" y="228.7" width="21" height="2.5" fill="#45AB8A"/>
  <rect x="730.0" y="226.3" width="21" height="2.4" fill="#D46565"/>
  <rect x="730.0" y="200.9" width="21" height="25.4" fill="#5B8ADB"/>
  <text x="740.5" y="196.9" text-anchor="middle" font-size="8" font-weight="600" class="cb">45.5</text>
  <rect x="754.0" y="256.0" width="21" height="9.0" fill="#D49B40"/>
  <rect x="754.0" y="234.5" width="21" height="21.5" fill="#4DA5BB"/>
  <rect x="754.0" y="231.6" width="21" height="2.9" fill="#45AB8A"/>
  <rect x="754.0" y="229.3" width="21" height="2.3" fill="#D46565"/>
  <rect x="754.0" y="208.2" width="21" height="21.1" fill="#5B8ADB"/>
  <text x="764.5" y="204.2" text-anchor="middle" font-size="8" font-weight="600" class="cb">40.4</text>
  <rect x="778.0" y="256.1" width="21" height="8.9" fill="#D49B40"/>
  <rect x="778.0" y="239.8" width="21" height="16.3" fill="#4DA5BB"/>
  <rect x="778.0" y="237.3" width="21" height="2.6" fill="#45AB8A"/>
  <rect x="778.0" y="234.8" width="21" height="2.4" fill="#D46565"/>
  <rect x="778.0" y="218.8" width="21" height="16.0" fill="#5B8ADB"/>
  <text x="788.5" y="214.8" text-anchor="middle" font-size="8" font-weight="600" class="cb">32.8</text>
  <rect x="815.0" y="257.7" width="21" height="7.3" fill="#D49B40"/>
  <rect x="815.0" y="257.2" width="21" height="0.5" fill="#4DA5BB"/>
  <rect x="815.0" y="255.0" width="21" height="2.2" fill="#45AB8A"/>
  <rect x="815.0" y="253.2" width="21" height="1.8" fill="#D46565"/>
  <rect x="815.0" y="252.7" width="21" height="0.4" fill="#5B8ADB"/>
  <text x="825.5" y="248.7" text-anchor="middle" font-size="8" font-weight="600" class="cb">8.7</text>
  <rect x="839.0" y="256.3" width="21" height="8.7" fill="#D49B40"/>
  <rect x="839.0" y="234.5" width="21" height="21.7" fill="#4DA5BB"/>
  <rect x="839.0" y="231.7" width="21" height="2.8" fill="#45AB8A"/>
  <rect x="839.0" y="228.7" width="21" height="3.1" fill="#D46565"/>
  <rect x="839.0" y="202.0" width="21" height="26.7" fill="#5B8ADB"/>
  <text x="849.5" y="198.0" text-anchor="middle" font-size="8" font-weight="600" class="cb">44.7</text>
  <rect x="863.0" y="256.6" width="21" height="8.4" fill="#D49B40"/>
  <rect x="863.0" y="236.2" width="21" height="20.4" fill="#4DA5BB"/>
  <rect x="863.0" y="233.5" width="21" height="2.7" fill="#45AB8A"/>
  <rect x="863.0" y="231.2" width="21" height="2.3" fill="#D46565"/>
  <rect x="863.0" y="207.6" width="21" height="23.5" fill="#5B8ADB"/>
  <text x="873.5" y="203.6" text-anchor="middle" font-size="8" font-weight="600" class="cb">40.7</text>
  <rect x="887.0" y="256.8" width="21" height="8.2" fill="#D49B40"/>
  <rect x="887.0" y="240.7" width="21" height="16.1" fill="#4DA5BB"/>
  <rect x="887.0" y="237.8" width="21" height="3.0" fill="#45AB8A"/>
  <rect x="887.0" y="235.0" width="21" height="2.7" fill="#D46565"/>
  <rect x="887.0" y="217.5" width="21" height="17.5" fill="#5B8ADB"/>
  <text x="897.5" y="213.5" text-anchor="middle" font-size="8" font-weight="600" class="cb">33.8</text>

  <text x="62.5" y="278" text-anchor="middle" font-size="7.5" class="cs">0</text>
  <text x="86.5" y="278" text-anchor="middle" font-size="7.5" class="cs">1</text>
  <text x="110.5" y="278" text-anchor="middle" font-size="7.5" class="cs">2</text>
  <text x="134.5" y="278" text-anchor="middle" font-size="7.5" class="cs">4</text>
  <text x="171.5" y="278" text-anchor="middle" font-size="7.5" class="cs">0</text>
  <text x="195.5" y="278" text-anchor="middle" font-size="7.5" class="cs">1</text>
  <text x="219.5" y="278" text-anchor="middle" font-size="7.5" class="cs">2</text>
  <text x="243.5" y="278" text-anchor="middle" font-size="7.5" class="cs">4</text>
  <text x="280.5" y="278" text-anchor="middle" font-size="7.5" class="cs">0</text>
  <text x="304.5" y="278" text-anchor="middle" font-size="7.5" class="cs">1</text>
  <text x="328.5" y="278" text-anchor="middle" font-size="7.5" class="cs">2</text>
  <text x="352.5" y="278" text-anchor="middle" font-size="7.5" class="cs">4</text>
  <text x="389.5" y="278" text-anchor="middle" font-size="7.5" class="cs">0</text>
  <text x="413.5" y="278" text-anchor="middle" font-size="7.5" class="cs">1</text>
  <text x="437.5" y="278" text-anchor="middle" font-size="7.5" class="cs">2</text>
  <text x="461.5" y="278" text-anchor="middle" font-size="7.5" class="cs">4</text>
  <text x="498.5" y="278" text-anchor="middle" font-size="7.5" class="cs">0</text>
  <text x="522.5" y="278" text-anchor="middle" font-size="7.5" class="cs">1</text>
  <text x="546.5" y="278" text-anchor="middle" font-size="7.5" class="cs">2</text>
  <text x="570.5" y="278" text-anchor="middle" font-size="7.5" class="cs">4</text>
  <text x="607.5" y="278" text-anchor="middle" font-size="7.5" class="cs">0</text>
  <text x="631.5" y="278" text-anchor="middle" font-size="7.5" class="cs">1</text>
  <text x="655.5" y="278" text-anchor="middle" font-size="7.5" class="cs">2</text>
  <text x="679.5" y="278" text-anchor="middle" font-size="7.5" class="cs">4</text>
  <text x="716.5" y="278" text-anchor="middle" font-size="7.5" class="cs">0</text>
  <text x="740.5" y="278" text-anchor="middle" font-size="7.5" class="cs">1</text>
  <text x="764.5" y="278" text-anchor="middle" font-size="7.5" class="cs">2</text>
  <text x="788.5" y="278" text-anchor="middle" font-size="7.5" class="cs">4</text>
  <text x="825.5" y="278" text-anchor="middle" font-size="7.5" class="cs">0</text>
  <text x="849.5" y="278" text-anchor="middle" font-size="7.5" class="cs">1</text>
  <text x="873.5" y="278" text-anchor="middle" font-size="7.5" class="cs">2</text>
  <text x="897.5" y="278" text-anchor="middle" font-size="7.5" class="cs">4</text>

  <text x="98.5" y="293" text-anchor="middle" font-size="9.5" font-weight="700" class="cp">Tophat</text>
  <text x="98.5" y="306" text-anchor="middle" font-size="8.5" fill="#5B8ADB">ISM</text>
  <text x="207.5" y="293" text-anchor="middle" font-size="9.5" font-weight="700" class="cp">Tophat</text>
  <text x="207.5" y="306" text-anchor="middle" font-size="8.5" fill="#45AB8A">wind</text>
  <text x="316.5" y="293" text-anchor="middle" font-size="9.5" font-weight="700" class="cp">Two-comp.</text>
  <text x="316.5" y="306" text-anchor="middle" font-size="8.5" fill="#5B8ADB">ISM</text>
  <text x="425.5" y="293" text-anchor="middle" font-size="9.5" font-weight="700" class="cp">Two-comp.</text>
  <text x="425.5" y="306" text-anchor="middle" font-size="8.5" fill="#45AB8A">wind</text>
  <text x="534.5" y="293" text-anchor="middle" font-size="9.5" font-weight="700" class="cp">Gaussian</text>
  <text x="534.5" y="306" text-anchor="middle" font-size="8.5" fill="#5B8ADB">ISM</text>
  <text x="643.5" y="293" text-anchor="middle" font-size="9.5" font-weight="700" class="cp">Gaussian</text>
  <text x="643.5" y="306" text-anchor="middle" font-size="8.5" fill="#45AB8A">wind</text>
  <text x="752.5" y="293" text-anchor="middle" font-size="9.5" font-weight="700" class="cp">Power-law</text>
  <text x="752.5" y="306" text-anchor="middle" font-size="8.5" fill="#5B8ADB">ISM</text>
  <text x="861.5" y="293" text-anchor="middle" font-size="9.5" font-weight="700" class="cp">Power-law</text>
  <text x="861.5" y="306" text-anchor="middle" font-size="8.5" fill="#45AB8A">wind</text>

  <text x="13" y="180" text-anchor="middle" font-size="9" class="cs" transform="rotate(-90, 13, 180)">Wall time (ms)</text>

</svg>
