<?xml version="1.0" encoding="UTF-8"?>
<svg xmlns="http://www.w3.org/2000/svg" viewBox="0 0 950 360"
     font-family="-apple-system, 'Segoe UI', Roboto, 'Helvetica Neue', Arial, sans-serif">

  <style>
    svg { color-scheme: light dark; }
    .cp { fill: #E6EDF3; }
    .cs { fill: #A8B8CC; }
    .cb { fill: #D0DDE8; }
    .mi { fill: #5B8ADB; }
    .mw { fill: #45AB8A; }
    .gl { stroke: #2D3345; fill: none; }
    @media (prefers-color-scheme: light) {
      .cp { fill: #24292F; }
      .cs { fill: #57606A; }
      .cb { fill: #24292F; }
      .mi { fill: #0969DA; }
      .mw { fill: #1A7F37; }
      .gl { stroke: #D0D7DE; }
    }
  </style>

  <rect width="950" height="360" fill="transparent" rx="12"/>

  <text x="475" y="28" text-anchor="middle" font-size="15" font-weight="700" class="cp" letter-spacing="0.3">Performance · Synchrotron</text>
  <text x="475" y="44" text-anchor="middle" font-size="9" class="cs">CPU time by stage · Apple M2 · single core · default resolution</text>
  <text x="475" y="57" text-anchor="middle" font-size="9" class="cs">each group: θv/θc = 0 │ 1 │ 2 │ 4 (left → right)</text>

  <rect x="213" y="67" width="12" height="12" rx="2" fill="#D49B40"/>
  <text x="229" y="78" font-size="10" class="cb">Shock Dynamics</text>
  <rect x="328" y="67" width="12" height="12" rx="2" fill="#4DA5BB"/>
  <text x="344" y="78" font-size="10" class="cb">EAT Grid</text>
  <rect x="407" y="67" width="12" height="12" rx="2" fill="#45AB8A"/>
  <text x="423" y="78" font-size="10" class="cb">Syn. Electrons</text>
  <rect x="522" y="67" width="12" height="12" rx="2" fill="#D46565"/>
  <text x="538" y="78" font-size="10" class="cb">Syn. Photons</text>
  <rect x="625" y="67" width="12" height="12" rx="2" fill="#5B8ADB"/>
  <text x="641" y="78" font-size="10" class="cb">Flux Integration</text>

  <line x1="52" y1="265" x2="935" y2="265" class="gl" stroke-width="1"/>
  <line x1="52" y1="222.8" x2="935" y2="222.8" class="gl" stroke-width="1" stroke-dasharray="4,3"/>
  <text x="48" y="226.8" text-anchor="end" font-size="8" class="cs">2.5 ms</text>
  <line x1="52" y1="180.5" x2="935" y2="180.5" class="gl" stroke-width="1" stroke-dasharray="4,3"/>
  <text x="48" y="184.5" text-anchor="end" font-size="8" class="cs">5 ms</text>
  <line x1="52" y1="138.2" x2="935" y2="138.2" class="gl" stroke-width="1" stroke-dasharray="4,3"/>
  <text x="48" y="142.2" text-anchor="end" font-size="8" class="cs">7.5 ms</text>
  <line x1="52" y1="96.0" x2="935" y2="96.0" class="gl" stroke-width="1" stroke-dasharray="4,3"/>
  <text x="48" y="100.0" text-anchor="end" font-size="8" class="cs">10 ms</text>
  <text x="48" y="269" text-anchor="end" font-size="8" class="cs">0</text>

  <rect x="52.0" y="263.3" width="21" height="1.7" fill="#D49B40"/>
  <rect x="52.0" y="262.5" width="21" height="0.8" fill="#4DA5BB"/>
  <rect x="52.0" y="260.6" width="21" height="2.0" fill="#45AB8A"/>
  <rect x="52.0" y="256.6" width="21" height="4.0" fill="#D46565"/>
  <rect x="52.0" y="255.1" width="21" height="1.5" fill="#5B8ADB"/>
  <text x="62.5" y="251.1" text-anchor="middle" font-size="8" font-weight="600" class="cb">0.6</text>
  <rect x="76.0" y="262.2" width="21" height="2.8" fill="#D49B40"/>
  <rect x="76.0" y="228.3" width="21" height="34.0" fill="#4DA5BB"/>
  <rect x="76.0" y="225.8" width="21" height="2.4" fill="#45AB8A"/>
  <rect x="76.0" y="221.1" width="21" height="4.7" fill="#D46565"/>
  <rect x="76.0" y="163.0" width="21" height="58.1" fill="#5B8ADB"/>
  <text x="86.5" y="159.0" text-anchor="middle" font-size="8" font-weight="600" class="cb">6.0</text>
  <rect x="100.0" y="262.6" width="21" height="2.4" fill="#D49B40"/>
  <rect x="100.0" y="249.2" width="21" height="13.3" fill="#4DA5BB"/>
  <rect x="100.0" y="247.2" width="21" height="2.1" fill="#45AB8A"/>
  <rect x="100.0" y="242.9" width="21" height="4.3" fill="#D46565"/>
  <rect x="100.0" y="220.0" width="21" height="22.8" fill="#5B8ADB"/>
  <text x="110.5" y="216.0" text-anchor="middle" font-size="8" font-weight="600" class="cb">2.7</text>
  <rect x="124.0" y="263.2" width="21" height="1.8" fill="#D49B40"/>
  <rect x="124.0" y="249.9" width="21" height="13.3" fill="#4DA5BB"/>
  <rect x="124.0" y="248.8" width="21" height="1.1" fill="#45AB8A"/>
  <rect x="124.0" y="244.8" width="21" height="4.0" fill="#D46565"/>
  <rect x="124.0" y="226.7" width="21" height="18.1" fill="#5B8ADB"/>
  <text x="134.5" y="222.7" text-anchor="middle" font-size="8" font-weight="600" class="cb">2.3</text>
  <rect x="161.0" y="263.3" width="21" height="1.7" fill="#D49B40"/>
  <rect x="161.0" y="262.4" width="21" height="0.9" fill="#4DA5BB"/>
  <rect x="161.0" y="258.9" width="21" height="3.5" fill="#45AB8A"/>
  <rect x="161.0" y="253.6" width="21" height="5.2" fill="#D46565"/>
  <rect x="161.0" y="252.3" width="21" height="1.3" fill="#5B8ADB"/>
  <text x="171.5" y="248.3" text-anchor="middle" font-size="8" font-weight="600" class="cb">0.7</text>
  <rect x="185.0" y="262.4" width="21" height="2.6" fill="#D49B40"/>
  <rect x="185.0" y="230.1" width="21" height="32.3" fill="#4DA5BB"/>
  <rect x="185.0" y="227.6" width="21" height="2.5" fill="#45AB8A"/>
  <rect x="185.0" y="222.9" width="21" height="4.7" fill="#D46565"/>
  <rect x="185.0" y="161.1" width="21" height="61.8" fill="#5B8ADB"/>
  <text x="195.5" y="157.1" text-anchor="middle" font-size="8" font-weight="600" class="cb">6.1</text>
  <rect x="209.0" y="262.6" width="21" height="2.4" fill="#D49B40"/>
  <rect x="209.0" y="248.9" width="21" height="13.7" fill="#4DA5BB"/>
  <rect x="209.0" y="246.5" width="21" height="2.3" fill="#45AB8A"/>
  <rect x="209.0" y="242.2" width="21" height="4.3" fill="#D46565"/>
  <rect x="209.0" y="217.3" width="21" height="24.9" fill="#5B8ADB"/>
  <text x="219.5" y="213.3" text-anchor="middle" font-size="8" font-weight="600" class="cb">2.8</text>
  <rect x="233.0" y="263.0" width="21" height="2.0" fill="#D49B40"/>
  <rect x="233.0" y="248.8" width="21" height="14.1" fill="#4DA5BB"/>
  <rect x="233.0" y="246.7" width="21" height="2.1" fill="#45AB8A"/>
  <rect x="233.0" y="241.8" width="21" height="5.0" fill="#D46565"/>
  <rect x="233.0" y="214.5" width="21" height="27.3" fill="#5B8ADB"/>
  <text x="243.5" y="210.5" text-anchor="middle" font-size="8" font-weight="600" class="cb">3.0</text>
  <rect x="270.0" y="262.4" width="21" height="2.6" fill="#D49B40"/>
  <rect x="270.0" y="261.6" width="21" height="0.8" fill="#4DA5BB"/>
  <rect x="270.0" y="259.3" width="21" height="2.3" fill="#45AB8A"/>
  <rect x="270.0" y="254.7" width="21" height="4.6" fill="#D46565"/>
  <rect x="270.0" y="253.2" width="21" height="1.4" fill="#5B8ADB"/>
  <text x="280.5" y="249.2" text-anchor="middle" font-size="8" font-weight="600" class="cb">0.7</text>
  <rect x="294.0" y="260.5" width="21" height="4.5" fill="#D49B40"/>
  <rect x="294.0" y="237.2" width="21" height="23.2" fill="#4DA5BB"/>
  <rect x="294.0" y="235.6" width="21" height="1.6" fill="#45AB8A"/>
  <rect x="294.0" y="230.0" width="21" height="5.6" fill="#D46565"/>
  <rect x="294.0" y="197.7" width="21" height="32.3" fill="#5B8ADB"/>
  <text x="304.5" y="193.7" text-anchor="middle" font-size="8" font-weight="600" class="cb">4.0</text>
  <rect x="318.0" y="259.9" width="21" height="5.1" fill="#D49B40"/>
  <rect x="318.0" y="242.4" width="21" height="17.5" fill="#4DA5BB"/>
  <rect x="318.0" y="239.5" width="21" height="2.9" fill="#45AB8A"/>
  <rect x="318.0" y="233.9" width="21" height="5.5" fill="#D46565"/>
  <rect x="318.0" y="207.0" width="21" height="27.0" fill="#5B8ADB"/>
  <text x="328.5" y="203.0" text-anchor="middle" font-size="8" font-weight="600" class="cb">3.4</text>
  <rect x="342.0" y="261.3" width="21" height="3.7" fill="#D49B40"/>
  <rect x="342.0" y="235.4" width="21" height="25.9" fill="#4DA5BB"/>
  <rect x="342.0" y="232.6" width="21" height="2.7" fill="#45AB8A"/>
  <rect x="342.0" y="226.6" width="21" height="6.1" fill="#D46565"/>
  <rect x="342.0" y="187.7" width="21" height="38.9" fill="#5B8ADB"/>
  <text x="352.5" y="183.7" text-anchor="middle" font-size="8" font-weight="600" class="cb">4.6</text>
  <rect x="379.0" y="262.0" width="21" height="3.0" fill="#D49B40"/>
  <rect x="379.0" y="261.2" width="21" height="0.9" fill="#4DA5BB"/>
  <rect x="379.0" y="258.7" width="21" height="2.4" fill="#45AB8A"/>
  <rect x="379.0" y="254.2" width="21" height="4.5" fill="#D46565"/>
  <rect x="379.0" y="252.7" width="21" height="1.5" fill="#5B8ADB"/>
  <text x="389.5" y="248.7" text-anchor="middle" font-size="8" font-weight="600" class="cb">0.7</text>
  <rect x="403.0" y="260.7" width="21" height="4.3" fill="#D49B40"/>
  <rect x="403.0" y="242.6" width="21" height="18.1" fill="#4DA5BB"/>
  <rect x="403.0" y="240.0" width="21" height="2.6" fill="#45AB8A"/>
  <rect x="403.0" y="234.3" width="21" height="5.8" fill="#D46565"/>
  <rect x="403.0" y="199.5" width="21" height="34.8" fill="#5B8ADB"/>
  <text x="413.5" y="195.5" text-anchor="middle" font-size="8" font-weight="600" class="cb">3.9</text>
  <rect x="427.0" y="259.7" width="21" height="5.3" fill="#D49B40"/>
  <rect x="427.0" y="242.3" width="21" height="17.4" fill="#4DA5BB"/>
  <rect x="427.0" y="239.5" width="21" height="2.8" fill="#45AB8A"/>
  <rect x="427.0" y="234.2" width="21" height="5.3" fill="#D46565"/>
  <rect x="427.0" y="205.6" width="21" height="28.6" fill="#5B8ADB"/>
  <text x="437.5" y="201.6" text-anchor="middle" font-size="8" font-weight="600" class="cb">3.5</text>
  <rect x="451.0" y="260.2" width="21" height="4.8" fill="#D49B40"/>
  <rect x="451.0" y="229.3" width="21" height="31.0" fill="#4DA5BB"/>
  <rect x="451.0" y="226.2" width="21" height="3.0" fill="#45AB8A"/>
  <rect x="451.0" y="219.1" width="21" height="7.1" fill="#D46565"/>
  <rect x="451.0" y="176.1" width="21" height="43.0" fill="#5B8ADB"/>
  <text x="461.5" y="172.1" text-anchor="middle" font-size="8" font-weight="600" class="cb">5.3</text>
  <rect x="488.0" y="241.5" width="21" height="23.5" fill="#D49B40"/>
  <rect x="488.0" y="240.6" width="21" height="0.8" fill="#4DA5BB"/>
  <rect x="488.0" y="235.6" width="21" height="5.0" fill="#45AB8A"/>
  <rect x="488.0" y="228.6" width="21" height="7.0" fill="#D46565"/>
  <rect x="488.0" y="227.0" width="21" height="1.6" fill="#5B8ADB"/>
  <text x="498.5" y="223.0" text-anchor="middle" font-size="8" font-weight="600" class="cb">2.2</text>
  <rect x="512.0" y="234.1" width="21" height="30.9" fill="#D49B40"/>
  <rect x="512.0" y="201.8" width="21" height="32.3" fill="#4DA5BB"/>
  <rect x="512.0" y="194.8" width="21" height="7.0" fill="#45AB8A"/>
  <rect x="512.0" y="185.4" width="21" height="9.4" fill="#D46565"/>
  <rect x="512.0" y="134.3" width="21" height="51.2" fill="#5B8ADB"/>
  <text x="522.5" y="130.3" text-anchor="middle" font-size="8" font-weight="600" class="cb">7.7</text>
  <rect x="536.0" y="229.7" width="21" height="35.3" fill="#D49B40"/>
  <rect x="536.0" y="206.5" width="21" height="23.2" fill="#4DA5BB"/>
  <rect x="536.0" y="199.8" width="21" height="6.6" fill="#45AB8A"/>
  <rect x="536.0" y="190.8" width="21" height="9.0" fill="#D46565"/>
  <rect x="536.0" y="154.7" width="21" height="36.1" fill="#5B8ADB"/>
  <text x="546.5" y="150.7" text-anchor="middle" font-size="8" font-weight="600" class="cb">6.5</text>
  <rect x="560.0" y="239.9" width="21" height="25.1" fill="#D49B40"/>
  <rect x="560.0" y="222.9" width="21" height="17.1" fill="#4DA5BB"/>
  <rect x="560.0" y="216.8" width="21" height="6.1" fill="#45AB8A"/>
  <rect x="560.0" y="208.5" width="21" height="8.4" fill="#D46565"/>
  <rect x="560.0" y="184.7" width="21" height="23.8" fill="#5B8ADB"/>
  <text x="570.5" y="180.7" text-anchor="middle" font-size="8" font-weight="600" class="cb">4.8</text>
  <rect x="597.0" y="235.3" width="21" height="29.7" fill="#D49B40"/>
  <rect x="597.0" y="234.4" width="21" height="0.8" fill="#4DA5BB"/>
  <rect x="597.0" y="228.9" width="21" height="5.6" fill="#45AB8A"/>
  <rect x="597.0" y="221.9" width="21" height="7.0" fill="#D46565"/>
  <rect x="597.0" y="220.4" width="21" height="1.5" fill="#5B8ADB"/>
  <text x="607.5" y="216.4" text-anchor="middle" font-size="8" font-weight="600" class="cb">2.6</text>
  <rect x="621.0" y="227.0" width="21" height="38.0" fill="#D49B40"/>
  <rect x="621.0" y="195.5" width="21" height="31.5" fill="#4DA5BB"/>
  <rect x="621.0" y="187.5" width="21" height="8.0" fill="#45AB8A"/>
  <rect x="621.0" y="178.0" width="21" height="9.5" fill="#D46565"/>
  <rect x="621.0" y="122.0" width="21" height="56.0" fill="#5B8ADB"/>
  <text x="631.5" y="118.0" text-anchor="middle" font-size="8" font-weight="600" class="cb">8.5</text>
  <rect x="645.0" y="223.7" width="21" height="41.3" fill="#D49B40"/>
  <rect x="645.0" y="201.5" width="21" height="22.2" fill="#4DA5BB"/>
  <rect x="645.0" y="194.1" width="21" height="7.4" fill="#45AB8A"/>
  <rect x="645.0" y="185.5" width="21" height="8.6" fill="#D46565"/>
  <rect x="645.0" y="145.5" width="21" height="40.0" fill="#5B8ADB"/>
  <text x="655.5" y="141.5" text-anchor="middle" font-size="8" font-weight="600" class="cb">7.1</text>
  <rect x="669.0" y="234.0" width="21" height="31.0" fill="#D49B40"/>
  <rect x="669.0" y="217.2" width="21" height="16.8" fill="#4DA5BB"/>
  <rect x="669.0" y="210.1" width="21" height="7.0" fill="#45AB8A"/>
  <rect x="669.0" y="201.8" width="21" height="8.4" fill="#D46565"/>
  <rect x="669.0" y="172.3" width="21" height="29.5" fill="#5B8ADB"/>
  <text x="679.5" y="168.3" text-anchor="middle" font-size="8" font-weight="600" class="cb">5.5</text>
  <rect x="706.0" y="235.9" width="21" height="29.1" fill="#D49B40"/>
  <rect x="706.0" y="234.9" width="21" height="1.0" fill="#4DA5BB"/>
  <rect x="706.0" y="228.8" width="21" height="6.1" fill="#45AB8A"/>
  <rect x="706.0" y="219.2" width="21" height="9.6" fill="#D46565"/>
  <rect x="706.0" y="217.4" width="21" height="1.8" fill="#5B8ADB"/>
  <text x="716.5" y="213.4" text-anchor="middle" font-size="8" font-weight="600" class="cb">2.8</text>
  <rect x="730.0" y="222.9" width="21" height="42.1" fill="#D49B40"/>
  <rect x="730.0" y="187.4" width="21" height="35.5" fill="#4DA5BB"/>
  <rect x="730.0" y="179.5" width="21" height="7.9" fill="#45AB8A"/>
  <rect x="730.0" y="168.3" width="21" height="11.2" fill="#D46565"/>
  <rect x="730.0" y="121.3" width="21" height="47.0" fill="#5B8ADB"/>
  <text x="740.5" y="117.3" text-anchor="middle" font-size="8" font-weight="600" class="cb">8.5</text>
  <rect x="754.0" y="227.2" width="21" height="37.8" fill="#D49B40"/>
  <rect x="754.0" y="199.0" width="21" height="28.3" fill="#4DA5BB"/>
  <rect x="754.0" y="191.0" width="21" height="8.0" fill="#45AB8A"/>
  <rect x="754.0" y="179.5" width="21" height="11.5" fill="#D46565"/>
  <rect x="754.0" y="133.2" width="21" height="46.2" fill="#5B8ADB"/>
  <text x="764.5" y="129.2" text-anchor="middle" font-size="8" font-weight="600" class="cb">7.8</text>
  <rect x="778.0" y="227.8" width="21" height="37.2" fill="#D49B40"/>
  <rect x="778.0" y="200.3" width="21" height="27.5" fill="#4DA5BB"/>
  <rect x="778.0" y="188.3" width="21" height="12.0" fill="#45AB8A"/>
  <rect x="778.0" y="175.1" width="21" height="13.2" fill="#D46565"/>
  <rect x="778.0" y="137.8" width="21" height="37.3" fill="#5B8ADB"/>
  <text x="788.5" y="133.8" text-anchor="middle" font-size="8" font-weight="600" class="cb">7.5</text>
  <rect x="815.0" y="230.1" width="21" height="34.9" fill="#D49B40"/>
  <rect x="815.0" y="229.1" width="21" height="1.0" fill="#4DA5BB"/>
  <rect x="815.0" y="221.9" width="21" height="7.2" fill="#45AB8A"/>
  <rect x="815.0" y="213.1" width="21" height="8.8" fill="#D46565"/>
  <rect x="815.0" y="211.2" width="21" height="1.9" fill="#5B8ADB"/>
  <text x="825.5" y="207.2" text-anchor="middle" font-size="8" font-weight="600" class="cb">3.2</text>
  <rect x="839.0" y="218.0" width="21" height="47.0" fill="#D49B40"/>
  <rect x="839.0" y="187.6" width="21" height="30.4" fill="#4DA5BB"/>
  <rect x="839.0" y="178.3" width="21" height="9.3" fill="#45AB8A"/>
  <rect x="839.0" y="167.0" width="21" height="11.2" fill="#D46565"/>
  <rect x="839.0" y="109.8" width="21" height="57.2" fill="#5B8ADB"/>
  <text x="849.5" y="105.8" text-anchor="middle" font-size="8" font-weight="600" class="cb">9.2</text>
  <rect x="863.0" y="220.4" width="21" height="44.6" fill="#D49B40"/>
  <rect x="863.0" y="192.8" width="21" height="27.5" fill="#4DA5BB"/>
  <rect x="863.0" y="182.5" width="21" height="10.3" fill="#45AB8A"/>
  <rect x="863.0" y="170.9" width="21" height="11.6" fill="#D46565"/>
  <rect x="863.0" y="120.8" width="21" height="50.1" fill="#5B8ADB"/>
  <text x="873.5" y="116.8" text-anchor="middle" font-size="8" font-weight="600" class="cb">8.5</text>
  <rect x="887.0" y="221.7" width="21" height="43.3" fill="#D49B40"/>
  <rect x="887.0" y="195.6" width="21" height="26.2" fill="#4DA5BB"/>
  <rect x="887.0" y="185.6" width="21" height="10.0" fill="#45AB8A"/>
  <rect x="887.0" y="171.7" width="21" height="13.9" fill="#D46565"/>
  <rect x="887.0" y="125.0" width="21" height="46.7" fill="#5B8ADB"/>
  <text x="897.5" y="121.0" text-anchor="middle" font-size="8" font-weight="600" class="cb">8.3</text>

  <text x="62.5" y="278" text-anchor="middle" font-size="7.5" class="cs">0</text>
  <text x="86.5" y="278" text-anchor="middle" font-size="7.5" class="cs">1</text>
  <text x="110.5" y="278" text-anchor="middle" font-size="7.5" class="cs">2</text>
  <text x="134.5" y="278" text-anchor="middle" font-size="7.5" class="cs">4</text>
  <text x="171.5" y="278" text-anchor="middle" font-size="7.5" class="cs">0</text>
  <text x="195.5" y="278" text-anchor="middle" font-size="7.5" class="cs">1</text>
  <text x="219.5" y="278" text-anchor="middle" font-size="7.5" class="cs">2</text>
  <text x="243.5" y="278" text-anchor="middle" font-size="7.5" class="cs">4</text>
  <text x="280.5" y="278" text-anchor="middle" font-size="7.5" class="cs">0</text>
  <text x="304.5" y="278" text-anchor="middle" font-size="7.5" class="cs">1</text>
  <text x="328.5" y="278" text-anchor="middle" font-size="7.5" class="cs">2</text>
  <text x="352.5" y="278" text-anchor="middle" font-size="7.5" class="cs">4</text>
  <text x="389.5" y="278" text-anchor="middle" font-size="7.5" class="cs">0</text>
  <text x="413.5" y="278" text-anchor="middle" font-size="7.5" class="cs">1</text>
  <text x="437.5" y="278" text-anchor="middle" font-size="7.5" class="cs">2</text>
  <text x="461.5" y="278" text-anchor="middle" font-size="7.5" class="cs">4</text>
  <text x="498.5" y="278" text-anchor="middle" font-size="7.5" class="cs">0</text>
  <text x="522.5" y="278" text-anchor="middle" font-size="7.5" class="cs">1</text>
  <text x="546.5" y="278" text-anchor="middle" font-size="7.5" class="cs">2</text>
  <text x="570.5" y="278" text-anchor="middle" font-size="7.5" class="cs">4</text>
  <text x="607.5" y="278" text-anchor="middle" font-size="7.5" class="cs">0</text>
  <text x="631.5" y="278" text-anchor="middle" font-size="7.5" class="cs">1</text>
  <text x="655.5" y="278" text-anchor="middle" font-size="7.5" class="cs">2</text>
  <text x="679.5" y="278" text-anchor="middle" font-size="7.5" class="cs">4</text>
  <text x="716.5" y="278" text-anchor="middle" font-size="7.5" class="cs">0</text>
  <text x="740.5" y="278" text-anchor="middle" font-size="7.5" class="cs">1</text>
  <text x="764.5" y="278" text-anchor="middle" font-size="7.5" class="cs">2</text>
  <text x="788.5" y="278" text-anchor="middle" font-size="7.5" class="cs">4</text>
  <text x="825.5" y="278" text-anchor="middle" font-size="7.5" class="cs">0</text>
  <text x="849.5" y="278" text-anchor="middle" font-size="7.5" class="cs">1</text>
  <text x="873.5" y="278" text-anchor="middle" font-size="7.5" class="cs">2</text>
  <text x="897.5" y="278" text-anchor="middle" font-size="7.5" class="cs">4</text>

  <text x="98.5" y="293" text-anchor="middle" font-size="9.5" font-weight="700" class="cp">Tophat</text>
  <text x="98.5" y="306" text-anchor="middle" font-size="8.5" class="mi">ISM</text>
  <text x="207.5" y="293" text-anchor="middle" font-size="9.5" font-weight="700" class="cp">Tophat</text>
  <text x="207.5" y="306" text-anchor="middle" font-size="8.5" class="mw">wind</text>
  <text x="316.5" y="293" text-anchor="middle" font-size="9.5" font-weight="700" class="cp">Two-comp.</text>
  <text x="316.5" y="306" text-anchor="middle" font-size="8.5" class="mi">ISM</text>
  <text x="425.5" y="293" text-anchor="middle" font-size="9.5" font-weight="700" class="cp">Two-comp.</text>
  <text x="425.5" y="306" text-anchor="middle" font-size="8.5" class="mw">wind</text>
  <text x="534.5" y="293" text-anchor="middle" font-size="9.5" font-weight="700" class="cp">Gaussian</text>
  <text x="534.5" y="306" text-anchor="middle" font-size="8.5" class="mi">ISM</text>
  <text x="643.5" y="293" text-anchor="middle" font-size="9.5" font-weight="700" class="cp">Gaussian</text>
  <text x="643.5" y="306" text-anchor="middle" font-size="8.5" class="mw">wind</text>
  <text x="752.5" y="293" text-anchor="middle" font-size="9.5" font-weight="700" class="cp">Power-law</text>
  <text x="752.5" y="306" text-anchor="middle" font-size="8.5" class="mi">ISM</text>
  <text x="861.5" y="293" text-anchor="middle" font-size="9.5" font-weight="700" class="cp">Power-law</text>
  <text x="861.5" y="306" text-anchor="middle" font-size="8.5" class="mw">wind</text>

  <text x="13" y="180" text-anchor="middle" font-size="9" class="cs" transform="rotate(-90, 13, 180)">Wall time (ms)</text>

</svg>
