<?xml version="1.0" encoding="UTF-8"?>
<svg xmlns="http://www.w3.org/2000/svg" viewBox="0 0 950 360"
     font-family="-apple-system, 'Segoe UI', Roboto, 'Helvetica Neue', Arial, sans-serif">

  <!-- Background -->
  <rect width="950" height="360" fill="#0d1117" rx="12"/>

  <!-- Title -->
  <text x="475" y="28" text-anchor="middle" font-size="15" font-weight="700" fill="#E6EDF3" letter-spacing="0.3">Performance · Synchrotron</text>
  <text x="475" y="44" text-anchor="middle" font-size="9" fill="#A8B8CC">CPU time by stage · Apple M2 · single core · default resolution</text>
  <text x="475" y="57" text-anchor="middle" font-size="9" fill="#A8B8CC">each group: θv/θc = 0 │ 1 │ 2 │ 4 (left → right)</text>

  <!-- Legend -->
  <rect x="192" y="67" width="12" height="12" rx="2" fill="#D49B40"/>
  <text x="208" y="78" font-size="10" fill="#D0DDE8">Shock Dynamics</text>
  <rect x="307" y="67" width="12" height="12" rx="2" fill="#4DA5BB"/>
  <text x="323" y="78" font-size="10" fill="#D0DDE8">Equal-Time Grid</text>
  <rect x="428" y="67" width="12" height="12" rx="2" fill="#45AB8A"/>
  <text x="444" y="78" font-size="10" fill="#D0DDE8">Syn. Electrons</text>
  <rect x="543" y="67" width="12" height="12" rx="2" fill="#D46565"/>
  <text x="559" y="78" font-size="10" fill="#D0DDE8">Syn. Photons</text>
  <rect x="646" y="67" width="12" height="12" rx="2" fill="#5B8ADB"/>
  <text x="662" y="78" font-size="10" fill="#D0DDE8">Flux Integration</text>

  <!-- Gridlines -->
  <line x1="52" y1="265" x2="935" y2="265" stroke="#2D3345" stroke-width="1"/>
  <line x1="52" y1="218.1" x2="935" y2="218.1" stroke="#2D3345" stroke-width="1" stroke-dasharray="4,3"/>
  <text x="48" y="222.1" text-anchor="end" font-size="8" fill="#A8B8CC">10 ms</text>
  <line x1="52" y1="171.1" x2="935" y2="171.1" stroke="#2D3345" stroke-width="1" stroke-dasharray="4,3"/>
  <text x="48" y="175.1" text-anchor="end" font-size="8" fill="#A8B8CC">20 ms</text>
  <line x1="52" y1="124.2" x2="935" y2="124.2" stroke="#2D3345" stroke-width="1" stroke-dasharray="4,3"/>
  <text x="48" y="128.2" text-anchor="end" font-size="8" fill="#A8B8CC">30 ms</text>
  <text x="48" y="269" text-anchor="end" font-size="8" fill="#A8B8CC">0</text>

  <!-- Stacked bars -->
  <rect x="52.0" y="264.0" width="21" height="1.0" fill="#D49B40"/>
  <rect x="52.0" y="263.7" width="21" height="0.2" fill="#4DA5BB"/>
  <rect x="52.0" y="263.0" width="21" height="0.7" fill="#45AB8A"/>
  <rect x="52.0" y="262.1" width="21" height="0.9" fill="#D46565"/>
  <rect x="52.0" y="261.6" width="21" height="0.6" fill="#5B8ADB"/>
  <text x="62.5" y="257.0" text-anchor="middle" font-size="8" font-weight="600" fill="#D0DDE8">0.8</text>
  <rect x="76.0" y="262.1" width="21" height="2.9" fill="#D49B40"/>
  <rect x="76.0" y="237.1" width="21" height="24.9" fill="#4DA5BB"/>
  <rect x="76.0" y="236.0" width="21" height="1.1" fill="#45AB8A"/>
  <rect x="76.0" y="233.9" width="21" height="2.1" fill="#D46565"/>
  <rect x="76.0" y="210.2" width="21" height="23.7" fill="#5B8ADB"/>
  <text x="86.5" y="205.3" text-anchor="middle" font-size="8" font-weight="600" fill="#D0DDE8">11.8</text>
  <rect x="100.0" y="264.3" width="21" height="0.7" fill="#D49B40"/>
  <rect x="100.0" y="255.0" width="21" height="9.3" fill="#4DA5BB"/>
  <rect x="100.0" y="254.2" width="21" height="0.8" fill="#45AB8A"/>
  <rect x="100.0" y="253.3" width="21" height="0.9" fill="#D46565"/>
  <rect x="100.0" y="235.0" width="21" height="18.3" fill="#5B8ADB"/>
  <text x="110.5" y="230.3" text-anchor="middle" font-size="8" font-weight="600" fill="#D0DDE8">6.4</text>
  <rect x="124.0" y="264.2" width="21" height="0.8" fill="#D49B40"/>
  <rect x="124.0" y="254.8" width="21" height="9.6" fill="#4DA5BB"/>
  <rect x="124.0" y="254.0" width="21" height="0.7" fill="#45AB8A"/>
  <rect x="124.0" y="253.0" width="21" height="1.1" fill="#D46565"/>
  <rect x="124.0" y="236.3" width="21" height="16.6" fill="#5B8ADB"/>
  <text x="134.5" y="231.4" text-anchor="middle" font-size="8" font-weight="600" fill="#D0DDE8">6.2</text>
  <rect x="161.0" y="264.6" width="21" height="0.4" fill="#D49B40"/>
  <rect x="161.0" y="264.3" width="21" height="0.2" fill="#4DA5BB"/>
  <rect x="161.0" y="263.7" width="21" height="0.6" fill="#45AB8A"/>
  <rect x="161.0" y="262.3" width="21" height="1.3" fill="#D46565"/>
  <rect x="161.0" y="261.8" width="21" height="0.6" fill="#5B8ADB"/>
  <text x="171.5" y="256.8" text-anchor="middle" font-size="8" font-weight="600" fill="#D0DDE8">0.8</text>
  <rect x="185.0" y="264.0" width="21" height="1.0" fill="#D49B40"/>
  <rect x="185.0" y="255.8" width="21" height="8.2" fill="#4DA5BB"/>
  <rect x="185.0" y="255.0" width="21" height="0.8" fill="#45AB8A"/>
  <rect x="185.0" y="253.7" width="21" height="1.3" fill="#D46565"/>
  <rect x="185.0" y="229.3" width="21" height="24.2" fill="#5B8ADB"/>
  <text x="195.5" y="220.6" text-anchor="middle" font-size="8" font-weight="600" fill="#D0DDE8">8.5</text>
  <rect x="209.0" y="264.2" width="21" height="0.8" fill="#D49B40"/>
  <rect x="209.0" y="255.2" width="21" height="9.1" fill="#4DA5BB"/>
  <rect x="209.0" y="254.4" width="21" height="0.7" fill="#45AB8A"/>
  <rect x="209.0" y="253.4" width="21" height="1.0" fill="#D46565"/>
  <rect x="209.0" y="208.1" width="21" height="45.4" fill="#5B8ADB"/>
  <text x="219.5" y="198.2" text-anchor="middle" font-size="8" font-weight="600" fill="#D0DDE8">13.3</text>
  <rect x="233.0" y="264.3" width="21" height="0.7" fill="#D49B40"/>
  <rect x="233.0" y="254.3" width="21" height="9.9" fill="#4DA5BB"/>
  <rect x="233.0" y="253.6" width="21" height="0.8" fill="#45AB8A"/>
  <rect x="233.0" y="252.4" width="21" height="1.1" fill="#D46565"/>
  <rect x="233.0" y="195.0" width="21" height="57.4" fill="#5B8ADB"/>
  <text x="243.5" y="189.1" text-anchor="middle" font-size="8" font-weight="600" fill="#D0DDE8">15.2</text>
  <rect x="270.0" y="264.0" width="21" height="1.0" fill="#D49B40"/>
  <rect x="270.0" y="263.6" width="21" height="0.3" fill="#4DA5BB"/>
  <rect x="270.0" y="262.8" width="21" height="0.9" fill="#45AB8A"/>
  <rect x="270.0" y="261.4" width="21" height="1.3" fill="#D46565"/>
  <rect x="270.0" y="260.7" width="21" height="0.8" fill="#5B8ADB"/>
  <text x="280.5" y="255.2" text-anchor="middle" font-size="8" font-weight="600" fill="#D0DDE8">1.1</text>
  <rect x="294.0" y="263.2" width="21" height="1.8" fill="#D49B40"/>
  <rect x="294.0" y="218.0" width="21" height="45.2" fill="#4DA5BB"/>
  <rect x="294.0" y="216.3" width="21" height="1.7" fill="#45AB8A"/>
  <rect x="294.0" y="194.6" width="21" height="21.8" fill="#D46565"/>
  <rect x="294.0" y="151.3" width="21" height="43.2" fill="#5B8ADB"/>
  <text x="304.5" y="141.0" text-anchor="middle" font-size="8" font-weight="600" fill="#D0DDE8">25.5</text>
  <rect x="318.0" y="263.4" width="21" height="1.6" fill="#D49B40"/>
  <rect x="318.0" y="238.2" width="21" height="25.1" fill="#4DA5BB"/>
  <rect x="318.0" y="236.9" width="21" height="1.3" fill="#45AB8A"/>
  <rect x="318.0" y="235.0" width="21" height="1.9" fill="#D46565"/>
  <rect x="318.0" y="170.1" width="21" height="64.8" fill="#5B8ADB"/>
  <text x="328.5" y="157.6" text-anchor="middle" font-size="8" font-weight="600" fill="#D0DDE8">22.0</text>
  <rect x="342.0" y="260.9" width="21" height="4.1" fill="#D49B40"/>
  <rect x="342.0" y="224.0" width="21" height="37.0" fill="#4DA5BB"/>
  <rect x="342.0" y="222.9" width="21" height="1.0" fill="#45AB8A"/>
  <rect x="342.0" y="221.7" width="21" height="1.3" fill="#D46565"/>
  <rect x="342.0" y="191.0" width="21" height="30.7" fill="#5B8ADB"/>
  <text x="352.5" y="183.0" text-anchor="middle" font-size="8" font-weight="600" fill="#D0DDE8">16.5</text>
  <rect x="379.0" y="264.1" width="21" height="0.9" fill="#D49B40"/>
  <rect x="379.0" y="263.7" width="21" height="0.3" fill="#4DA5BB"/>
  <rect x="379.0" y="262.7" width="21" height="1.0" fill="#45AB8A"/>
  <rect x="379.0" y="261.1" width="21" height="1.6" fill="#D46565"/>
  <rect x="379.0" y="260.2" width="21" height="0.9" fill="#5B8ADB"/>
  <text x="389.5" y="253.1" text-anchor="middle" font-size="8" font-weight="600" fill="#D0DDE8">1.6</text>
  <rect x="403.0" y="263.1" width="21" height="1.9" fill="#D49B40"/>
  <rect x="403.0" y="220.1" width="21" height="43.0" fill="#4DA5BB"/>
  <rect x="403.0" y="218.8" width="21" height="1.3" fill="#45AB8A"/>
  <rect x="403.0" y="216.8" width="21" height="1.9" fill="#D46565"/>
  <rect x="403.0" y="147.0" width="21" height="69.8" fill="#5B8ADB"/>
  <text x="413.5" y="135.9" text-anchor="middle" font-size="8" font-weight="600" fill="#D0DDE8">26.6</text>
  <rect x="427.0" y="261.4" width="21" height="3.6" fill="#D49B40"/>
  <rect x="427.0" y="240.4" width="21" height="21.0" fill="#4DA5BB"/>
  <rect x="427.0" y="239.3" width="21" height="1.1" fill="#45AB8A"/>
  <rect x="427.0" y="237.9" width="21" height="1.4" fill="#D46565"/>
  <rect x="427.0" y="205.2" width="21" height="32.7" fill="#5B8ADB"/>
  <text x="437.5" y="175.4" text-anchor="middle" font-size="8" font-weight="600" fill="#D0DDE8">18.1</text>
  <rect x="451.0" y="263.1" width="21" height="1.9" fill="#D49B40"/>
  <rect x="451.0" y="244.9" width="21" height="18.2" fill="#4DA5BB"/>
  <rect x="451.0" y="243.9" width="21" height="1.0" fill="#45AB8A"/>
  <rect x="451.0" y="242.3" width="21" height="1.6" fill="#D46565"/>
  <rect x="451.0" y="172.2" width="21" height="70.2" fill="#5B8ADB"/>
  <text x="461.5" y="162.4" text-anchor="middle" font-size="8" font-weight="600" fill="#D0DDE8">20.9</text>
  <rect x="488.0" y="257.8" width="21" height="7.2" fill="#D49B40"/>
  <rect x="488.0" y="257.4" width="21" height="0.3" fill="#4DA5BB"/>
  <rect x="488.0" y="255.9" width="21" height="1.6" fill="#45AB8A"/>
  <rect x="488.0" y="254.4" width="21" height="1.6" fill="#D46565"/>
  <rect x="488.0" y="253.8" width="21" height="0.7" fill="#5B8ADB"/>
  <text x="498.5" y="247.2" text-anchor="middle" font-size="8" font-weight="600" fill="#D0DDE8">2.8</text>
  <rect x="512.0" y="238.4" width="21" height="26.6" fill="#D49B40"/>
  <rect x="512.0" y="219.6" width="21" height="19.0" fill="#4DA5BB"/>
  <rect x="512.0" y="217.7" width="21" height="1.9" fill="#45AB8A"/>
  <rect x="512.0" y="215.9" width="21" height="1.8" fill="#D46565"/>
  <rect x="512.0" y="137.6" width="21" height="78.3" fill="#5B8ADB"/>
  <text x="522.5" y="129.6" text-anchor="middle" font-size="8" font-weight="600" fill="#D0DDE8">27.9</text>
  <rect x="536.0" y="257.9" width="21" height="7.1" fill="#D49B40"/>
  <rect x="536.0" y="245.8" width="21" height="12.1" fill="#4DA5BB"/>
  <rect x="536.0" y="244.1" width="21" height="1.7" fill="#45AB8A"/>
  <rect x="536.0" y="241.0" width="21" height="3.1" fill="#D46565"/>
  <rect x="536.0" y="186.4" width="21" height="54.4" fill="#5B8ADB"/>
  <text x="546.5" y="178.4" text-anchor="middle" font-size="8" font-weight="600" fill="#D0DDE8">17.5</text>
  <rect x="560.0" y="249.0" width="21" height="16.0" fill="#D49B40"/>
  <rect x="560.0" y="231.8" width="21" height="17.1" fill="#4DA5BB"/>
  <rect x="560.0" y="230.2" width="21" height="1.7" fill="#45AB8A"/>
  <rect x="560.0" y="228.4" width="21" height="1.8" fill="#D46565"/>
  <rect x="560.0" y="209.3" width="21" height="19.1" fill="#5B8ADB"/>
  <text x="570.5" y="200.8" text-anchor="middle" font-size="8" font-weight="600" fill="#D0DDE8">12.7</text>
  <rect x="597.0" y="256.0" width="21" height="9.0" fill="#D49B40"/>
  <rect x="597.0" y="255.8" width="21" height="0.3" fill="#4DA5BB"/>
  <rect x="597.0" y="254.0" width="21" height="1.7" fill="#45AB8A"/>
  <rect x="597.0" y="252.6" width="21" height="1.6" fill="#D46565"/>
  <rect x="597.0" y="251.8" width="21" height="0.7" fill="#5B8ADB"/>
  <text x="607.5" y="245.8" text-anchor="middle" font-size="8" font-weight="600" fill="#D0DDE8">3.2</text>
  <rect x="621.0" y="254.7" width="21" height="10.3" fill="#D49B40"/>
  <rect x="621.0" y="220.2" width="21" height="34.3" fill="#4DA5BB"/>
  <rect x="621.0" y="215.8" width="21" height="4.4" fill="#45AB8A"/>
  <rect x="621.0" y="211.2" width="21" height="4.6" fill="#D46565"/>
  <rect x="621.0" y="145.8" width="21" height="65.4" fill="#5B8ADB"/>
  <text x="631.5" y="137.2" text-anchor="middle" font-size="8" font-weight="600" fill="#D0DDE8">26.3</text>
  <rect x="645.0" y="255.9" width="21" height="9.1" fill="#D49B40"/>
  <rect x="645.0" y="228.9" width="21" height="27.0" fill="#4DA5BB"/>
  <rect x="645.0" y="224.3" width="21" height="4.4" fill="#45AB8A"/>
  <rect x="645.0" y="221.2" width="21" height="3.1" fill="#D46565"/>
  <rect x="645.0" y="180.3" width="21" height="40.9" fill="#5B8ADB"/>
  <text x="655.5" y="171.2" text-anchor="middle" font-size="8" font-weight="600" fill="#D0DDE8">19.0</text>
  <rect x="669.0" y="250.8" width="21" height="14.2" fill="#D49B40"/>
  <rect x="669.0" y="238.3" width="21" height="12.4" fill="#4DA5BB"/>
  <rect x="669.0" y="236.4" width="21" height="2.0" fill="#45AB8A"/>
  <rect x="669.0" y="234.7" width="21" height="1.8" fill="#D46565"/>
  <rect x="669.0" y="208.7" width="21" height="26.0" fill="#5B8ADB"/>
  <text x="679.5" y="201.4" text-anchor="middle" font-size="8" font-weight="600" fill="#D0DDE8">12.6</text>
  <rect x="706.0" y="255.6" width="21" height="9.4" fill="#D49B40"/>
  <rect x="706.0" y="255.1" width="21" height="0.4" fill="#4DA5BB"/>
  <rect x="706.0" y="253.0" width="21" height="2.1" fill="#45AB8A"/>
  <rect x="706.0" y="251.1" width="21" height="2.0" fill="#D46565"/>
  <rect x="706.0" y="250.2" width="21" height="0.9" fill="#5B8ADB"/>
  <text x="716.5" y="242.9" text-anchor="middle" font-size="8" font-weight="600" fill="#D0DDE8">3.8</text>
  <rect x="730.0" y="244.1" width="21" height="20.9" fill="#D49B40"/>
  <rect x="730.0" y="211.9" width="21" height="32.2" fill="#4DA5BB"/>
  <rect x="730.0" y="209.8" width="21" height="2.2" fill="#45AB8A"/>
  <rect x="730.0" y="207.3" width="21" height="2.4" fill="#D46565"/>
  <rect x="730.0" y="138.0" width="21" height="69.3" fill="#5B8ADB"/>
  <text x="740.5" y="125.7" text-anchor="middle" font-size="8" font-weight="600" fill="#D0DDE8">28.7</text>
  <rect x="754.0" y="253.1" width="21" height="11.9" fill="#D49B40"/>
  <rect x="754.0" y="230.9" width="21" height="22.2" fill="#4DA5BB"/>
  <rect x="754.0" y="228.4" width="21" height="2.4" fill="#45AB8A"/>
  <rect x="754.0" y="226.0" width="21" height="2.4" fill="#D46565"/>
  <rect x="754.0" y="147.6" width="21" height="78.4" fill="#5B8ADB"/>
  <text x="764.5" y="135.8" text-anchor="middle" font-size="8" font-weight="600" fill="#D0DDE8">26.6</text>
  <rect x="778.0" y="254.3" width="21" height="10.7" fill="#D49B40"/>
  <rect x="778.0" y="227.9" width="21" height="26.4" fill="#4DA5BB"/>
  <rect x="778.0" y="222.7" width="21" height="5.1" fill="#45AB8A"/>
  <rect x="778.0" y="218.7" width="21" height="4.0" fill="#D46565"/>
  <rect x="778.0" y="151.6" width="21" height="67.2" fill="#5B8ADB"/>
  <text x="788.5" y="144.2" text-anchor="middle" font-size="8" font-weight="600" fill="#D0DDE8">24.8</text>
  <rect x="815.0" y="251.0" width="21" height="14.0" fill="#D49B40"/>
  <rect x="815.0" y="250.0" width="21" height="1.1" fill="#4DA5BB"/>
  <rect x="815.0" y="244.7" width="21" height="5.3" fill="#45AB8A"/>
  <rect x="815.0" y="241.0" width="21" height="3.7" fill="#D46565"/>
  <rect x="815.0" y="237.8" width="21" height="3.2" fill="#5B8ADB"/>
  <text x="825.5" y="230.2" text-anchor="middle" font-size="8" font-weight="600" fill="#D0DDE8">6.5</text>
  <rect x="839.0" y="242.2" width="21" height="22.8" fill="#D49B40"/>
  <rect x="839.0" y="189.2" width="21" height="53.0" fill="#4DA5BB"/>
  <rect x="839.0" y="186.8" width="21" height="2.4" fill="#45AB8A"/>
  <rect x="839.0" y="184.4" width="21" height="2.4" fill="#D46565"/>
  <rect x="839.0" y="114.7" width="21" height="69.8" fill="#5B8ADB"/>
  <text x="849.5" y="106.0" text-anchor="middle" font-size="8" font-weight="600" fill="#D0DDE8">32.9</text>
  <rect x="863.0" y="243.1" width="21" height="21.9" fill="#D49B40"/>
  <rect x="863.0" y="198.6" width="21" height="44.4" fill="#4DA5BB"/>
  <rect x="863.0" y="196.2" width="21" height="2.3" fill="#45AB8A"/>
  <rect x="863.0" y="193.7" width="21" height="2.6" fill="#D46565"/>
  <rect x="863.0" y="130.6" width="21" height="63.1" fill="#5B8ADB"/>
  <text x="873.5" y="121.4" text-anchor="middle" font-size="8" font-weight="600" fill="#D0DDE8">29.6</text>
  <rect x="887.0" y="241.3" width="21" height="23.7" fill="#D49B40"/>
  <rect x="887.0" y="209.3" width="21" height="32.0" fill="#4DA5BB"/>
  <rect x="887.0" y="206.8" width="21" height="2.4" fill="#45AB8A"/>
  <rect x="887.0" y="204.1" width="21" height="2.8" fill="#D46565"/>
  <rect x="887.0" y="154.1" width="21" height="49.9" fill="#5B8ADB"/>
  <text x="897.5" y="146.0" text-anchor="middle" font-size="8" font-weight="600" fill="#D0DDE8">24.4</text>

  <!-- Angle labels -->
  <text x="62.5" y="278" text-anchor="middle" font-size="7.5" fill="#A8B8CC">0</text>
  <text x="86.5" y="278" text-anchor="middle" font-size="7.5" fill="#A8B8CC">1</text>
  <text x="110.5" y="278" text-anchor="middle" font-size="7.5" fill="#A8B8CC">2</text>
  <text x="134.5" y="278" text-anchor="middle" font-size="7.5" fill="#A8B8CC">4</text>
  <text x="171.5" y="278" text-anchor="middle" font-size="7.5" fill="#A8B8CC">0</text>
  <text x="195.5" y="278" text-anchor="middle" font-size="7.5" fill="#A8B8CC">1</text>
  <text x="219.5" y="278" text-anchor="middle" font-size="7.5" fill="#A8B8CC">2</text>
  <text x="243.5" y="278" text-anchor="middle" font-size="7.5" fill="#A8B8CC">4</text>
  <text x="280.5" y="278" text-anchor="middle" font-size="7.5" fill="#A8B8CC">0</text>
  <text x="304.5" y="278" text-anchor="middle" font-size="7.5" fill="#A8B8CC">1</text>
  <text x="328.5" y="278" text-anchor="middle" font-size="7.5" fill="#A8B8CC">2</text>
  <text x="352.5" y="278" text-anchor="middle" font-size="7.5" fill="#A8B8CC">4</text>
  <text x="389.5" y="278" text-anchor="middle" font-size="7.5" fill="#A8B8CC">0</text>
  <text x="413.5" y="278" text-anchor="middle" font-size="7.5" fill="#A8B8CC">1</text>
  <text x="437.5" y="278" text-anchor="middle" font-size="7.5" fill="#A8B8CC">2</text>
  <text x="461.5" y="278" text-anchor="middle" font-size="7.5" fill="#A8B8CC">4</text>
  <text x="498.5" y="278" text-anchor="middle" font-size="7.5" fill="#A8B8CC">0</text>
  <text x="522.5" y="278" text-anchor="middle" font-size="7.5" fill="#A8B8CC">1</text>
  <text x="546.5" y="278" text-anchor="middle" font-size="7.5" fill="#A8B8CC">2</text>
  <text x="570.5" y="278" text-anchor="middle" font-size="7.5" fill="#A8B8CC">4</text>
  <text x="607.5" y="278" text-anchor="middle" font-size="7.5" fill="#A8B8CC">0</text>
  <text x="631.5" y="278" text-anchor="middle" font-size="7.5" fill="#A8B8CC">1</text>
  <text x="655.5" y="278" text-anchor="middle" font-size="7.5" fill="#A8B8CC">2</text>
  <text x="679.5" y="278" text-anchor="middle" font-size="7.5" fill="#A8B8CC">4</text>
  <text x="716.5" y="278" text-anchor="middle" font-size="7.5" fill="#A8B8CC">0</text>
  <text x="740.5" y="278" text-anchor="middle" font-size="7.5" fill="#A8B8CC">1</text>
  <text x="764.5" y="278" text-anchor="middle" font-size="7.5" fill="#A8B8CC">2</text>
  <text x="788.5" y="278" text-anchor="middle" font-size="7.5" fill="#A8B8CC">4</text>
  <text x="825.5" y="278" text-anchor="middle" font-size="7.5" fill="#A8B8CC">0</text>
  <text x="849.5" y="278" text-anchor="middle" font-size="7.5" fill="#A8B8CC">1</text>
  <text x="873.5" y="278" text-anchor="middle" font-size="7.5" fill="#A8B8CC">2</text>
  <text x="897.5" y="278" text-anchor="middle" font-size="7.5" fill="#A8B8CC">4</text>

  <!-- Group labels -->
  <text x="98.5" y="293" text-anchor="middle" font-size="9.5" font-weight="700" fill="#E6EDF3">Tophat</text>
  <text x="98.5" y="306" text-anchor="middle" font-size="8.5" fill="#5B8ADB">ISM</text>
  <text x="207.5" y="293" text-anchor="middle" font-size="9.5" font-weight="700" fill="#E6EDF3">Tophat</text>
  <text x="207.5" y="306" text-anchor="middle" font-size="8.5" fill="#45AB8A">wind</text>
  <text x="316.5" y="293" text-anchor="middle" font-size="9.5" font-weight="700" fill="#E6EDF3">Two-comp.</text>
  <text x="316.5" y="306" text-anchor="middle" font-size="8.5" fill="#5B8ADB">ISM</text>
  <text x="425.5" y="293" text-anchor="middle" font-size="9.5" font-weight="700" fill="#E6EDF3">Two-comp.</text>
  <text x="425.5" y="306" text-anchor="middle" font-size="8.5" fill="#45AB8A">wind</text>
  <text x="534.5" y="293" text-anchor="middle" font-size="9.5" font-weight="700" fill="#E6EDF3">Gaussian</text>
  <text x="534.5" y="306" text-anchor="middle" font-size="8.5" fill="#5B8ADB">ISM</text>
  <text x="643.5" y="293" text-anchor="middle" font-size="9.5" font-weight="700" fill="#E6EDF3">Gaussian</text>
  <text x="643.5" y="306" text-anchor="middle" font-size="8.5" fill="#45AB8A">wind</text>
  <text x="752.5" y="293" text-anchor="middle" font-size="9.5" font-weight="700" fill="#E6EDF3">Power-law</text>
  <text x="752.5" y="306" text-anchor="middle" font-size="8.5" fill="#5B8ADB">ISM</text>
  <text x="861.5" y="293" text-anchor="middle" font-size="9.5" font-weight="700" fill="#E6EDF3">Power-law</text>
  <text x="861.5" y="306" text-anchor="middle" font-size="8.5" fill="#45AB8A">wind</text>

  <!-- Y-axis label -->
  <text x="13" y="180" text-anchor="middle" font-size="9" fill="#A8B8CC" transform="rotate(-90, 13, 180)">Wall time (ms)</text>

</svg>
