<?xml version="1.0" encoding="UTF-8"?>
<svg xmlns="http://www.w3.org/2000/svg" viewBox="0 0 950 360"
     font-family="-apple-system, 'Segoe UI', Roboto, 'Helvetica Neue', Arial, sans-serif">

  <rect width="950" height="360" fill="#0d1117" rx="12"/>

  <text x="475" y="28" text-anchor="middle" font-size="15" font-weight="700" fill="#E6EDF3" letter-spacing="0.3">Performance · Synchrotron</text>
  <text x="475" y="44" text-anchor="middle" font-size="9" fill="#A8B8CC">CPU time by stage · Apple M2 · single core · default resolution</text>
  <text x="475" y="57" text-anchor="middle" font-size="9" fill="#A8B8CC">each group: θv/θc = 0 │ 1 │ 2 │ 4 (left → right)</text>

  <rect x="213" y="67" width="12" height="12" rx="2" fill="#D49B40"/>
  <text x="229" y="78" font-size="10" fill="#D0DDE8">Shock Dynamics</text>
  <rect x="328" y="67" width="12" height="12" rx="2" fill="#4DA5BB"/>
  <text x="344" y="78" font-size="10" fill="#D0DDE8">EAT Grid</text>
  <rect x="407" y="67" width="12" height="12" rx="2" fill="#45AB8A"/>
  <text x="423" y="78" font-size="10" fill="#D0DDE8">Syn. Electrons</text>
  <rect x="522" y="67" width="12" height="12" rx="2" fill="#D46565"/>
  <text x="538" y="78" font-size="10" fill="#D0DDE8">Syn. Photons</text>
  <rect x="625" y="67" width="12" height="12" rx="2" fill="#5B8ADB"/>
  <text x="641" y="78" font-size="10" fill="#D0DDE8">Flux Integration</text>

  <line x1="52" y1="265" x2="935" y2="265" stroke="#2D3345" stroke-width="1"/>
  <line x1="52" y1="222.8" x2="935" y2="222.8" stroke="#2D3345" stroke-width="1" stroke-dasharray="4,3"/>
  <text x="48" y="226.8" text-anchor="end" font-size="8" fill="#A8B8CC">5 ms</text>
  <line x1="52" y1="180.5" x2="935" y2="180.5" stroke="#2D3345" stroke-width="1" stroke-dasharray="4,3"/>
  <text x="48" y="184.5" text-anchor="end" font-size="8" fill="#A8B8CC">10 ms</text>
  <line x1="52" y1="138.2" x2="935" y2="138.2" stroke="#2D3345" stroke-width="1" stroke-dasharray="4,3"/>
  <text x="48" y="142.2" text-anchor="end" font-size="8" fill="#A8B8CC">15 ms</text>
  <line x1="52" y1="96.0" x2="935" y2="96.0" stroke="#2D3345" stroke-width="1" stroke-dasharray="4,3"/>
  <text x="48" y="100.0" text-anchor="end" font-size="8" fill="#A8B8CC">20 ms</text>
  <text x="48" y="269" text-anchor="end" font-size="8" fill="#A8B8CC">0</text>

  <rect x="52.0" y="264.2" width="21" height="0.8" fill="#D49B40"/>
  <rect x="52.0" y="263.7" width="21" height="0.5" fill="#4DA5BB"/>
  <rect x="52.0" y="262.7" width="21" height="1.1" fill="#45AB8A"/>
  <rect x="52.0" y="261.0" width="21" height="1.7" fill="#D46565"/>
  <rect x="52.0" y="260.1" width="21" height="0.9" fill="#5B8ADB"/>
  <text x="62.5" y="256.1" text-anchor="middle" font-size="8" font-weight="600" fill="#D0DDE8">0.6</text>
  <rect x="76.0" y="263.3" width="21" height="1.7" fill="#D49B40"/>
  <rect x="76.0" y="247.9" width="21" height="15.4" fill="#4DA5BB"/>
  <rect x="76.0" y="246.5" width="21" height="1.3" fill="#45AB8A"/>
  <rect x="76.0" y="244.7" width="21" height="1.8" fill="#D46565"/>
  <rect x="76.0" y="212.8" width="21" height="31.9" fill="#5B8ADB"/>
  <text x="86.5" y="208.8" text-anchor="middle" font-size="8" font-weight="600" fill="#D0DDE8">6.2</text>
  <rect x="100.0" y="263.9" width="21" height="1.1" fill="#D49B40"/>
  <rect x="100.0" y="248.2" width="21" height="15.7" fill="#4DA5BB"/>
  <rect x="100.0" y="246.7" width="21" height="1.5" fill="#45AB8A"/>
  <rect x="100.0" y="244.8" width="21" height="1.9" fill="#D46565"/>
  <rect x="100.0" y="210.4" width="21" height="34.4" fill="#5B8ADB"/>
  <text x="110.5" y="206.4" text-anchor="middle" font-size="8" font-weight="600" fill="#D0DDE8">6.5</text>
  <rect x="124.0" y="263.5" width="21" height="1.5" fill="#D49B40"/>
  <rect x="124.0" y="243.6" width="21" height="19.9" fill="#4DA5BB"/>
  <rect x="124.0" y="241.9" width="21" height="1.8" fill="#45AB8A"/>
  <rect x="124.0" y="239.7" width="21" height="2.2" fill="#D46565"/>
  <rect x="124.0" y="203.6" width="21" height="36.1" fill="#5B8ADB"/>
  <text x="134.5" y="199.6" text-anchor="middle" font-size="8" font-weight="600" fill="#D0DDE8">7.3</text>
  <rect x="161.0" y="264.2" width="21" height="0.8" fill="#D49B40"/>
  <rect x="161.0" y="263.7" width="21" height="0.4" fill="#4DA5BB"/>
  <rect x="161.0" y="262.6" width="21" height="1.1" fill="#45AB8A"/>
  <rect x="161.0" y="261.0" width="21" height="1.6" fill="#D46565"/>
  <rect x="161.0" y="260.1" width="21" height="0.9" fill="#5B8ADB"/>
  <text x="171.5" y="256.1" text-anchor="middle" font-size="8" font-weight="600" fill="#D0DDE8">0.6</text>
  <rect x="185.0" y="263.2" width="21" height="1.8" fill="#D49B40"/>
  <rect x="185.0" y="248.4" width="21" height="14.8" fill="#4DA5BB"/>
  <rect x="185.0" y="247.2" width="21" height="1.2" fill="#45AB8A"/>
  <rect x="185.0" y="245.5" width="21" height="1.8" fill="#D46565"/>
  <rect x="185.0" y="211.3" width="21" height="34.2" fill="#5B8ADB"/>
  <text x="195.5" y="207.3" text-anchor="middle" font-size="8" font-weight="600" fill="#D0DDE8">6.4</text>
  <rect x="209.0" y="263.8" width="21" height="1.2" fill="#D49B40"/>
  <rect x="209.0" y="247.1" width="21" height="16.7" fill="#4DA5BB"/>
  <rect x="209.0" y="245.7" width="21" height="1.4" fill="#45AB8A"/>
  <rect x="209.0" y="243.8" width="21" height="2.0" fill="#D46565"/>
  <rect x="209.0" y="205.0" width="21" height="38.7" fill="#5B8ADB"/>
  <text x="219.5" y="201.0" text-anchor="middle" font-size="8" font-weight="600" fill="#D0DDE8">7.1</text>
  <rect x="233.0" y="263.8" width="21" height="1.2" fill="#D49B40"/>
  <rect x="233.0" y="244.6" width="21" height="19.2" fill="#4DA5BB"/>
  <rect x="233.0" y="243.6" width="21" height="0.9" fill="#45AB8A"/>
  <rect x="233.0" y="241.4" width="21" height="2.2" fill="#D46565"/>
  <rect x="233.0" y="199.5" width="21" height="41.9" fill="#5B8ADB"/>
  <text x="243.5" y="195.5" text-anchor="middle" font-size="8" font-weight="600" fill="#D0DDE8">7.7</text>
  <rect x="270.0" y="263.9" width="21" height="1.1" fill="#D49B40"/>
  <rect x="270.0" y="263.4" width="21" height="0.5" fill="#4DA5BB"/>
  <rect x="270.0" y="262.0" width="21" height="1.4" fill="#45AB8A"/>
  <rect x="270.0" y="260.3" width="21" height="1.8" fill="#D46565"/>
  <rect x="270.0" y="259.3" width="21" height="1.0" fill="#5B8ADB"/>
  <text x="280.5" y="255.3" text-anchor="middle" font-size="8" font-weight="600" fill="#D0DDE8">0.7</text>
  <rect x="294.0" y="262.7" width="21" height="2.3" fill="#D49B40"/>
  <rect x="294.0" y="237.2" width="21" height="25.6" fill="#4DA5BB"/>
  <rect x="294.0" y="235.6" width="21" height="1.5" fill="#45AB8A"/>
  <rect x="294.0" y="233.6" width="21" height="2.0" fill="#D46565"/>
  <rect x="294.0" y="174.6" width="21" height="59.0" fill="#5B8ADB"/>
  <text x="304.5" y="170.6" text-anchor="middle" font-size="8" font-weight="600" fill="#D0DDE8">10.7</text>
  <rect x="318.0" y="262.8" width="21" height="2.2" fill="#D49B40"/>
  <rect x="318.0" y="244.9" width="21" height="17.9" fill="#4DA5BB"/>
  <rect x="318.0" y="243.3" width="21" height="1.6" fill="#45AB8A"/>
  <rect x="318.0" y="241.0" width="21" height="2.3" fill="#D46565"/>
  <rect x="318.0" y="205.1" width="21" height="35.9" fill="#5B8ADB"/>
  <text x="328.5" y="201.1" text-anchor="middle" font-size="8" font-weight="600" fill="#D0DDE8">7.1</text>
  <rect x="342.0" y="262.5" width="21" height="2.5" fill="#D49B40"/>
  <rect x="342.0" y="239.9" width="21" height="22.6" fill="#4DA5BB"/>
  <rect x="342.0" y="238.1" width="21" height="1.7" fill="#45AB8A"/>
  <rect x="342.0" y="235.8" width="21" height="2.3" fill="#D46565"/>
  <rect x="342.0" y="191.0" width="21" height="44.8" fill="#5B8ADB"/>
  <text x="352.5" y="187.0" text-anchor="middle" font-size="8" font-weight="600" fill="#D0DDE8">8.8</text>
  <rect x="379.0" y="263.5" width="21" height="1.5" fill="#D49B40"/>
  <rect x="379.0" y="263.0" width="21" height="0.6" fill="#4DA5BB"/>
  <rect x="379.0" y="261.2" width="21" height="1.8" fill="#45AB8A"/>
  <rect x="379.0" y="258.7" width="21" height="2.5" fill="#D46565"/>
  <rect x="379.0" y="257.6" width="21" height="1.1" fill="#5B8ADB"/>
  <text x="389.5" y="253.6" text-anchor="middle" font-size="8" font-weight="600" fill="#D0DDE8">0.9</text>
  <rect x="403.0" y="262.6" width="21" height="2.4" fill="#D49B40"/>
  <rect x="403.0" y="236.6" width="21" height="26.0" fill="#4DA5BB"/>
  <rect x="403.0" y="235.1" width="21" height="1.5" fill="#45AB8A"/>
  <rect x="403.0" y="232.8" width="21" height="2.2" fill="#D46565"/>
  <rect x="403.0" y="166.7" width="21" height="66.1" fill="#5B8ADB"/>
  <text x="413.5" y="162.7" text-anchor="middle" font-size="8" font-weight="600" fill="#D0DDE8">11.6</text>
  <rect x="427.0" y="262.6" width="21" height="2.4" fill="#D49B40"/>
  <rect x="427.0" y="243.9" width="21" height="18.7" fill="#4DA5BB"/>
  <rect x="427.0" y="241.8" width="21" height="2.1" fill="#45AB8A"/>
  <rect x="427.0" y="239.0" width="21" height="2.7" fill="#D46565"/>
  <rect x="427.0" y="200.4" width="21" height="38.6" fill="#5B8ADB"/>
  <text x="437.5" y="196.4" text-anchor="middle" font-size="8" font-weight="600" fill="#D0DDE8">7.6</text>
  <rect x="451.0" y="262.7" width="21" height="2.3" fill="#D49B40"/>
  <rect x="451.0" y="238.9" width="21" height="23.8" fill="#4DA5BB"/>
  <rect x="451.0" y="238.1" width="21" height="0.8" fill="#45AB8A"/>
  <rect x="451.0" y="235.5" width="21" height="2.6" fill="#D46565"/>
  <rect x="451.0" y="184.6" width="21" height="50.9" fill="#5B8ADB"/>
  <text x="461.5" y="180.6" text-anchor="middle" font-size="8" font-weight="600" fill="#D0DDE8">9.5</text>
  <rect x="488.0" y="253.5" width="21" height="11.5" fill="#D49B40"/>
  <rect x="488.0" y="252.9" width="21" height="0.5" fill="#4DA5BB"/>
  <rect x="488.0" y="250.3" width="21" height="2.6" fill="#45AB8A"/>
  <rect x="488.0" y="247.5" width="21" height="2.8" fill="#D46565"/>
  <rect x="488.0" y="246.5" width="21" height="1.0" fill="#5B8ADB"/>
  <text x="498.5" y="242.5" text-anchor="middle" font-size="8" font-weight="600" fill="#D0DDE8">2.2</text>
  <rect x="512.0" y="250.5" width="21" height="14.5" fill="#D49B40"/>
  <rect x="512.0" y="215.5" width="21" height="35.0" fill="#4DA5BB"/>
  <rect x="512.0" y="212.4" width="21" height="3.2" fill="#45AB8A"/>
  <rect x="512.0" y="209.3" width="21" height="3.1" fill="#D46565"/>
  <rect x="512.0" y="138.0" width="21" height="71.3" fill="#5B8ADB"/>
  <text x="522.5" y="134.0" text-anchor="middle" font-size="8" font-weight="600" fill="#D0DDE8">15.0</text>
  <rect x="536.0" y="252.1" width="21" height="12.9" fill="#D49B40"/>
  <rect x="536.0" y="229.6" width="21" height="22.6" fill="#4DA5BB"/>
  <rect x="536.0" y="226.4" width="21" height="3.1" fill="#45AB8A"/>
  <rect x="536.0" y="223.3" width="21" height="3.2" fill="#D46565"/>
  <rect x="536.0" y="180.7" width="21" height="42.5" fill="#5B8ADB"/>
  <text x="546.5" y="176.7" text-anchor="middle" font-size="8" font-weight="600" fill="#D0DDE8">10.0</text>
  <rect x="560.0" y="252.6" width="21" height="12.4" fill="#D49B40"/>
  <rect x="560.0" y="230.2" width="21" height="22.4" fill="#4DA5BB"/>
  <rect x="560.0" y="226.8" width="21" height="3.4" fill="#45AB8A"/>
  <rect x="560.0" y="223.7" width="21" height="3.0" fill="#D46565"/>
  <rect x="560.0" y="189.1" width="21" height="34.6" fill="#5B8ADB"/>
  <text x="570.5" y="185.1" text-anchor="middle" font-size="8" font-weight="600" fill="#D0DDE8">9.0</text>
  <rect x="597.0" y="252.4" width="21" height="12.6" fill="#D49B40"/>
  <rect x="597.0" y="252.0" width="21" height="0.5" fill="#4DA5BB"/>
  <rect x="597.0" y="249.4" width="21" height="2.5" fill="#45AB8A"/>
  <rect x="597.0" y="247.3" width="21" height="2.1" fill="#D46565"/>
  <rect x="597.0" y="246.3" width="21" height="1.0" fill="#5B8ADB"/>
  <text x="607.5" y="242.3" text-anchor="middle" font-size="8" font-weight="600" fill="#D0DDE8">2.2</text>
  <rect x="621.0" y="249.3" width="21" height="15.7" fill="#D49B40"/>
  <rect x="621.0" y="217.7" width="21" height="31.5" fill="#4DA5BB"/>
  <rect x="621.0" y="214.8" width="21" height="2.9" fill="#45AB8A"/>
  <rect x="621.0" y="212.1" width="21" height="2.7" fill="#D46565"/>
  <rect x="621.0" y="142.2" width="21" height="69.9" fill="#5B8ADB"/>
  <text x="631.5" y="138.2" text-anchor="middle" font-size="8" font-weight="600" fill="#D0DDE8">14.5</text>
  <rect x="645.0" y="251.4" width="21" height="13.6" fill="#D49B40"/>
  <rect x="645.0" y="231.6" width="21" height="19.8" fill="#4DA5BB"/>
  <rect x="645.0" y="228.9" width="21" height="2.7" fill="#45AB8A"/>
  <rect x="645.0" y="226.4" width="21" height="2.5" fill="#D46565"/>
  <rect x="645.0" y="179.8" width="21" height="46.5" fill="#5B8ADB"/>
  <text x="655.5" y="175.8" text-anchor="middle" font-size="8" font-weight="600" fill="#D0DDE8">10.1</text>
  <rect x="669.0" y="251.6" width="21" height="13.4" fill="#D49B40"/>
  <rect x="669.0" y="231.6" width="21" height="20.0" fill="#4DA5BB"/>
  <rect x="669.0" y="228.3" width="21" height="3.3" fill="#45AB8A"/>
  <rect x="669.0" y="225.7" width="21" height="2.5" fill="#D46565"/>
  <rect x="669.0" y="184.6" width="21" height="41.1" fill="#5B8ADB"/>
  <text x="679.5" y="180.6" text-anchor="middle" font-size="8" font-weight="600" fill="#D0DDE8">9.5</text>
  <rect x="706.0" y="252.0" width="21" height="13.0" fill="#D49B40"/>
  <rect x="706.0" y="251.4" width="21" height="0.6" fill="#4DA5BB"/>
  <rect x="706.0" y="248.5" width="21" height="3.0" fill="#45AB8A"/>
  <rect x="706.0" y="246.0" width="21" height="2.4" fill="#D46565"/>
  <rect x="706.0" y="244.8" width="21" height="1.2" fill="#5B8ADB"/>
  <text x="716.5" y="240.8" text-anchor="middle" font-size="8" font-weight="600" fill="#D0DDE8">2.4</text>
  <rect x="730.0" y="247.7" width="21" height="17.3" fill="#D49B40"/>
  <rect x="730.0" y="210.3" width="21" height="37.4" fill="#4DA5BB"/>
  <rect x="730.0" y="206.5" width="21" height="3.7" fill="#45AB8A"/>
  <rect x="730.0" y="202.9" width="21" height="3.6" fill="#D46565"/>
  <rect x="730.0" y="129.8" width="21" height="73.1" fill="#5B8ADB"/>
  <text x="740.5" y="125.8" text-anchor="middle" font-size="8" font-weight="600" fill="#D0DDE8">16.0</text>
  <rect x="754.0" y="248.5" width="21" height="16.5" fill="#D49B40"/>
  <rect x="754.0" y="213.8" width="21" height="34.7" fill="#4DA5BB"/>
  <rect x="754.0" y="209.6" width="21" height="4.2" fill="#45AB8A"/>
  <rect x="754.0" y="206.0" width="21" height="3.5" fill="#D46565"/>
  <rect x="754.0" y="144.0" width="21" height="62.1" fill="#5B8ADB"/>
  <text x="764.5" y="140.0" text-anchor="middle" font-size="8" font-weight="600" fill="#D0DDE8">14.3</text>
  <rect x="778.0" y="249.6" width="21" height="15.4" fill="#D49B40"/>
  <rect x="778.0" y="220.9" width="21" height="28.8" fill="#4DA5BB"/>
  <rect x="778.0" y="217.1" width="21" height="3.7" fill="#45AB8A"/>
  <rect x="778.0" y="213.4" width="21" height="3.8" fill="#D46565"/>
  <rect x="778.0" y="168.3" width="21" height="45.1" fill="#5B8ADB"/>
  <text x="788.5" y="164.3" text-anchor="middle" font-size="8" font-weight="600" fill="#D0DDE8">11.4</text>
  <rect x="815.0" y="250.1" width="21" height="14.9" fill="#D49B40"/>
  <rect x="815.0" y="249.4" width="21" height="0.7" fill="#4DA5BB"/>
  <rect x="815.0" y="245.9" width="21" height="3.5" fill="#45AB8A"/>
  <rect x="815.0" y="242.9" width="21" height="3.0" fill="#D46565"/>
  <rect x="815.0" y="241.6" width="21" height="1.3" fill="#5B8ADB"/>
  <text x="825.5" y="237.6" text-anchor="middle" font-size="8" font-weight="600" fill="#D0DDE8">2.8</text>
  <rect x="839.0" y="244.7" width="21" height="20.3" fill="#D49B40"/>
  <rect x="839.0" y="207.0" width="21" height="37.7" fill="#4DA5BB"/>
  <rect x="839.0" y="203.1" width="21" height="3.9" fill="#45AB8A"/>
  <rect x="839.0" y="199.4" width="21" height="3.7" fill="#D46565"/>
  <rect x="839.0" y="113.8" width="21" height="85.6" fill="#5B8ADB"/>
  <text x="849.5" y="109.8" text-anchor="middle" font-size="8" font-weight="600" fill="#D0DDE8">17.9</text>
  <rect x="863.0" y="244.9" width="21" height="20.1" fill="#D49B40"/>
  <rect x="863.0" y="210.9" width="21" height="34.0" fill="#4DA5BB"/>
  <rect x="863.0" y="206.6" width="21" height="4.3" fill="#45AB8A"/>
  <rect x="863.0" y="202.8" width="21" height="3.7" fill="#D46565"/>
  <rect x="863.0" y="130.8" width="21" height="72.1" fill="#5B8ADB"/>
  <text x="873.5" y="126.8" text-anchor="middle" font-size="8" font-weight="600" fill="#D0DDE8">15.9</text>
  <rect x="887.0" y="247.1" width="21" height="17.9" fill="#D49B40"/>
  <rect x="887.0" y="220.2" width="21" height="26.9" fill="#4DA5BB"/>
  <rect x="887.0" y="215.9" width="21" height="4.3" fill="#45AB8A"/>
  <rect x="887.0" y="212.0" width="21" height="3.9" fill="#D46565"/>
  <rect x="887.0" y="156.3" width="21" height="55.7" fill="#5B8ADB"/>
  <text x="897.5" y="152.3" text-anchor="middle" font-size="8" font-weight="600" fill="#D0DDE8">12.9</text>

  <text x="62.5" y="278" text-anchor="middle" font-size="7.5" fill="#A8B8CC">0</text>
  <text x="86.5" y="278" text-anchor="middle" font-size="7.5" fill="#A8B8CC">1</text>
  <text x="110.5" y="278" text-anchor="middle" font-size="7.5" fill="#A8B8CC">2</text>
  <text x="134.5" y="278" text-anchor="middle" font-size="7.5" fill="#A8B8CC">4</text>
  <text x="171.5" y="278" text-anchor="middle" font-size="7.5" fill="#A8B8CC">0</text>
  <text x="195.5" y="278" text-anchor="middle" font-size="7.5" fill="#A8B8CC">1</text>
  <text x="219.5" y="278" text-anchor="middle" font-size="7.5" fill="#A8B8CC">2</text>
  <text x="243.5" y="278" text-anchor="middle" font-size="7.5" fill="#A8B8CC">4</text>
  <text x="280.5" y="278" text-anchor="middle" font-size="7.5" fill="#A8B8CC">0</text>
  <text x="304.5" y="278" text-anchor="middle" font-size="7.5" fill="#A8B8CC">1</text>
  <text x="328.5" y="278" text-anchor="middle" font-size="7.5" fill="#A8B8CC">2</text>
  <text x="352.5" y="278" text-anchor="middle" font-size="7.5" fill="#A8B8CC">4</text>
  <text x="389.5" y="278" text-anchor="middle" font-size="7.5" fill="#A8B8CC">0</text>
  <text x="413.5" y="278" text-anchor="middle" font-size="7.5" fill="#A8B8CC">1</text>
  <text x="437.5" y="278" text-anchor="middle" font-size="7.5" fill="#A8B8CC">2</text>
  <text x="461.5" y="278" text-anchor="middle" font-size="7.5" fill="#A8B8CC">4</text>
  <text x="498.5" y="278" text-anchor="middle" font-size="7.5" fill="#A8B8CC">0</text>
  <text x="522.5" y="278" text-anchor="middle" font-size="7.5" fill="#A8B8CC">1</text>
  <text x="546.5" y="278" text-anchor="middle" font-size="7.5" fill="#A8B8CC">2</text>
  <text x="570.5" y="278" text-anchor="middle" font-size="7.5" fill="#A8B8CC">4</text>
  <text x="607.5" y="278" text-anchor="middle" font-size="7.5" fill="#A8B8CC">0</text>
  <text x="631.5" y="278" text-anchor="middle" font-size="7.5" fill="#A8B8CC">1</text>
  <text x="655.5" y="278" text-anchor="middle" font-size="7.5" fill="#A8B8CC">2</text>
  <text x="679.5" y="278" text-anchor="middle" font-size="7.5" fill="#A8B8CC">4</text>
  <text x="716.5" y="278" text-anchor="middle" font-size="7.5" fill="#A8B8CC">0</text>
  <text x="740.5" y="278" text-anchor="middle" font-size="7.5" fill="#A8B8CC">1</text>
  <text x="764.5" y="278" text-anchor="middle" font-size="7.5" fill="#A8B8CC">2</text>
  <text x="788.5" y="278" text-anchor="middle" font-size="7.5" fill="#A8B8CC">4</text>
  <text x="825.5" y="278" text-anchor="middle" font-size="7.5" fill="#A8B8CC">0</text>
  <text x="849.5" y="278" text-anchor="middle" font-size="7.5" fill="#A8B8CC">1</text>
  <text x="873.5" y="278" text-anchor="middle" font-size="7.5" fill="#A8B8CC">2</text>
  <text x="897.5" y="278" text-anchor="middle" font-size="7.5" fill="#A8B8CC">4</text>

  <text x="98.5" y="293" text-anchor="middle" font-size="9.5" font-weight="700" fill="#E6EDF3">Tophat</text>
  <text x="98.5" y="306" text-anchor="middle" font-size="8.5" fill="#5B8ADB">ISM</text>
  <text x="207.5" y="293" text-anchor="middle" font-size="9.5" font-weight="700" fill="#E6EDF3">Tophat</text>
  <text x="207.5" y="306" text-anchor="middle" font-size="8.5" fill="#45AB8A">wind</text>
  <text x="316.5" y="293" text-anchor="middle" font-size="9.5" font-weight="700" fill="#E6EDF3">Two-comp.</text>
  <text x="316.5" y="306" text-anchor="middle" font-size="8.5" fill="#5B8ADB">ISM</text>
  <text x="425.5" y="293" text-anchor="middle" font-size="9.5" font-weight="700" fill="#E6EDF3">Two-comp.</text>
  <text x="425.5" y="306" text-anchor="middle" font-size="8.5" fill="#45AB8A">wind</text>
  <text x="534.5" y="293" text-anchor="middle" font-size="9.5" font-weight="700" fill="#E6EDF3">Gaussian</text>
  <text x="534.5" y="306" text-anchor="middle" font-size="8.5" fill="#5B8ADB">ISM</text>
  <text x="643.5" y="293" text-anchor="middle" font-size="9.5" font-weight="700" fill="#E6EDF3">Gaussian</text>
  <text x="643.5" y="306" text-anchor="middle" font-size="8.5" fill="#45AB8A">wind</text>
  <text x="752.5" y="293" text-anchor="middle" font-size="9.5" font-weight="700" fill="#E6EDF3">Power-law</text>
  <text x="752.5" y="306" text-anchor="middle" font-size="8.5" fill="#5B8ADB">ISM</text>
  <text x="861.5" y="293" text-anchor="middle" font-size="9.5" font-weight="700" fill="#E6EDF3">Power-law</text>
  <text x="861.5" y="306" text-anchor="middle" font-size="8.5" fill="#45AB8A">wind</text>

  <text x="13" y="180" text-anchor="middle" font-size="9" fill="#A8B8CC" transform="rotate(-90, 13, 180)">Wall time (ms)</text>

</svg>
