<?xml version="1.0" encoding="UTF-8"?>
<svg xmlns="http://www.w3.org/2000/svg" viewBox="0 0 950 360"
     font-family="-apple-system, 'Segoe UI', Roboto, 'Helvetica Neue', Arial, sans-serif">

  <style>
    :root {
      --cp: #E6EDF3;
      --cs: #A8B8CC;
      --cb: #D0DDE8;
      --cg: #2D3345;
    }
    @media (prefers-color-scheme: light) {
      :root {
        --cp: #24292f;
        --cs: #57606a;
        --cb: #24292f;
        --cg: #d0d7de;
      }
    }
    .cp { fill: var(--cp); }
    .cs { fill: var(--cs); }
    .cb { fill: var(--cb); }
    .gl { stroke: var(--cg); fill: none; }
  </style>

  <rect width="950" height="360" fill="transparent" rx="12"/>

  <text x="475" y="28" text-anchor="middle" font-size="15" font-weight="700" class="cp" letter-spacing="0.3">Performance · Synchrotron</text>
  <text x="475" y="44" text-anchor="middle" font-size="9" class="cs">CPU time by stage · Apple M2 · single core · default resolution</text>
  <text x="475" y="57" text-anchor="middle" font-size="9" class="cs">each group: θv/θc = 0 │ 1 │ 2 │ 4 (left → right)</text>

  <rect x="213" y="67" width="12" height="12" rx="2" fill="#D49B40"/>
  <text x="229" y="78" font-size="10" class="cb">Shock Dynamics</text>
  <rect x="328" y="67" width="12" height="12" rx="2" fill="#4DA5BB"/>
  <text x="344" y="78" font-size="10" class="cb">EAT Grid</text>
  <rect x="407" y="67" width="12" height="12" rx="2" fill="#45AB8A"/>
  <text x="423" y="78" font-size="10" class="cb">Syn. Electrons</text>
  <rect x="522" y="67" width="12" height="12" rx="2" fill="#D46565"/>
  <text x="538" y="78" font-size="10" class="cb">Syn. Photons</text>
  <rect x="625" y="67" width="12" height="12" rx="2" fill="#5B8ADB"/>
  <text x="641" y="78" font-size="10" class="cb">Flux Integration</text>

  <line x1="52" y1="265" x2="935" y2="265" class="gl" stroke-width="1"/>
  <line x1="52" y1="222.8" x2="935" y2="222.8" class="gl" stroke-width="1" stroke-dasharray="4,3"/>
  <text x="48" y="226.8" text-anchor="end" font-size="8" class="cs">5 ms</text>
  <line x1="52" y1="180.5" x2="935" y2="180.5" class="gl" stroke-width="1" stroke-dasharray="4,3"/>
  <text x="48" y="184.5" text-anchor="end" font-size="8" class="cs">10 ms</text>
  <line x1="52" y1="138.2" x2="935" y2="138.2" class="gl" stroke-width="1" stroke-dasharray="4,3"/>
  <text x="48" y="142.2" text-anchor="end" font-size="8" class="cs">15 ms</text>
  <line x1="52" y1="96.0" x2="935" y2="96.0" class="gl" stroke-width="1" stroke-dasharray="4,3"/>
  <text x="48" y="100.0" text-anchor="end" font-size="8" class="cs">20 ms</text>
  <text x="48" y="269" text-anchor="end" font-size="8" class="cs">0</text>

  <rect x="52.0" y="260.1" width="21" height="4.9" fill="#D49B40"/>
  <rect x="52.0" y="259.7" width="21" height="0.4" fill="#4DA5BB"/>
  <rect x="52.0" y="258.5" width="21" height="1.2" fill="#45AB8A"/>
  <rect x="52.0" y="256.7" width="21" height="1.8" fill="#D46565"/>
  <rect x="52.0" y="255.8" width="21" height="0.9" fill="#5B8ADB"/>
  <text x="62.5" y="251.8" text-anchor="middle" font-size="8" font-weight="600" class="cb">1.1</text>
  <rect x="76.0" y="263.1" width="21" height="1.9" fill="#D49B40"/>
  <rect x="76.0" y="248.3" width="21" height="14.8" fill="#4DA5BB"/>
  <rect x="76.0" y="247.1" width="21" height="1.1" fill="#45AB8A"/>
  <rect x="76.0" y="245.3" width="21" height="1.8" fill="#D46565"/>
  <rect x="76.0" y="207.1" width="21" height="38.2" fill="#5B8ADB"/>
  <text x="86.5" y="203.1" text-anchor="middle" font-size="8" font-weight="600" class="cb">6.9</text>
  <rect x="100.0" y="263.8" width="21" height="1.2" fill="#D49B40"/>
  <rect x="100.0" y="247.8" width="21" height="15.9" fill="#4DA5BB"/>
  <rect x="100.0" y="246.5" width="21" height="1.4" fill="#45AB8A"/>
  <rect x="100.0" y="244.4" width="21" height="2.0" fill="#D46565"/>
  <rect x="100.0" y="210.6" width="21" height="33.8" fill="#5B8ADB"/>
  <text x="110.5" y="206.6" text-anchor="middle" font-size="8" font-weight="600" class="cb">6.4</text>
  <rect x="124.0" y="263.3" width="21" height="1.7" fill="#D49B40"/>
  <rect x="124.0" y="244.7" width="21" height="18.6" fill="#4DA5BB"/>
  <rect x="124.0" y="243.2" width="21" height="1.5" fill="#45AB8A"/>
  <rect x="124.0" y="240.4" width="21" height="2.8" fill="#D46565"/>
  <rect x="124.0" y="206.5" width="21" height="33.9" fill="#5B8ADB"/>
  <text x="134.5" y="202.5" text-anchor="middle" font-size="8" font-weight="600" class="cb">6.9</text>
  <rect x="161.0" y="264.2" width="21" height="0.8" fill="#D49B40"/>
  <rect x="161.0" y="263.8" width="21" height="0.4" fill="#4DA5BB"/>
  <rect x="161.0" y="262.8" width="21" height="1.0" fill="#45AB8A"/>
  <rect x="161.0" y="261.4" width="21" height="1.4" fill="#D46565"/>
  <rect x="161.0" y="260.5" width="21" height="0.9" fill="#5B8ADB"/>
  <text x="171.5" y="256.5" text-anchor="middle" font-size="8" font-weight="600" class="cb">0.5</text>
  <rect x="185.0" y="263.3" width="21" height="1.7" fill="#D49B40"/>
  <rect x="185.0" y="248.7" width="21" height="14.6" fill="#4DA5BB"/>
  <rect x="185.0" y="247.4" width="21" height="1.3" fill="#45AB8A"/>
  <rect x="185.0" y="245.5" width="21" height="1.9" fill="#D46565"/>
  <rect x="185.0" y="211.7" width="21" height="33.8" fill="#5B8ADB"/>
  <text x="195.5" y="207.7" text-anchor="middle" font-size="8" font-weight="600" class="cb">6.3</text>
  <rect x="209.0" y="263.7" width="21" height="1.3" fill="#D49B40"/>
  <rect x="209.0" y="247.8" width="21" height="15.9" fill="#4DA5BB"/>
  <rect x="209.0" y="246.5" width="21" height="1.3" fill="#45AB8A"/>
  <rect x="209.0" y="244.7" width="21" height="1.8" fill="#D46565"/>
  <rect x="209.0" y="206.1" width="21" height="38.6" fill="#5B8ADB"/>
  <text x="219.5" y="202.1" text-anchor="middle" font-size="8" font-weight="600" class="cb">7.0</text>
  <rect x="233.0" y="263.7" width="21" height="1.3" fill="#D49B40"/>
  <rect x="233.0" y="245.3" width="21" height="18.5" fill="#4DA5BB"/>
  <rect x="233.0" y="243.8" width="21" height="1.4" fill="#45AB8A"/>
  <rect x="233.0" y="241.8" width="21" height="2.0" fill="#D46565"/>
  <rect x="233.0" y="200.2" width="21" height="41.5" fill="#5B8ADB"/>
  <text x="243.5" y="196.2" text-anchor="middle" font-size="8" font-weight="600" class="cb">7.7</text>
  <rect x="270.0" y="261.7" width="21" height="3.3" fill="#D49B40"/>
  <rect x="270.0" y="261.2" width="21" height="0.5" fill="#4DA5BB"/>
  <rect x="270.0" y="259.9" width="21" height="1.3" fill="#45AB8A"/>
  <rect x="270.0" y="258.1" width="21" height="1.8" fill="#D46565"/>
  <rect x="270.0" y="257.1" width="21" height="1.0" fill="#5B8ADB"/>
  <text x="280.5" y="253.1" text-anchor="middle" font-size="8" font-weight="600" class="cb">0.9</text>
  <rect x="294.0" y="262.7" width="21" height="2.3" fill="#D49B40"/>
  <rect x="294.0" y="236.6" width="21" height="26.1" fill="#4DA5BB"/>
  <rect x="294.0" y="235.7" width="21" height="1.0" fill="#45AB8A"/>
  <rect x="294.0" y="233.2" width="21" height="2.5" fill="#D46565"/>
  <rect x="294.0" y="172.3" width="21" height="60.9" fill="#5B8ADB"/>
  <text x="304.5" y="168.3" text-anchor="middle" font-size="8" font-weight="600" class="cb">11.0</text>
  <rect x="318.0" y="262.9" width="21" height="2.1" fill="#D49B40"/>
  <rect x="318.0" y="243.2" width="21" height="19.7" fill="#4DA5BB"/>
  <rect x="318.0" y="241.7" width="21" height="1.5" fill="#45AB8A"/>
  <rect x="318.0" y="239.4" width="21" height="2.4" fill="#D46565"/>
  <rect x="318.0" y="200.3" width="21" height="39.1" fill="#5B8ADB"/>
  <text x="328.5" y="196.3" text-anchor="middle" font-size="8" font-weight="600" class="cb">7.7</text>
  <rect x="342.0" y="262.9" width="21" height="2.1" fill="#D49B40"/>
  <rect x="342.0" y="240.4" width="21" height="22.4" fill="#4DA5BB"/>
  <rect x="342.0" y="239.0" width="21" height="1.4" fill="#45AB8A"/>
  <rect x="342.0" y="237.2" width="21" height="1.8" fill="#D46565"/>
  <rect x="342.0" y="191.8" width="21" height="45.3" fill="#5B8ADB"/>
  <text x="352.5" y="187.8" text-anchor="middle" font-size="8" font-weight="600" class="cb">8.7</text>
  <rect x="379.0" y="263.6" width="21" height="1.4" fill="#D49B40"/>
  <rect x="379.0" y="263.1" width="21" height="0.5" fill="#4DA5BB"/>
  <rect x="379.0" y="262.1" width="21" height="1.0" fill="#45AB8A"/>
  <rect x="379.0" y="260.6" width="21" height="1.5" fill="#D46565"/>
  <rect x="379.0" y="259.5" width="21" height="1.1" fill="#5B8ADB"/>
  <text x="389.5" y="255.5" text-anchor="middle" font-size="8" font-weight="600" class="cb">0.6</text>
  <rect x="403.0" y="262.4" width="21" height="2.6" fill="#D49B40"/>
  <rect x="403.0" y="235.8" width="21" height="26.5" fill="#4DA5BB"/>
  <rect x="403.0" y="234.8" width="21" height="1.0" fill="#45AB8A"/>
  <rect x="403.0" y="232.6" width="21" height="2.3" fill="#D46565"/>
  <rect x="403.0" y="168.0" width="21" height="64.6" fill="#5B8ADB"/>
  <text x="413.5" y="164.0" text-anchor="middle" font-size="8" font-weight="600" class="cb">11.5</text>
  <rect x="427.0" y="262.9" width="21" height="2.1" fill="#D49B40"/>
  <rect x="427.0" y="246.4" width="21" height="16.5" fill="#4DA5BB"/>
  <rect x="427.0" y="244.7" width="21" height="1.7" fill="#45AB8A"/>
  <rect x="427.0" y="242.6" width="21" height="2.0" fill="#D46565"/>
  <rect x="427.0" y="203.4" width="21" height="39.2" fill="#5B8ADB"/>
  <text x="437.5" y="199.4" text-anchor="middle" font-size="8" font-weight="600" class="cb">7.3</text>
  <rect x="451.0" y="262.7" width="21" height="2.3" fill="#D49B40"/>
  <rect x="451.0" y="238.0" width="21" height="24.7" fill="#4DA5BB"/>
  <rect x="451.0" y="236.4" width="21" height="1.6" fill="#45AB8A"/>
  <rect x="451.0" y="233.1" width="21" height="3.3" fill="#D46565"/>
  <rect x="451.0" y="183.2" width="21" height="49.9" fill="#5B8ADB"/>
  <text x="461.5" y="179.2" text-anchor="middle" font-size="8" font-weight="600" class="cb">9.7</text>
  <rect x="488.0" y="247.6" width="21" height="17.4" fill="#D49B40"/>
  <rect x="488.0" y="247.2" width="21" height="0.4" fill="#4DA5BB"/>
  <rect x="488.0" y="244.6" width="21" height="2.6" fill="#45AB8A"/>
  <rect x="488.0" y="241.6" width="21" height="3.0" fill="#D46565"/>
  <rect x="488.0" y="240.3" width="21" height="1.2" fill="#5B8ADB"/>
  <text x="498.5" y="236.3" text-anchor="middle" font-size="8" font-weight="600" class="cb">2.9</text>
  <rect x="512.0" y="250.4" width="21" height="14.6" fill="#D49B40"/>
  <rect x="512.0" y="218.0" width="21" height="32.4" fill="#4DA5BB"/>
  <rect x="512.0" y="215.1" width="21" height="2.9" fill="#45AB8A"/>
  <rect x="512.0" y="211.9" width="21" height="3.3" fill="#D46565"/>
  <rect x="512.0" y="146.5" width="21" height="65.4" fill="#5B8ADB"/>
  <text x="522.5" y="142.5" text-anchor="middle" font-size="8" font-weight="600" class="cb">14.0</text>
  <rect x="536.0" y="251.7" width="21" height="13.3" fill="#D49B40"/>
  <rect x="536.0" y="228.5" width="21" height="23.2" fill="#4DA5BB"/>
  <rect x="536.0" y="225.6" width="21" height="2.9" fill="#45AB8A"/>
  <rect x="536.0" y="222.2" width="21" height="3.4" fill="#D46565"/>
  <rect x="536.0" y="183.4" width="21" height="38.9" fill="#5B8ADB"/>
  <text x="546.5" y="179.4" text-anchor="middle" font-size="8" font-weight="600" class="cb">9.7</text>
  <rect x="560.0" y="253.2" width="21" height="11.8" fill="#D49B40"/>
  <rect x="560.0" y="234.2" width="21" height="19.0" fill="#4DA5BB"/>
  <rect x="560.0" y="231.2" width="21" height="3.0" fill="#45AB8A"/>
  <rect x="560.0" y="228.3" width="21" height="2.8" fill="#D46565"/>
  <rect x="560.0" y="192.0" width="21" height="36.4" fill="#5B8ADB"/>
  <text x="570.5" y="188.0" text-anchor="middle" font-size="8" font-weight="600" class="cb">8.6</text>
  <rect x="597.0" y="251.8" width="21" height="13.2" fill="#D49B40"/>
  <rect x="597.0" y="251.3" width="21" height="0.5" fill="#4DA5BB"/>
  <rect x="597.0" y="248.7" width="21" height="2.6" fill="#45AB8A"/>
  <rect x="597.0" y="246.2" width="21" height="2.5" fill="#D46565"/>
  <rect x="597.0" y="244.9" width="21" height="1.3" fill="#5B8ADB"/>
  <text x="607.5" y="240.9" text-anchor="middle" font-size="8" font-weight="600" class="cb">2.4</text>
  <rect x="621.0" y="247.5" width="21" height="17.5" fill="#D49B40"/>
  <rect x="621.0" y="215.7" width="21" height="31.7" fill="#4DA5BB"/>
  <rect x="621.0" y="212.5" width="21" height="3.3" fill="#45AB8A"/>
  <rect x="621.0" y="209.7" width="21" height="2.8" fill="#D46565"/>
  <rect x="621.0" y="137.2" width="21" height="72.5" fill="#5B8ADB"/>
  <text x="631.5" y="133.2" text-anchor="middle" font-size="8" font-weight="600" class="cb">15.1</text>
  <rect x="645.0" y="249.4" width="21" height="15.6" fill="#D49B40"/>
  <rect x="645.0" y="229.0" width="21" height="20.4" fill="#4DA5BB"/>
  <rect x="645.0" y="225.8" width="21" height="3.3" fill="#45AB8A"/>
  <rect x="645.0" y="222.4" width="21" height="3.4" fill="#D46565"/>
  <rect x="645.0" y="176.3" width="21" height="46.1" fill="#5B8ADB"/>
  <text x="655.5" y="172.3" text-anchor="middle" font-size="8" font-weight="600" class="cb">10.5</text>
  <rect x="669.0" y="251.8" width="21" height="13.2" fill="#D49B40"/>
  <rect x="669.0" y="232.5" width="21" height="19.3" fill="#4DA5BB"/>
  <rect x="669.0" y="229.5" width="21" height="3.0" fill="#45AB8A"/>
  <rect x="669.0" y="226.3" width="21" height="3.1" fill="#D46565"/>
  <rect x="669.0" y="182.1" width="21" height="44.3" fill="#5B8ADB"/>
  <text x="679.5" y="178.1" text-anchor="middle" font-size="8" font-weight="600" class="cb">9.8</text>
  <rect x="706.0" y="248.3" width="21" height="16.7" fill="#D49B40"/>
  <rect x="706.0" y="247.7" width="21" height="0.6" fill="#4DA5BB"/>
  <rect x="706.0" y="244.6" width="21" height="3.1" fill="#45AB8A"/>
  <rect x="706.0" y="241.6" width="21" height="3.0" fill="#D46565"/>
  <rect x="706.0" y="240.4" width="21" height="1.2" fill="#5B8ADB"/>
  <text x="716.5" y="236.4" text-anchor="middle" font-size="8" font-weight="600" class="cb">2.9</text>
  <rect x="730.0" y="247.3" width="21" height="17.7" fill="#D49B40"/>
  <rect x="730.0" y="209.7" width="21" height="37.6" fill="#4DA5BB"/>
  <rect x="730.0" y="206.7" width="21" height="3.0" fill="#45AB8A"/>
  <rect x="730.0" y="202.5" width="21" height="4.2" fill="#D46565"/>
  <rect x="730.0" y="121.2" width="21" height="81.3" fill="#5B8ADB"/>
  <text x="740.5" y="117.2" text-anchor="middle" font-size="8" font-weight="600" class="cb">17.0</text>
  <rect x="754.0" y="248.4" width="21" height="16.6" fill="#D49B40"/>
  <rect x="754.0" y="213.9" width="21" height="34.5" fill="#4DA5BB"/>
  <rect x="754.0" y="209.8" width="21" height="4.2" fill="#45AB8A"/>
  <rect x="754.0" y="205.9" width="21" height="3.8" fill="#D46565"/>
  <rect x="754.0" y="140.0" width="21" height="65.9" fill="#5B8ADB"/>
  <text x="764.5" y="136.0" text-anchor="middle" font-size="8" font-weight="600" class="cb">14.8</text>
  <rect x="778.0" y="249.6" width="21" height="15.4" fill="#D49B40"/>
  <rect x="778.0" y="223.5" width="21" height="26.2" fill="#4DA5BB"/>
  <rect x="778.0" y="219.8" width="21" height="3.7" fill="#45AB8A"/>
  <rect x="778.0" y="215.8" width="21" height="4.0" fill="#D46565"/>
  <rect x="778.0" y="168.1" width="21" height="47.7" fill="#5B8ADB"/>
  <text x="788.5" y="164.1" text-anchor="middle" font-size="8" font-weight="600" class="cb">11.5</text>
  <rect x="815.0" y="249.9" width="21" height="15.1" fill="#D49B40"/>
  <rect x="815.0" y="249.4" width="21" height="0.6" fill="#4DA5BB"/>
  <rect x="815.0" y="246.1" width="21" height="3.3" fill="#45AB8A"/>
  <rect x="815.0" y="243.3" width="21" height="2.8" fill="#D46565"/>
  <rect x="815.0" y="242.0" width="21" height="1.3" fill="#5B8ADB"/>
  <text x="825.5" y="238.0" text-anchor="middle" font-size="8" font-weight="600" class="cb">2.7</text>
  <rect x="839.0" y="244.6" width="21" height="20.4" fill="#D49B40"/>
  <rect x="839.0" y="207.5" width="21" height="37.1" fill="#4DA5BB"/>
  <rect x="839.0" y="203.3" width="21" height="4.2" fill="#45AB8A"/>
  <rect x="839.0" y="199.0" width="21" height="4.3" fill="#D46565"/>
  <rect x="839.0" y="113.8" width="21" height="85.2" fill="#5B8ADB"/>
  <text x="849.5" y="109.8" text-anchor="middle" font-size="8" font-weight="600" class="cb">17.9</text>
  <rect x="863.0" y="246.4" width="21" height="18.6" fill="#D49B40"/>
  <rect x="863.0" y="211.6" width="21" height="34.8" fill="#4DA5BB"/>
  <rect x="863.0" y="206.8" width="21" height="4.8" fill="#45AB8A"/>
  <rect x="863.0" y="203.0" width="21" height="3.7" fill="#D46565"/>
  <rect x="863.0" y="130.3" width="21" height="72.7" fill="#5B8ADB"/>
  <text x="873.5" y="126.3" text-anchor="middle" font-size="8" font-weight="600" class="cb">15.9</text>
  <rect x="887.0" y="247.3" width="21" height="17.7" fill="#D49B40"/>
  <rect x="887.0" y="220.7" width="21" height="26.6" fill="#4DA5BB"/>
  <rect x="887.0" y="216.1" width="21" height="4.6" fill="#45AB8A"/>
  <rect x="887.0" y="212.1" width="21" height="4.0" fill="#D46565"/>
  <rect x="887.0" y="156.2" width="21" height="56.0" fill="#5B8ADB"/>
  <text x="897.5" y="152.2" text-anchor="middle" font-size="8" font-weight="600" class="cb">12.9</text>

  <text x="62.5" y="278" text-anchor="middle" font-size="7.5" class="cs">0</text>
  <text x="86.5" y="278" text-anchor="middle" font-size="7.5" class="cs">1</text>
  <text x="110.5" y="278" text-anchor="middle" font-size="7.5" class="cs">2</text>
  <text x="134.5" y="278" text-anchor="middle" font-size="7.5" class="cs">4</text>
  <text x="171.5" y="278" text-anchor="middle" font-size="7.5" class="cs">0</text>
  <text x="195.5" y="278" text-anchor="middle" font-size="7.5" class="cs">1</text>
  <text x="219.5" y="278" text-anchor="middle" font-size="7.5" class="cs">2</text>
  <text x="243.5" y="278" text-anchor="middle" font-size="7.5" class="cs">4</text>
  <text x="280.5" y="278" text-anchor="middle" font-size="7.5" class="cs">0</text>
  <text x="304.5" y="278" text-anchor="middle" font-size="7.5" class="cs">1</text>
  <text x="328.5" y="278" text-anchor="middle" font-size="7.5" class="cs">2</text>
  <text x="352.5" y="278" text-anchor="middle" font-size="7.5" class="cs">4</text>
  <text x="389.5" y="278" text-anchor="middle" font-size="7.5" class="cs">0</text>
  <text x="413.5" y="278" text-anchor="middle" font-size="7.5" class="cs">1</text>
  <text x="437.5" y="278" text-anchor="middle" font-size="7.5" class="cs">2</text>
  <text x="461.5" y="278" text-anchor="middle" font-size="7.5" class="cs">4</text>
  <text x="498.5" y="278" text-anchor="middle" font-size="7.5" class="cs">0</text>
  <text x="522.5" y="278" text-anchor="middle" font-size="7.5" class="cs">1</text>
  <text x="546.5" y="278" text-anchor="middle" font-size="7.5" class="cs">2</text>
  <text x="570.5" y="278" text-anchor="middle" font-size="7.5" class="cs">4</text>
  <text x="607.5" y="278" text-anchor="middle" font-size="7.5" class="cs">0</text>
  <text x="631.5" y="278" text-anchor="middle" font-size="7.5" class="cs">1</text>
  <text x="655.5" y="278" text-anchor="middle" font-size="7.5" class="cs">2</text>
  <text x="679.5" y="278" text-anchor="middle" font-size="7.5" class="cs">4</text>
  <text x="716.5" y="278" text-anchor="middle" font-size="7.5" class="cs">0</text>
  <text x="740.5" y="278" text-anchor="middle" font-size="7.5" class="cs">1</text>
  <text x="764.5" y="278" text-anchor="middle" font-size="7.5" class="cs">2</text>
  <text x="788.5" y="278" text-anchor="middle" font-size="7.5" class="cs">4</text>
  <text x="825.5" y="278" text-anchor="middle" font-size="7.5" class="cs">0</text>
  <text x="849.5" y="278" text-anchor="middle" font-size="7.5" class="cs">1</text>
  <text x="873.5" y="278" text-anchor="middle" font-size="7.5" class="cs">2</text>
  <text x="897.5" y="278" text-anchor="middle" font-size="7.5" class="cs">4</text>

  <text x="98.5" y="293" text-anchor="middle" font-size="9.5" font-weight="700" class="cp">Tophat</text>
  <text x="98.5" y="306" text-anchor="middle" font-size="8.5" fill="#5B8ADB">ISM</text>
  <text x="207.5" y="293" text-anchor="middle" font-size="9.5" font-weight="700" class="cp">Tophat</text>
  <text x="207.5" y="306" text-anchor="middle" font-size="8.5" fill="#45AB8A">wind</text>
  <text x="316.5" y="293" text-anchor="middle" font-size="9.5" font-weight="700" class="cp">Two-comp.</text>
  <text x="316.5" y="306" text-anchor="middle" font-size="8.5" fill="#5B8ADB">ISM</text>
  <text x="425.5" y="293" text-anchor="middle" font-size="9.5" font-weight="700" class="cp">Two-comp.</text>
  <text x="425.5" y="306" text-anchor="middle" font-size="8.5" fill="#45AB8A">wind</text>
  <text x="534.5" y="293" text-anchor="middle" font-size="9.5" font-weight="700" class="cp">Gaussian</text>
  <text x="534.5" y="306" text-anchor="middle" font-size="8.5" fill="#5B8ADB">ISM</text>
  <text x="643.5" y="293" text-anchor="middle" font-size="9.5" font-weight="700" class="cp">Gaussian</text>
  <text x="643.5" y="306" text-anchor="middle" font-size="8.5" fill="#45AB8A">wind</text>
  <text x="752.5" y="293" text-anchor="middle" font-size="9.5" font-weight="700" class="cp">Power-law</text>
  <text x="752.5" y="306" text-anchor="middle" font-size="8.5" fill="#5B8ADB">ISM</text>
  <text x="861.5" y="293" text-anchor="middle" font-size="9.5" font-weight="700" class="cp">Power-law</text>
  <text x="861.5" y="306" text-anchor="middle" font-size="8.5" fill="#45AB8A">wind</text>

  <text x="13" y="180" text-anchor="middle" font-size="9" class="cs" transform="rotate(-90, 13, 180)">Wall time (ms)</text>

</svg>
