<?xml version="1.0" encoding="UTF-8"?>
<svg xmlns="http://www.w3.org/2000/svg" viewBox="0 0 950 360"
     font-family="-apple-system, 'Segoe UI', Roboto, 'Helvetica Neue', Arial, sans-serif">

  <style>
    .cp { fill: #E6EDF3; }
    .cs { fill: #A8B8CC; }
    .cb { fill: #D0DDE8; }
    .mi { fill: #5B8ADB; }
    .mw { fill: #45AB8A; }
    .gl { stroke: #2D3345; fill: none; }
  </style>

  <rect width="950" height="360" fill="transparent" rx="12"/>

  <text x="475" y="28" text-anchor="middle" font-size="15" font-weight="700" class="cp" letter-spacing="0.3">Performance · Full SSC</text>
  <text x="475" y="44" text-anchor="middle" font-size="9" class="cs">CPU time by stage · Apple M2 · single core · default resolution</text>
  <text x="475" y="57" text-anchor="middle" font-size="9" class="cs">each group: θv/θc = 0 │ 1 │ 2 │ 4 (left → right)</text>

  <rect x="82" y="67" width="12" height="12" rx="2" fill="#D49B40"/>
  <text x="98" y="78" font-size="10" class="cb">Shock Dynamics</text>
  <rect x="197" y="67" width="12" height="12" rx="2" fill="#4DA5BB"/>
  <text x="213" y="78" font-size="10" class="cb">EAT Grid</text>
  <rect x="276" y="67" width="12" height="12" rx="2" fill="#45AB8A"/>
  <text x="292" y="78" font-size="10" class="cb">Syn. Electrons</text>
  <rect x="391" y="67" width="12" height="12" rx="2" fill="#D46565"/>
  <text x="407" y="78" font-size="10" class="cb">Syn. Photons</text>
  <rect x="494" y="67" width="12" height="12" rx="2" fill="#5B8ADB"/>
  <text x="510" y="78" font-size="10" class="cb">Flux Integration</text>
  <rect x="621" y="67" width="12" height="12" rx="2" fill="#9B72CF"/>
  <text x="637" y="78" font-size="10" class="cb">IC Cooling</text>
  <rect x="712" y="67" width="12" height="12" rx="2" fill="#D4693A"/>
  <text x="728" y="78" font-size="10" class="cb">IC Photons</text>
  <rect x="803" y="67" width="12" height="12" rx="2" fill="#52A87C"/>
  <text x="819" y="78" font-size="10" class="cb">SSC Flux</text>

  <line x1="52" y1="265" x2="935" y2="265" class="gl" stroke-width="1"/>
  <line x1="52" y1="222.8" x2="935" y2="222.8" class="gl" stroke-width="1" stroke-dasharray="4,3"/>
  <text x="48" y="226.8" text-anchor="end" font-size="8" class="cs">7.5 ms</text>
  <line x1="52" y1="180.5" x2="935" y2="180.5" class="gl" stroke-width="1" stroke-dasharray="4,3"/>
  <text x="48" y="184.5" text-anchor="end" font-size="8" class="cs">15 ms</text>
  <line x1="52" y1="138.2" x2="935" y2="138.2" class="gl" stroke-width="1" stroke-dasharray="4,3"/>
  <text x="48" y="142.2" text-anchor="end" font-size="8" class="cs">22.5 ms</text>
  <line x1="52" y1="96.0" x2="935" y2="96.0" class="gl" stroke-width="1" stroke-dasharray="4,3"/>
  <text x="48" y="100.0" text-anchor="end" font-size="8" class="cs">30 ms</text>
  <text x="48" y="269" text-anchor="end" font-size="8" class="cs">0</text>

  <rect x="52.0" y="264.7" width="21" height="0.3" fill="#D49B40"/>
  <rect x="52.0" y="264.5" width="21" height="0.2" fill="#4DA5BB"/>
  <rect x="52.0" y="264.3" width="21" height="0.2" fill="#45AB8A"/>
  <rect x="52.0" y="264.1" width="21" height="0.2" fill="#D46565"/>
  <rect x="52.0" y="263.7" width="21" height="0.4" fill="#5B8ADB"/>
  <rect x="52.0" y="263.4" width="21" height="0.2" fill="#9B72CF"/>
  <rect x="52.0" y="259.2" width="21" height="4.2" fill="#D4693A"/>
  <rect x="52.0" y="259.0" width="21" height="0.2" fill="#52A87C"/>
  <text x="62.5" y="255.0" text-anchor="middle" font-size="8" font-weight="600" class="cb">1.1</text>
  <rect x="76.0" y="264.2" width="21" height="0.8" fill="#D49B40"/>
  <rect x="76.0" y="261.6" width="21" height="2.6" fill="#4DA5BB"/>
  <rect x="76.0" y="261.3" width="21" height="0.3" fill="#45AB8A"/>
  <rect x="76.0" y="260.7" width="21" height="0.6" fill="#D46565"/>
  <rect x="76.0" y="249.5" width="21" height="11.2" fill="#5B8ADB"/>
  <rect x="76.0" y="249.2" width="21" height="0.3" fill="#9B72CF"/>
  <rect x="76.0" y="244.6" width="21" height="4.6" fill="#D4693A"/>
  <rect x="76.0" y="240.4" width="21" height="4.2" fill="#52A87C"/>
  <text x="86.5" y="236.4" text-anchor="middle" font-size="8" font-weight="600" class="cb">4.4</text>
  <rect x="100.0" y="264.4" width="21" height="0.6" fill="#D49B40"/>
  <rect x="100.0" y="263.4" width="21" height="1.0" fill="#4DA5BB"/>
  <rect x="100.0" y="263.1" width="21" height="0.3" fill="#45AB8A"/>
  <rect x="100.0" y="262.5" width="21" height="0.6" fill="#D46565"/>
  <rect x="100.0" y="257.2" width="21" height="5.3" fill="#5B8ADB"/>
  <rect x="100.0" y="256.9" width="21" height="0.3" fill="#9B72CF"/>
  <rect x="100.0" y="252.7" width="21" height="4.3" fill="#D4693A"/>
  <rect x="100.0" y="251.1" width="21" height="1.5" fill="#52A87C"/>
  <text x="110.5" y="247.1" text-anchor="middle" font-size="8" font-weight="600" class="cb">2.5</text>
  <rect x="124.0" y="264.4" width="21" height="0.6" fill="#D49B40"/>
  <rect x="124.0" y="263.3" width="21" height="1.1" fill="#4DA5BB"/>
  <rect x="124.0" y="263.0" width="21" height="0.3" fill="#45AB8A"/>
  <rect x="124.0" y="262.5" width="21" height="0.5" fill="#D46565"/>
  <rect x="124.0" y="257.4" width="21" height="5.2" fill="#5B8ADB"/>
  <rect x="124.0" y="257.1" width="21" height="0.3" fill="#9B72CF"/>
  <rect x="124.0" y="252.7" width="21" height="4.4" fill="#D4693A"/>
  <rect x="124.0" y="251.2" width="21" height="1.5" fill="#52A87C"/>
  <text x="134.5" y="247.2" text-anchor="middle" font-size="8" font-weight="600" class="cb">2.5</text>
  <rect x="161.0" y="264.6" width="21" height="0.4" fill="#D49B40"/>
  <rect x="161.0" y="264.5" width="21" height="0.1" fill="#4DA5BB"/>
  <rect x="161.0" y="264.3" width="21" height="0.2" fill="#45AB8A"/>
  <rect x="161.0" y="264.1" width="21" height="0.2" fill="#D46565"/>
  <rect x="161.0" y="263.7" width="21" height="0.4" fill="#5B8ADB"/>
  <rect x="161.0" y="263.4" width="21" height="0.2" fill="#9B72CF"/>
  <rect x="161.0" y="259.5" width="21" height="3.9" fill="#D4693A"/>
  <rect x="161.0" y="259.3" width="21" height="0.2" fill="#52A87C"/>
  <text x="171.5" y="255.3" text-anchor="middle" font-size="8" font-weight="600" class="cb">1.0</text>
  <rect x="185.0" y="264.2" width="21" height="0.8" fill="#D49B40"/>
  <rect x="185.0" y="261.8" width="21" height="2.4" fill="#4DA5BB"/>
  <rect x="185.0" y="261.4" width="21" height="0.4" fill="#45AB8A"/>
  <rect x="185.0" y="260.9" width="21" height="0.6" fill="#D46565"/>
  <rect x="185.0" y="248.9" width="21" height="11.9" fill="#5B8ADB"/>
  <rect x="185.0" y="248.7" width="21" height="0.3" fill="#9B72CF"/>
  <rect x="185.0" y="244.2" width="21" height="4.5" fill="#D4693A"/>
  <rect x="185.0" y="239.9" width="21" height="4.3" fill="#52A87C"/>
  <text x="195.5" y="235.9" text-anchor="middle" font-size="8" font-weight="600" class="cb">4.5</text>
  <rect x="209.0" y="264.4" width="21" height="0.6" fill="#D49B40"/>
  <rect x="209.0" y="263.3" width="21" height="1.1" fill="#4DA5BB"/>
  <rect x="209.0" y="263.0" width="21" height="0.3" fill="#45AB8A"/>
  <rect x="209.0" y="262.4" width="21" height="0.5" fill="#D46565"/>
  <rect x="209.0" y="256.2" width="21" height="6.2" fill="#5B8ADB"/>
  <rect x="209.0" y="256.0" width="21" height="0.2" fill="#9B72CF"/>
  <rect x="209.0" y="251.6" width="21" height="4.4" fill="#D4693A"/>
  <rect x="209.0" y="249.9" width="21" height="1.7" fill="#52A87C"/>
  <text x="219.5" y="245.9" text-anchor="middle" font-size="8" font-weight="600" class="cb">2.7</text>
  <rect x="233.0" y="264.4" width="21" height="0.6" fill="#D49B40"/>
  <rect x="233.0" y="263.3" width="21" height="1.1" fill="#4DA5BB"/>
  <rect x="233.0" y="263.0" width="21" height="0.3" fill="#45AB8A"/>
  <rect x="233.0" y="262.5" width="21" height="0.5" fill="#D46565"/>
  <rect x="233.0" y="255.7" width="21" height="6.8" fill="#5B8ADB"/>
  <rect x="233.0" y="255.4" width="21" height="0.3" fill="#9B72CF"/>
  <rect x="233.0" y="250.8" width="21" height="4.6" fill="#D4693A"/>
  <rect x="233.0" y="249.0" width="21" height="1.9" fill="#52A87C"/>
  <text x="243.5" y="245.0" text-anchor="middle" font-size="8" font-weight="600" class="cb">2.8</text>
  <rect x="270.0" y="264.4" width="21" height="0.6" fill="#D49B40"/>
  <rect x="270.0" y="264.2" width="21" height="0.1" fill="#4DA5BB"/>
  <rect x="270.0" y="264.0" width="21" height="0.2" fill="#45AB8A"/>
  <rect x="270.0" y="263.7" width="21" height="0.3" fill="#D46565"/>
  <rect x="270.0" y="263.4" width="21" height="0.4" fill="#5B8ADB"/>
  <rect x="270.0" y="263.1" width="21" height="0.3" fill="#9B72CF"/>
  <rect x="270.0" y="257.3" width="21" height="5.8" fill="#D4693A"/>
  <rect x="270.0" y="257.1" width="21" height="0.2" fill="#52A87C"/>
  <text x="280.5" y="253.1" text-anchor="middle" font-size="8" font-weight="600" class="cb">1.4</text>
  <rect x="294.0" y="263.9" width="21" height="1.1" fill="#D49B40"/>
  <rect x="294.0" y="262.5" width="21" height="1.4" fill="#4DA5BB"/>
  <rect x="294.0" y="262.1" width="21" height="0.4" fill="#45AB8A"/>
  <rect x="294.0" y="261.5" width="21" height="0.6" fill="#D46565"/>
  <rect x="294.0" y="256.6" width="21" height="4.9" fill="#5B8ADB"/>
  <rect x="294.0" y="256.2" width="21" height="0.4" fill="#9B72CF"/>
  <rect x="294.0" y="249.8" width="21" height="6.4" fill="#D4693A"/>
  <rect x="294.0" y="247.3" width="21" height="2.5" fill="#52A87C"/>
  <text x="304.5" y="243.3" text-anchor="middle" font-size="8" font-weight="600" class="cb">3.1</text>
  <rect x="318.0" y="264.0" width="21" height="1.0" fill="#D49B40"/>
  <rect x="318.0" y="262.8" width="21" height="1.2" fill="#4DA5BB"/>
  <rect x="318.0" y="262.4" width="21" height="0.4" fill="#45AB8A"/>
  <rect x="318.0" y="261.8" width="21" height="0.6" fill="#D46565"/>
  <rect x="318.0" y="257.9" width="21" height="4.0" fill="#5B8ADB"/>
  <rect x="318.0" y="257.5" width="21" height="0.4" fill="#9B72CF"/>
  <rect x="318.0" y="251.2" width="21" height="6.3" fill="#D4693A"/>
  <rect x="318.0" y="249.1" width="21" height="2.1" fill="#52A87C"/>
  <text x="328.5" y="245.1" text-anchor="middle" font-size="8" font-weight="600" class="cb">2.8</text>
  <rect x="342.0" y="263.9" width="21" height="1.1" fill="#D49B40"/>
  <rect x="342.0" y="261.9" width="21" height="2.1" fill="#4DA5BB"/>
  <rect x="342.0" y="261.4" width="21" height="0.5" fill="#45AB8A"/>
  <rect x="342.0" y="260.8" width="21" height="0.7" fill="#D46565"/>
  <rect x="342.0" y="254.8" width="21" height="6.0" fill="#5B8ADB"/>
  <rect x="342.0" y="254.4" width="21" height="0.4" fill="#9B72CF"/>
  <rect x="342.0" y="247.6" width="21" height="6.8" fill="#D4693A"/>
  <rect x="342.0" y="244.5" width="21" height="3.1" fill="#52A87C"/>
  <text x="352.5" y="240.5" text-anchor="middle" font-size="8" font-weight="600" class="cb">3.6</text>
  <rect x="379.0" y="264.4" width="21" height="0.6" fill="#D49B40"/>
  <rect x="379.0" y="264.2" width="21" height="0.1" fill="#4DA5BB"/>
  <rect x="379.0" y="264.0" width="21" height="0.2" fill="#45AB8A"/>
  <rect x="379.0" y="263.7" width="21" height="0.3" fill="#D46565"/>
  <rect x="379.0" y="263.3" width="21" height="0.4" fill="#5B8ADB"/>
  <rect x="379.0" y="262.9" width="21" height="0.3" fill="#9B72CF"/>
  <rect x="379.0" y="257.3" width="21" height="5.6" fill="#D4693A"/>
  <rect x="379.0" y="257.1" width="21" height="0.2" fill="#52A87C"/>
  <text x="389.5" y="253.1" text-anchor="middle" font-size="8" font-weight="600" class="cb">1.4</text>
  <rect x="403.0" y="263.8" width="21" height="1.2" fill="#D49B40"/>
  <rect x="403.0" y="262.5" width="21" height="1.4" fill="#4DA5BB"/>
  <rect x="403.0" y="262.1" width="21" height="0.4" fill="#45AB8A"/>
  <rect x="403.0" y="261.4" width="21" height="0.7" fill="#D46565"/>
  <rect x="403.0" y="255.2" width="21" height="6.2" fill="#5B8ADB"/>
  <rect x="403.0" y="254.8" width="21" height="0.4" fill="#9B72CF"/>
  <rect x="403.0" y="248.7" width="21" height="6.1" fill="#D4693A"/>
  <rect x="403.0" y="246.4" width="21" height="2.3" fill="#52A87C"/>
  <text x="413.5" y="242.4" text-anchor="middle" font-size="8" font-weight="600" class="cb">3.3</text>
  <rect x="427.0" y="263.9" width="21" height="1.1" fill="#D49B40"/>
  <rect x="427.0" y="262.7" width="21" height="1.2" fill="#4DA5BB"/>
  <rect x="427.0" y="262.3" width="21" height="0.4" fill="#45AB8A"/>
  <rect x="427.0" y="261.7" width="21" height="0.6" fill="#D46565"/>
  <rect x="427.0" y="256.1" width="21" height="5.6" fill="#5B8ADB"/>
  <rect x="427.0" y="255.8" width="21" height="0.3" fill="#9B72CF"/>
  <rect x="427.0" y="249.4" width="21" height="6.3" fill="#D4693A"/>
  <rect x="427.0" y="247.5" width="21" height="2.0" fill="#52A87C"/>
  <text x="437.5" y="243.5" text-anchor="middle" font-size="8" font-weight="600" class="cb">3.1</text>
  <rect x="451.0" y="263.9" width="21" height="1.1" fill="#D49B40"/>
  <rect x="451.0" y="262.1" width="21" height="1.8" fill="#4DA5BB"/>
  <rect x="451.0" y="261.6" width="21" height="0.5" fill="#45AB8A"/>
  <rect x="451.0" y="260.9" width="21" height="0.6" fill="#D46565"/>
  <rect x="451.0" y="252.2" width="21" height="8.7" fill="#5B8ADB"/>
  <rect x="451.0" y="251.8" width="21" height="0.4" fill="#9B72CF"/>
  <rect x="451.0" y="245.0" width="21" height="6.8" fill="#D4693A"/>
  <rect x="451.0" y="241.9" width="21" height="3.2" fill="#52A87C"/>
  <text x="461.5" y="237.9" text-anchor="middle" font-size="8" font-weight="600" class="cb">4.1</text>
  <rect x="488.0" y="258.5" width="21" height="6.5" fill="#D49B40"/>
  <rect x="488.0" y="258.3" width="21" height="0.2" fill="#4DA5BB"/>
  <rect x="488.0" y="257.5" width="21" height="0.8" fill="#45AB8A"/>
  <rect x="488.0" y="256.7" width="21" height="0.9" fill="#D46565"/>
  <rect x="488.0" y="256.3" width="21" height="0.4" fill="#5B8ADB"/>
  <rect x="488.0" y="252.7" width="21" height="3.6" fill="#9B72CF"/>
  <rect x="488.0" y="179.3" width="21" height="73.4" fill="#D4693A"/>
  <rect x="488.0" y="179.0" width="21" height="0.3" fill="#52A87C"/>
  <text x="498.5" y="175.0" text-anchor="middle" font-size="8" font-weight="600" class="cb">15.3</text>
  <rect x="512.0" y="256.7" width="21" height="8.3" fill="#D49B40"/>
  <rect x="512.0" y="254.6" width="21" height="2.1" fill="#4DA5BB"/>
  <rect x="512.0" y="253.6" width="21" height="1.0" fill="#45AB8A"/>
  <rect x="512.0" y="252.3" width="21" height="1.3" fill="#D46565"/>
  <rect x="512.0" y="244.5" width="21" height="7.8" fill="#5B8ADB"/>
  <rect x="512.0" y="240.1" width="21" height="4.3" fill="#9B72CF"/>
  <rect x="512.0" y="153.0" width="21" height="87.2" fill="#D4693A"/>
  <rect x="512.0" y="148.8" width="21" height="4.2" fill="#52A87C"/>
  <text x="522.5" y="144.8" text-anchor="middle" font-size="8" font-weight="600" class="cb">20.6</text>
  <rect x="536.0" y="257.4" width="21" height="7.6" fill="#D49B40"/>
  <rect x="536.0" y="255.7" width="21" height="1.7" fill="#4DA5BB"/>
  <rect x="536.0" y="254.7" width="21" height="1.0" fill="#45AB8A"/>
  <rect x="536.0" y="253.4" width="21" height="1.3" fill="#D46565"/>
  <rect x="536.0" y="248.1" width="21" height="5.4" fill="#5B8ADB"/>
  <rect x="536.0" y="243.5" width="21" height="4.6" fill="#9B72CF"/>
  <rect x="536.0" y="155.5" width="21" height="88.0" fill="#D4693A"/>
  <rect x="536.0" y="152.4" width="21" height="3.1" fill="#52A87C"/>
  <text x="546.5" y="148.4" text-anchor="middle" font-size="8" font-weight="600" class="cb">20.0</text>
  <rect x="560.0" y="258.0" width="21" height="7.0" fill="#D49B40"/>
  <rect x="560.0" y="256.8" width="21" height="1.2" fill="#4DA5BB"/>
  <rect x="560.0" y="255.8" width="21" height="1.0" fill="#45AB8A"/>
  <rect x="560.0" y="254.6" width="21" height="1.2" fill="#D46565"/>
  <rect x="560.0" y="250.5" width="21" height="4.1" fill="#5B8ADB"/>
  <rect x="560.0" y="246.2" width="21" height="4.3" fill="#9B72CF"/>
  <rect x="560.0" y="161.3" width="21" height="84.9" fill="#D4693A"/>
  <rect x="560.0" y="159.2" width="21" height="2.1" fill="#52A87C"/>
  <text x="570.5" y="155.2" text-anchor="middle" font-size="8" font-weight="600" class="cb">18.8</text>
  <rect x="597.0" y="256.9" width="21" height="8.1" fill="#D49B40"/>
  <rect x="597.0" y="256.8" width="21" height="0.1" fill="#4DA5BB"/>
  <rect x="597.0" y="256.0" width="21" height="0.8" fill="#45AB8A"/>
  <rect x="597.0" y="255.1" width="21" height="0.9" fill="#D46565"/>
  <rect x="597.0" y="254.6" width="21" height="0.5" fill="#5B8ADB"/>
  <rect x="597.0" y="250.8" width="21" height="3.8" fill="#9B72CF"/>
  <rect x="597.0" y="174.2" width="21" height="76.7" fill="#D4693A"/>
  <rect x="597.0" y="173.9" width="21" height="0.3" fill="#52A87C"/>
  <text x="607.5" y="169.9" text-anchor="middle" font-size="8" font-weight="600" class="cb">16.2</text>
  <rect x="621.0" y="255.3" width="21" height="9.7" fill="#D49B40"/>
  <rect x="621.0" y="253.1" width="21" height="2.2" fill="#4DA5BB"/>
  <rect x="621.0" y="251.9" width="21" height="1.2" fill="#45AB8A"/>
  <rect x="621.0" y="250.7" width="21" height="1.2" fill="#D46565"/>
  <rect x="621.0" y="241.0" width="21" height="9.7" fill="#5B8ADB"/>
  <rect x="621.0" y="236.8" width="21" height="4.2" fill="#9B72CF"/>
  <rect x="621.0" y="145.3" width="21" height="91.5" fill="#D4693A"/>
  <rect x="621.0" y="141.1" width="21" height="4.1" fill="#52A87C"/>
  <text x="631.5" y="137.1" text-anchor="middle" font-size="8" font-weight="600" class="cb">22.0</text>
  <rect x="645.0" y="255.8" width="21" height="9.2" fill="#D49B40"/>
  <rect x="645.0" y="254.1" width="21" height="1.8" fill="#4DA5BB"/>
  <rect x="645.0" y="252.9" width="21" height="1.2" fill="#45AB8A"/>
  <rect x="645.0" y="251.6" width="21" height="1.3" fill="#D46565"/>
  <rect x="645.0" y="244.0" width="21" height="7.7" fill="#5B8ADB"/>
  <rect x="645.0" y="239.8" width="21" height="4.2" fill="#9B72CF"/>
  <rect x="645.0" y="147.4" width="21" height="92.3" fill="#D4693A"/>
  <rect x="645.0" y="144.3" width="21" height="3.1" fill="#52A87C"/>
  <text x="655.5" y="140.3" text-anchor="middle" font-size="8" font-weight="600" class="cb">21.4</text>
  <rect x="669.0" y="256.6" width="21" height="8.4" fill="#D49B40"/>
  <rect x="669.0" y="255.4" width="21" height="1.3" fill="#4DA5BB"/>
  <rect x="669.0" y="254.2" width="21" height="1.2" fill="#45AB8A"/>
  <rect x="669.0" y="252.9" width="21" height="1.3" fill="#D46565"/>
  <rect x="669.0" y="246.6" width="21" height="6.4" fill="#5B8ADB"/>
  <rect x="669.0" y="242.3" width="21" height="4.2" fill="#9B72CF"/>
  <rect x="669.0" y="151.1" width="21" height="91.2" fill="#D4693A"/>
  <rect x="669.0" y="148.7" width="21" height="2.4" fill="#52A87C"/>
  <text x="679.5" y="144.7" text-anchor="middle" font-size="8" font-weight="600" class="cb">20.6</text>
  <rect x="706.0" y="257.4" width="21" height="7.6" fill="#D49B40"/>
  <rect x="706.0" y="257.2" width="21" height="0.2" fill="#4DA5BB"/>
  <rect x="706.0" y="256.4" width="21" height="0.8" fill="#45AB8A"/>
  <rect x="706.0" y="255.4" width="21" height="1.0" fill="#D46565"/>
  <rect x="706.0" y="255.0" width="21" height="0.4" fill="#5B8ADB"/>
  <rect x="706.0" y="250.5" width="21" height="4.5" fill="#9B72CF"/>
  <rect x="706.0" y="162.2" width="21" height="88.2" fill="#D4693A"/>
  <rect x="706.0" y="161.6" width="21" height="0.7" fill="#52A87C"/>
  <text x="716.5" y="157.6" text-anchor="middle" font-size="8" font-weight="600" class="cb">18.4</text>
  <rect x="730.0" y="254.4" width="21" height="10.6" fill="#D49B40"/>
  <rect x="730.0" y="252.2" width="21" height="2.2" fill="#4DA5BB"/>
  <rect x="730.0" y="251.0" width="21" height="1.2" fill="#45AB8A"/>
  <rect x="730.0" y="249.5" width="21" height="1.5" fill="#D46565"/>
  <rect x="730.0" y="243.0" width="21" height="6.5" fill="#5B8ADB"/>
  <rect x="730.0" y="237.5" width="21" height="5.5" fill="#9B72CF"/>
  <rect x="730.0" y="129.7" width="21" height="107.7" fill="#D4693A"/>
  <rect x="730.0" y="124.7" width="21" height="5.1" fill="#52A87C"/>
  <text x="740.5" y="120.7" text-anchor="middle" font-size="8" font-weight="600" class="cb">24.9</text>
  <rect x="754.0" y="255.5" width="21" height="9.5" fill="#D49B40"/>
  <rect x="754.0" y="253.5" width="21" height="2.0" fill="#4DA5BB"/>
  <rect x="754.0" y="252.2" width="21" height="1.3" fill="#45AB8A"/>
  <rect x="754.0" y="250.4" width="21" height="1.8" fill="#D46565"/>
  <rect x="754.0" y="244.6" width="21" height="5.8" fill="#5B8ADB"/>
  <rect x="754.0" y="238.7" width="21" height="5.9" fill="#9B72CF"/>
  <rect x="754.0" y="130.2" width="21" height="108.6" fill="#D4693A"/>
  <rect x="754.0" y="126.3" width="21" height="3.8" fill="#52A87C"/>
  <text x="764.5" y="122.3" text-anchor="middle" font-size="8" font-weight="600" class="cb">24.6</text>
  <rect x="778.0" y="256.1" width="21" height="8.9" fill="#D49B40"/>
  <rect x="778.0" y="254.5" width="21" height="1.6" fill="#4DA5BB"/>
  <rect x="778.0" y="253.3" width="21" height="1.2" fill="#45AB8A"/>
  <rect x="778.0" y="251.8" width="21" height="1.5" fill="#D46565"/>
  <rect x="778.0" y="247.3" width="21" height="4.5" fill="#5B8ADB"/>
  <rect x="778.0" y="241.5" width="21" height="5.8" fill="#9B72CF"/>
  <rect x="778.0" y="131.9" width="21" height="109.6" fill="#D4693A"/>
  <rect x="778.0" y="128.5" width="21" height="3.4" fill="#52A87C"/>
  <text x="788.5" y="124.5" text-anchor="middle" font-size="8" font-weight="600" class="cb">24.2</text>
  <rect x="815.0" y="256.0" width="21" height="9.0" fill="#D49B40"/>
  <rect x="815.0" y="255.8" width="21" height="0.2" fill="#4DA5BB"/>
  <rect x="815.0" y="254.8" width="21" height="1.0" fill="#45AB8A"/>
  <rect x="815.0" y="253.7" width="21" height="1.1" fill="#D46565"/>
  <rect x="815.0" y="253.1" width="21" height="0.6" fill="#5B8ADB"/>
  <rect x="815.0" y="248.6" width="21" height="4.5" fill="#9B72CF"/>
  <rect x="815.0" y="156.0" width="21" height="92.5" fill="#D4693A"/>
  <rect x="815.0" y="155.2" width="21" height="0.9" fill="#52A87C"/>
  <text x="825.5" y="151.2" text-anchor="middle" font-size="8" font-weight="600" class="cb">19.5</text>
  <rect x="839.0" y="253.7" width="21" height="11.3" fill="#D49B40"/>
  <rect x="839.0" y="251.8" width="21" height="1.9" fill="#4DA5BB"/>
  <rect x="839.0" y="250.4" width="21" height="1.4" fill="#45AB8A"/>
  <rect x="839.0" y="248.9" width="21" height="1.5" fill="#D46565"/>
  <rect x="839.0" y="239.8" width="21" height="9.2" fill="#5B8ADB"/>
  <rect x="839.0" y="234.8" width="21" height="5.0" fill="#9B72CF"/>
  <rect x="839.0" y="127.9" width="21" height="106.9" fill="#D4693A"/>
  <rect x="839.0" y="123.6" width="21" height="4.3" fill="#52A87C"/>
  <text x="849.5" y="119.6" text-anchor="middle" font-size="8" font-weight="600" class="cb">25.1</text>
  <rect x="863.0" y="254.2" width="21" height="10.8" fill="#D49B40"/>
  <rect x="863.0" y="252.1" width="21" height="2.1" fill="#4DA5BB"/>
  <rect x="863.0" y="250.5" width="21" height="1.6" fill="#45AB8A"/>
  <rect x="863.0" y="249.0" width="21" height="1.5" fill="#D46565"/>
  <rect x="863.0" y="240.3" width="21" height="8.7" fill="#5B8ADB"/>
  <rect x="863.0" y="235.0" width="21" height="5.3" fill="#9B72CF"/>
  <rect x="863.0" y="122.5" width="21" height="112.4" fill="#D4693A"/>
  <rect x="863.0" y="118.6" width="21" height="4.0" fill="#52A87C"/>
  <text x="873.5" y="114.6" text-anchor="middle" font-size="8" font-weight="600" class="cb">26.0</text>
  <rect x="887.0" y="254.6" width="21" height="10.4" fill="#D49B40"/>
  <rect x="887.0" y="253.1" width="21" height="1.6" fill="#4DA5BB"/>
  <rect x="887.0" y="251.5" width="21" height="1.5" fill="#45AB8A"/>
  <rect x="887.0" y="250.0" width="21" height="1.5" fill="#D46565"/>
  <rect x="887.0" y="242.6" width="21" height="7.4" fill="#5B8ADB"/>
  <rect x="887.0" y="237.2" width="21" height="5.4" fill="#9B72CF"/>
  <rect x="887.0" y="123.1" width="21" height="114.2" fill="#D4693A"/>
  <rect x="887.0" y="119.9" width="21" height="3.2" fill="#52A87C"/>
  <text x="897.5" y="115.9" text-anchor="middle" font-size="8" font-weight="600" class="cb">25.8</text>

  <text x="62.5" y="278" text-anchor="middle" font-size="7.5" class="cs">0</text>
  <text x="86.5" y="278" text-anchor="middle" font-size="7.5" class="cs">1</text>
  <text x="110.5" y="278" text-anchor="middle" font-size="7.5" class="cs">2</text>
  <text x="134.5" y="278" text-anchor="middle" font-size="7.5" class="cs">4</text>
  <text x="171.5" y="278" text-anchor="middle" font-size="7.5" class="cs">0</text>
  <text x="195.5" y="278" text-anchor="middle" font-size="7.5" class="cs">1</text>
  <text x="219.5" y="278" text-anchor="middle" font-size="7.5" class="cs">2</text>
  <text x="243.5" y="278" text-anchor="middle" font-size="7.5" class="cs">4</text>
  <text x="280.5" y="278" text-anchor="middle" font-size="7.5" class="cs">0</text>
  <text x="304.5" y="278" text-anchor="middle" font-size="7.5" class="cs">1</text>
  <text x="328.5" y="278" text-anchor="middle" font-size="7.5" class="cs">2</text>
  <text x="352.5" y="278" text-anchor="middle" font-size="7.5" class="cs">4</text>
  <text x="389.5" y="278" text-anchor="middle" font-size="7.5" class="cs">0</text>
  <text x="413.5" y="278" text-anchor="middle" font-size="7.5" class="cs">1</text>
  <text x="437.5" y="278" text-anchor="middle" font-size="7.5" class="cs">2</text>
  <text x="461.5" y="278" text-anchor="middle" font-size="7.5" class="cs">4</text>
  <text x="498.5" y="278" text-anchor="middle" font-size="7.5" class="cs">0</text>
  <text x="522.5" y="278" text-anchor="middle" font-size="7.5" class="cs">1</text>
  <text x="546.5" y="278" text-anchor="middle" font-size="7.5" class="cs">2</text>
  <text x="570.5" y="278" text-anchor="middle" font-size="7.5" class="cs">4</text>
  <text x="607.5" y="278" text-anchor="middle" font-size="7.5" class="cs">0</text>
  <text x="631.5" y="278" text-anchor="middle" font-size="7.5" class="cs">1</text>
  <text x="655.5" y="278" text-anchor="middle" font-size="7.5" class="cs">2</text>
  <text x="679.5" y="278" text-anchor="middle" font-size="7.5" class="cs">4</text>
  <text x="716.5" y="278" text-anchor="middle" font-size="7.5" class="cs">0</text>
  <text x="740.5" y="278" text-anchor="middle" font-size="7.5" class="cs">1</text>
  <text x="764.5" y="278" text-anchor="middle" font-size="7.5" class="cs">2</text>
  <text x="788.5" y="278" text-anchor="middle" font-size="7.5" class="cs">4</text>
  <text x="825.5" y="278" text-anchor="middle" font-size="7.5" class="cs">0</text>
  <text x="849.5" y="278" text-anchor="middle" font-size="7.5" class="cs">1</text>
  <text x="873.5" y="278" text-anchor="middle" font-size="7.5" class="cs">2</text>
  <text x="897.5" y="278" text-anchor="middle" font-size="7.5" class="cs">4</text>

  <text x="98.5" y="293" text-anchor="middle" font-size="9.5" font-weight="700" class="cp">Tophat</text>
  <text x="98.5" y="306" text-anchor="middle" font-size="8.5" class="mi">ISM</text>
  <text x="207.5" y="293" text-anchor="middle" font-size="9.5" font-weight="700" class="cp">Tophat</text>
  <text x="207.5" y="306" text-anchor="middle" font-size="8.5" class="mw">wind</text>
  <text x="316.5" y="293" text-anchor="middle" font-size="9.5" font-weight="700" class="cp">Two-comp.</text>
  <text x="316.5" y="306" text-anchor="middle" font-size="8.5" class="mi">ISM</text>
  <text x="425.5" y="293" text-anchor="middle" font-size="9.5" font-weight="700" class="cp">Two-comp.</text>
  <text x="425.5" y="306" text-anchor="middle" font-size="8.5" class="mw">wind</text>
  <text x="534.5" y="293" text-anchor="middle" font-size="9.5" font-weight="700" class="cp">Gaussian</text>
  <text x="534.5" y="306" text-anchor="middle" font-size="8.5" class="mi">ISM</text>
  <text x="643.5" y="293" text-anchor="middle" font-size="9.5" font-weight="700" class="cp">Gaussian</text>
  <text x="643.5" y="306" text-anchor="middle" font-size="8.5" class="mw">wind</text>
  <text x="752.5" y="293" text-anchor="middle" font-size="9.5" font-weight="700" class="cp">Power-law</text>
  <text x="752.5" y="306" text-anchor="middle" font-size="8.5" class="mi">ISM</text>
  <text x="861.5" y="293" text-anchor="middle" font-size="9.5" font-weight="700" class="cp">Power-law</text>
  <text x="861.5" y="306" text-anchor="middle" font-size="8.5" class="mw">wind</text>

  <text x="13" y="180" text-anchor="middle" font-size="9" class="cs" transform="rotate(-90, 13, 180)">Wall time (ms)</text>

</svg>
