<?xml version="1.0" encoding="UTF-8"?>
<svg xmlns="http://www.w3.org/2000/svg" viewBox="0 0 950 360"
     font-family="-apple-system, 'Segoe UI', Roboto, 'Helvetica Neue', Arial, sans-serif">

  <style>
    .cp { fill: #E6EDF3; }
    .cs { fill: #A8B8CC; }
    .cb { fill: #D0DDE8; }
    .mi { fill: #5B8ADB; }
    .mw { fill: #45AB8A; }
    .gl { stroke: #2D3345; fill: none; }
  </style>

  <rect width="950" height="360" fill="transparent" rx="12"/>

  <text x="475" y="28" text-anchor="middle" font-size="15" font-weight="700" class="cp" letter-spacing="0.3">Performance · Reverse Shock</text>
  <text x="475" y="44" text-anchor="middle" font-size="9" class="cs">CPU time by stage · Apple M2 · single core · default resolution</text>
  <text x="475" y="57" text-anchor="middle" font-size="9" class="cs">each group: θv/θc = 0 │ 1 │ 2 │ 4 (left → right)</text>

  <rect x="213" y="67" width="12" height="12" rx="2" fill="#D49B40"/>
  <text x="229" y="78" font-size="10" class="cb">Shock Dynamics</text>
  <rect x="328" y="67" width="12" height="12" rx="2" fill="#4DA5BB"/>
  <text x="344" y="78" font-size="10" class="cb">EAT Grid</text>
  <rect x="407" y="67" width="12" height="12" rx="2" fill="#45AB8A"/>
  <text x="423" y="78" font-size="10" class="cb">Syn. Electrons</text>
  <rect x="522" y="67" width="12" height="12" rx="2" fill="#D46565"/>
  <text x="538" y="78" font-size="10" class="cb">Syn. Photons</text>
  <rect x="625" y="67" width="12" height="12" rx="2" fill="#5B8ADB"/>
  <text x="641" y="78" font-size="10" class="cb">Flux Integration</text>

  <line x1="52" y1="265" x2="935" y2="265" class="gl" stroke-width="1"/>
  <line x1="52" y1="222.8" x2="935" y2="222.8" class="gl" stroke-width="1" stroke-dasharray="4,3"/>
  <text x="48" y="226.8" text-anchor="end" font-size="8" class="cs">15 ms</text>
  <line x1="52" y1="180.5" x2="935" y2="180.5" class="gl" stroke-width="1" stroke-dasharray="4,3"/>
  <text x="48" y="184.5" text-anchor="end" font-size="8" class="cs">30 ms</text>
  <line x1="52" y1="138.2" x2="935" y2="138.2" class="gl" stroke-width="1" stroke-dasharray="4,3"/>
  <text x="48" y="142.2" text-anchor="end" font-size="8" class="cs">45 ms</text>
  <line x1="52" y1="96.0" x2="935" y2="96.0" class="gl" stroke-width="1" stroke-dasharray="4,3"/>
  <text x="48" y="100.0" text-anchor="end" font-size="8" class="cs">60 ms</text>
  <text x="48" y="269" text-anchor="end" font-size="8" class="cs">0</text>

  <rect x="52.0" y="264.6" width="21" height="0.4" fill="#D49B40"/>
  <rect x="52.0" y="264.2" width="21" height="0.4" fill="#4DA5BB"/>
  <rect x="52.0" y="263.5" width="21" height="0.7" fill="#45AB8A"/>
  <rect x="52.0" y="262.2" width="21" height="1.3" fill="#D46565"/>
  <rect x="52.0" y="261.7" width="21" height="0.5" fill="#5B8ADB"/>
  <text x="62.5" y="257.7" text-anchor="middle" font-size="8" font-weight="600" class="cb">1.2</text>
  <rect x="76.0" y="264.3" width="21" height="0.7" fill="#D49B40"/>
  <rect x="76.0" y="250.1" width="21" height="14.2" fill="#4DA5BB"/>
  <rect x="76.0" y="249.1" width="21" height="1.0" fill="#45AB8A"/>
  <rect x="76.0" y="247.2" width="21" height="1.8" fill="#D46565"/>
  <rect x="76.0" y="227.4" width="21" height="19.9" fill="#5B8ADB"/>
  <text x="86.5" y="223.4" text-anchor="middle" font-size="8" font-weight="600" class="cb">13.4</text>
  <rect x="100.0" y="264.4" width="21" height="0.6" fill="#D49B40"/>
  <rect x="100.0" y="249.7" width="21" height="14.7" fill="#4DA5BB"/>
  <rect x="100.0" y="248.6" width="21" height="1.2" fill="#45AB8A"/>
  <rect x="100.0" y="246.9" width="21" height="1.6" fill="#D46565"/>
  <rect x="100.0" y="226.0" width="21" height="20.9" fill="#5B8ADB"/>
  <text x="110.5" y="222.0" text-anchor="middle" font-size="8" font-weight="600" class="cb">13.8</text>
  <rect x="124.0" y="264.3" width="21" height="0.7" fill="#D49B40"/>
  <rect x="124.0" y="248.8" width="21" height="15.5" fill="#4DA5BB"/>
  <rect x="124.0" y="247.4" width="21" height="1.4" fill="#45AB8A"/>
  <rect x="124.0" y="245.4" width="21" height="1.9" fill="#D46565"/>
  <rect x="124.0" y="225.0" width="21" height="20.4" fill="#5B8ADB"/>
  <text x="134.5" y="221.0" text-anchor="middle" font-size="8" font-weight="600" class="cb">14.2</text>
  <rect x="161.0" y="264.5" width="21" height="0.5" fill="#D49B40"/>
  <rect x="161.0" y="264.1" width="21" height="0.5" fill="#4DA5BB"/>
  <rect x="161.0" y="263.2" width="21" height="0.8" fill="#45AB8A"/>
  <rect x="161.0" y="262.0" width="21" height="1.2" fill="#D46565"/>
  <rect x="161.0" y="261.5" width="21" height="0.5" fill="#5B8ADB"/>
  <text x="171.5" y="257.5" text-anchor="middle" font-size="8" font-weight="600" class="cb">1.2</text>
  <rect x="185.0" y="264.3" width="21" height="0.7" fill="#D49B40"/>
  <rect x="185.0" y="252.2" width="21" height="12.0" fill="#4DA5BB"/>
  <rect x="185.0" y="251.2" width="21" height="1.0" fill="#45AB8A"/>
  <rect x="185.0" y="249.9" width="21" height="1.3" fill="#D46565"/>
  <rect x="185.0" y="229.6" width="21" height="20.3" fill="#5B8ADB"/>
  <text x="195.5" y="225.6" text-anchor="middle" font-size="8" font-weight="600" class="cb">12.6</text>
  <rect x="209.0" y="264.4" width="21" height="0.6" fill="#D49B40"/>
  <rect x="209.0" y="250.6" width="21" height="13.9" fill="#4DA5BB"/>
  <rect x="209.0" y="249.4" width="21" height="1.1" fill="#45AB8A"/>
  <rect x="209.0" y="248.0" width="21" height="1.4" fill="#D46565"/>
  <rect x="209.0" y="225.4" width="21" height="22.6" fill="#5B8ADB"/>
  <text x="219.5" y="221.4" text-anchor="middle" font-size="8" font-weight="600" class="cb">14.0</text>
  <rect x="233.0" y="264.4" width="21" height="0.6" fill="#D49B40"/>
  <rect x="233.0" y="248.4" width="21" height="16.0" fill="#4DA5BB"/>
  <rect x="233.0" y="247.0" width="21" height="1.4" fill="#45AB8A"/>
  <rect x="233.0" y="245.2" width="21" height="1.8" fill="#D46565"/>
  <rect x="233.0" y="220.1" width="21" height="25.1" fill="#5B8ADB"/>
  <text x="243.5" y="216.1" text-anchor="middle" font-size="8" font-weight="600" class="cb">16.0</text>
  <rect x="270.0" y="264.1" width="21" height="0.9" fill="#D49B40"/>
  <rect x="270.0" y="263.3" width="21" height="0.8" fill="#4DA5BB"/>
  <rect x="270.0" y="262.1" width="21" height="1.2" fill="#45AB8A"/>
  <rect x="270.0" y="260.4" width="21" height="1.7" fill="#D46565"/>
  <rect x="270.0" y="259.8" width="21" height="0.6" fill="#5B8ADB"/>
  <text x="280.5" y="255.8" text-anchor="middle" font-size="8" font-weight="600" class="cb">1.9</text>
  <rect x="294.0" y="263.8" width="21" height="1.2" fill="#D49B40"/>
  <rect x="294.0" y="237.3" width="21" height="26.5" fill="#4DA5BB"/>
  <rect x="294.0" y="235.8" width="21" height="1.4" fill="#45AB8A"/>
  <rect x="294.0" y="233.5" width="21" height="2.4" fill="#D46565"/>
  <rect x="294.0" y="195.4" width="21" height="38.1" fill="#5B8ADB"/>
  <text x="304.5" y="191.4" text-anchor="middle" font-size="8" font-weight="600" class="cb">24.7</text>
  <rect x="318.0" y="263.9" width="21" height="1.1" fill="#D49B40"/>
  <rect x="318.0" y="246.7" width="21" height="17.2" fill="#4DA5BB"/>
  <rect x="318.0" y="245.3" width="21" height="1.4" fill="#45AB8A"/>
  <rect x="318.0" y="243.1" width="21" height="2.2" fill="#D46565"/>
  <rect x="318.0" y="220.3" width="21" height="22.8" fill="#5B8ADB"/>
  <text x="328.5" y="216.3" text-anchor="middle" font-size="8" font-weight="600" class="cb">15.9</text>
  <rect x="342.0" y="263.7" width="21" height="1.3" fill="#D49B40"/>
  <rect x="342.0" y="239.2" width="21" height="24.5" fill="#4DA5BB"/>
  <rect x="342.0" y="237.6" width="21" height="1.6" fill="#45AB8A"/>
  <rect x="342.0" y="235.3" width="21" height="2.4" fill="#D46565"/>
  <rect x="342.0" y="206.4" width="21" height="28.8" fill="#5B8ADB"/>
  <text x="352.5" y="202.4" text-anchor="middle" font-size="8" font-weight="600" class="cb">20.8</text>
  <rect x="379.0" y="264.1" width="21" height="0.9" fill="#D49B40"/>
  <rect x="379.0" y="263.5" width="21" height="0.6" fill="#4DA5BB"/>
  <rect x="379.0" y="262.5" width="21" height="1.0" fill="#45AB8A"/>
  <rect x="379.0" y="261.2" width="21" height="1.3" fill="#D46565"/>
  <rect x="379.0" y="260.5" width="21" height="0.6" fill="#5B8ADB"/>
  <text x="389.5" y="256.5" text-anchor="middle" font-size="8" font-weight="600" class="cb">1.6</text>
  <rect x="403.0" y="263.8" width="21" height="1.2" fill="#D49B40"/>
  <rect x="403.0" y="242.3" width="21" height="21.5" fill="#4DA5BB"/>
  <rect x="403.0" y="241.1" width="21" height="1.2" fill="#45AB8A"/>
  <rect x="403.0" y="239.5" width="21" height="1.7" fill="#D46565"/>
  <rect x="403.0" y="200.5" width="21" height="39.0" fill="#5B8ADB"/>
  <text x="413.5" y="196.5" text-anchor="middle" font-size="8" font-weight="600" class="cb">22.9</text>
  <rect x="427.0" y="263.9" width="21" height="1.1" fill="#D49B40"/>
  <rect x="427.0" y="249.6" width="21" height="14.3" fill="#4DA5BB"/>
  <rect x="427.0" y="248.5" width="21" height="1.1" fill="#45AB8A"/>
  <rect x="427.0" y="246.9" width="21" height="1.6" fill="#D46565"/>
  <rect x="427.0" y="222.6" width="21" height="24.3" fill="#5B8ADB"/>
  <text x="437.5" y="218.6" text-anchor="middle" font-size="8" font-weight="600" class="cb">15.0</text>
  <rect x="451.0" y="263.8" width="21" height="1.2" fill="#D49B40"/>
  <rect x="451.0" y="243.5" width="21" height="20.4" fill="#4DA5BB"/>
  <rect x="451.0" y="242.1" width="21" height="1.3" fill="#45AB8A"/>
  <rect x="451.0" y="240.2" width="21" height="2.0" fill="#D46565"/>
  <rect x="451.0" y="209.8" width="21" height="30.3" fill="#5B8ADB"/>
  <text x="461.5" y="205.8" text-anchor="middle" font-size="8" font-weight="600" class="cb">19.6</text>
  <rect x="488.0" y="253.9" width="21" height="11.1" fill="#D49B40"/>
  <rect x="488.0" y="253.2" width="21" height="0.7" fill="#4DA5BB"/>
  <rect x="488.0" y="250.0" width="21" height="3.2" fill="#45AB8A"/>
  <rect x="488.0" y="246.9" width="21" height="3.1" fill="#D46565"/>
  <rect x="488.0" y="246.3" width="21" height="0.7" fill="#5B8ADB"/>
  <text x="498.5" y="242.3" text-anchor="middle" font-size="8" font-weight="600" class="cb">6.7</text>
  <rect x="512.0" y="251.9" width="21" height="13.1" fill="#D49B40"/>
  <rect x="512.0" y="209.0" width="21" height="42.9" fill="#4DA5BB"/>
  <rect x="512.0" y="205.1" width="21" height="3.9" fill="#45AB8A"/>
  <rect x="512.0" y="200.1" width="21" height="4.9" fill="#D46565"/>
  <rect x="512.0" y="158.5" width="21" height="41.6" fill="#5B8ADB"/>
  <text x="522.5" y="154.5" text-anchor="middle" font-size="8" font-weight="600" class="cb">37.8</text>
  <rect x="536.0" y="253.4" width="21" height="11.6" fill="#D49B40"/>
  <rect x="536.0" y="226.0" width="21" height="27.5" fill="#4DA5BB"/>
  <rect x="536.0" y="222.1" width="21" height="3.9" fill="#45AB8A"/>
  <rect x="536.0" y="218.4" width="21" height="3.7" fill="#D46565"/>
  <rect x="536.0" y="192.6" width="21" height="25.8" fill="#5B8ADB"/>
  <text x="546.5" y="188.6" text-anchor="middle" font-size="8" font-weight="600" class="cb">25.7</text>
  <rect x="560.0" y="252.3" width="21" height="12.7" fill="#D49B40"/>
  <rect x="560.0" y="226.6" width="21" height="25.7" fill="#4DA5BB"/>
  <rect x="560.0" y="222.8" width="21" height="3.7" fill="#45AB8A"/>
  <rect x="560.0" y="219.3" width="21" height="3.5" fill="#D46565"/>
  <rect x="560.0" y="196.5" width="21" height="22.8" fill="#5B8ADB"/>
  <text x="570.5" y="192.5" text-anchor="middle" font-size="8" font-weight="600" class="cb">24.3</text>
  <rect x="597.0" y="254.4" width="21" height="10.6" fill="#D49B40"/>
  <rect x="597.0" y="253.5" width="21" height="0.8" fill="#4DA5BB"/>
  <rect x="597.0" y="250.2" width="21" height="3.4" fill="#45AB8A"/>
  <rect x="597.0" y="247.0" width="21" height="3.1" fill="#D46565"/>
  <rect x="597.0" y="246.3" width="21" height="0.7" fill="#5B8ADB"/>
  <text x="607.5" y="242.3" text-anchor="middle" font-size="8" font-weight="600" class="cb">6.6</text>
  <rect x="621.0" y="251.9" width="21" height="13.1" fill="#D49B40"/>
  <rect x="621.0" y="211.9" width="21" height="40.0" fill="#4DA5BB"/>
  <rect x="621.0" y="208.1" width="21" height="3.8" fill="#45AB8A"/>
  <rect x="621.0" y="204.5" width="21" height="3.6" fill="#D46565"/>
  <rect x="621.0" y="159.1" width="21" height="45.5" fill="#5B8ADB"/>
  <text x="631.5" y="155.1" text-anchor="middle" font-size="8" font-weight="600" class="cb">37.6</text>
  <rect x="645.0" y="252.9" width="21" height="12.1" fill="#D49B40"/>
  <rect x="645.0" y="225.7" width="21" height="27.2" fill="#4DA5BB"/>
  <rect x="645.0" y="221.5" width="21" height="4.2" fill="#45AB8A"/>
  <rect x="645.0" y="217.7" width="21" height="3.9" fill="#D46565"/>
  <rect x="645.0" y="187.0" width="21" height="30.6" fill="#5B8ADB"/>
  <text x="655.5" y="183.0" text-anchor="middle" font-size="8" font-weight="600" class="cb">27.7</text>
  <rect x="669.0" y="253.5" width="21" height="11.5" fill="#D49B40"/>
  <rect x="669.0" y="229.6" width="21" height="23.9" fill="#4DA5BB"/>
  <rect x="669.0" y="225.2" width="21" height="4.4" fill="#45AB8A"/>
  <rect x="669.0" y="221.2" width="21" height="3.9" fill="#D46565"/>
  <rect x="669.0" y="195.7" width="21" height="25.6" fill="#5B8ADB"/>
  <text x="679.5" y="191.7" text-anchor="middle" font-size="8" font-weight="600" class="cb">24.6</text>
  <rect x="706.0" y="249.5" width="21" height="15.5" fill="#D49B40"/>
  <rect x="706.0" y="248.5" width="21" height="1.0" fill="#4DA5BB"/>
  <rect x="706.0" y="244.3" width="21" height="4.2" fill="#45AB8A"/>
  <rect x="706.0" y="240.3" width="21" height="4.0" fill="#D46565"/>
  <rect x="706.0" y="239.4" width="21" height="0.9" fill="#5B8ADB"/>
  <text x="716.5" y="235.4" text-anchor="middle" font-size="8" font-weight="600" class="cb">9.1</text>
  <rect x="730.0" y="245.3" width="21" height="19.7" fill="#D49B40"/>
  <rect x="730.0" y="195.0" width="21" height="50.3" fill="#4DA5BB"/>
  <rect x="730.0" y="189.9" width="21" height="5.1" fill="#45AB8A"/>
  <rect x="730.0" y="185.3" width="21" height="4.6" fill="#D46565"/>
  <rect x="730.0" y="135.9" width="21" height="49.4" fill="#5B8ADB"/>
  <text x="740.5" y="131.9" text-anchor="middle" font-size="8" font-weight="600" class="cb">45.8</text>
  <rect x="754.0" y="246.9" width="21" height="18.1" fill="#D49B40"/>
  <rect x="754.0" y="203.9" width="21" height="43.0" fill="#4DA5BB"/>
  <rect x="754.0" y="198.9" width="21" height="5.0" fill="#45AB8A"/>
  <rect x="754.0" y="194.0" width="21" height="4.9" fill="#D46565"/>
  <rect x="754.0" y="151.1" width="21" height="42.9" fill="#5B8ADB"/>
  <text x="764.5" y="147.1" text-anchor="middle" font-size="8" font-weight="600" class="cb">40.4</text>
  <rect x="778.0" y="246.7" width="21" height="18.3" fill="#D49B40"/>
  <rect x="778.0" y="213.6" width="21" height="33.1" fill="#4DA5BB"/>
  <rect x="778.0" y="208.6" width="21" height="5.0" fill="#45AB8A"/>
  <rect x="778.0" y="203.8" width="21" height="4.8" fill="#D46565"/>
  <rect x="778.0" y="172.3" width="21" height="31.5" fill="#5B8ADB"/>
  <text x="788.5" y="168.3" text-anchor="middle" font-size="8" font-weight="600" class="cb">32.9</text>
  <rect x="815.0" y="250.4" width="21" height="14.6" fill="#D49B40"/>
  <rect x="815.0" y="249.4" width="21" height="1.0" fill="#4DA5BB"/>
  <rect x="815.0" y="245.1" width="21" height="4.3" fill="#45AB8A"/>
  <rect x="815.0" y="241.0" width="21" height="4.2" fill="#D46565"/>
  <rect x="815.0" y="240.1" width="21" height="0.9" fill="#5B8ADB"/>
  <text x="825.5" y="236.1" text-anchor="middle" font-size="8" font-weight="600" class="cb">8.8</text>
  <rect x="839.0" y="246.5" width="21" height="18.5" fill="#D49B40"/>
  <rect x="839.0" y="202.7" width="21" height="43.8" fill="#4DA5BB"/>
  <rect x="839.0" y="197.5" width="21" height="5.2" fill="#45AB8A"/>
  <rect x="839.0" y="193.1" width="21" height="4.4" fill="#D46565"/>
  <rect x="839.0" y="139.6" width="21" height="53.6" fill="#5B8ADB"/>
  <text x="849.5" y="135.6" text-anchor="middle" font-size="8" font-weight="600" class="cb">44.5</text>
  <rect x="863.0" y="248.1" width="21" height="16.9" fill="#D49B40"/>
  <rect x="863.0" y="207.1" width="21" height="41.0" fill="#4DA5BB"/>
  <rect x="863.0" y="201.3" width="21" height="5.8" fill="#45AB8A"/>
  <rect x="863.0" y="195.9" width="21" height="5.4" fill="#D46565"/>
  <rect x="863.0" y="150.0" width="21" height="45.9" fill="#5B8ADB"/>
  <text x="873.5" y="146.0" text-anchor="middle" font-size="8" font-weight="600" class="cb">40.8</text>
  <rect x="887.0" y="248.7" width="21" height="16.3" fill="#D49B40"/>
  <rect x="887.0" y="216.3" width="21" height="32.4" fill="#4DA5BB"/>
  <rect x="887.0" y="210.8" width="21" height="5.4" fill="#45AB8A"/>
  <rect x="887.0" y="206.2" width="21" height="4.6" fill="#D46565"/>
  <rect x="887.0" y="170.3" width="21" height="35.9" fill="#5B8ADB"/>
  <text x="897.5" y="166.3" text-anchor="middle" font-size="8" font-weight="600" class="cb">33.6</text>

  <text x="62.5" y="278" text-anchor="middle" font-size="7.5" class="cs">0</text>
  <text x="86.5" y="278" text-anchor="middle" font-size="7.5" class="cs">1</text>
  <text x="110.5" y="278" text-anchor="middle" font-size="7.5" class="cs">2</text>
  <text x="134.5" y="278" text-anchor="middle" font-size="7.5" class="cs">4</text>
  <text x="171.5" y="278" text-anchor="middle" font-size="7.5" class="cs">0</text>
  <text x="195.5" y="278" text-anchor="middle" font-size="7.5" class="cs">1</text>
  <text x="219.5" y="278" text-anchor="middle" font-size="7.5" class="cs">2</text>
  <text x="243.5" y="278" text-anchor="middle" font-size="7.5" class="cs">4</text>
  <text x="280.5" y="278" text-anchor="middle" font-size="7.5" class="cs">0</text>
  <text x="304.5" y="278" text-anchor="middle" font-size="7.5" class="cs">1</text>
  <text x="328.5" y="278" text-anchor="middle" font-size="7.5" class="cs">2</text>
  <text x="352.5" y="278" text-anchor="middle" font-size="7.5" class="cs">4</text>
  <text x="389.5" y="278" text-anchor="middle" font-size="7.5" class="cs">0</text>
  <text x="413.5" y="278" text-anchor="middle" font-size="7.5" class="cs">1</text>
  <text x="437.5" y="278" text-anchor="middle" font-size="7.5" class="cs">2</text>
  <text x="461.5" y="278" text-anchor="middle" font-size="7.5" class="cs">4</text>
  <text x="498.5" y="278" text-anchor="middle" font-size="7.5" class="cs">0</text>
  <text x="522.5" y="278" text-anchor="middle" font-size="7.5" class="cs">1</text>
  <text x="546.5" y="278" text-anchor="middle" font-size="7.5" class="cs">2</text>
  <text x="570.5" y="278" text-anchor="middle" font-size="7.5" class="cs">4</text>
  <text x="607.5" y="278" text-anchor="middle" font-size="7.5" class="cs">0</text>
  <text x="631.5" y="278" text-anchor="middle" font-size="7.5" class="cs">1</text>
  <text x="655.5" y="278" text-anchor="middle" font-size="7.5" class="cs">2</text>
  <text x="679.5" y="278" text-anchor="middle" font-size="7.5" class="cs">4</text>
  <text x="716.5" y="278" text-anchor="middle" font-size="7.5" class="cs">0</text>
  <text x="740.5" y="278" text-anchor="middle" font-size="7.5" class="cs">1</text>
  <text x="764.5" y="278" text-anchor="middle" font-size="7.5" class="cs">2</text>
  <text x="788.5" y="278" text-anchor="middle" font-size="7.5" class="cs">4</text>
  <text x="825.5" y="278" text-anchor="middle" font-size="7.5" class="cs">0</text>
  <text x="849.5" y="278" text-anchor="middle" font-size="7.5" class="cs">1</text>
  <text x="873.5" y="278" text-anchor="middle" font-size="7.5" class="cs">2</text>
  <text x="897.5" y="278" text-anchor="middle" font-size="7.5" class="cs">4</text>

  <text x="98.5" y="293" text-anchor="middle" font-size="9.5" font-weight="700" class="cp">Tophat</text>
  <text x="98.5" y="306" text-anchor="middle" font-size="8.5" class="mi">ISM</text>
  <text x="207.5" y="293" text-anchor="middle" font-size="9.5" font-weight="700" class="cp">Tophat</text>
  <text x="207.5" y="306" text-anchor="middle" font-size="8.5" class="mw">wind</text>
  <text x="316.5" y="293" text-anchor="middle" font-size="9.5" font-weight="700" class="cp">Two-comp.</text>
  <text x="316.5" y="306" text-anchor="middle" font-size="8.5" class="mi">ISM</text>
  <text x="425.5" y="293" text-anchor="middle" font-size="9.5" font-weight="700" class="cp">Two-comp.</text>
  <text x="425.5" y="306" text-anchor="middle" font-size="8.5" class="mw">wind</text>
  <text x="534.5" y="293" text-anchor="middle" font-size="9.5" font-weight="700" class="cp">Gaussian</text>
  <text x="534.5" y="306" text-anchor="middle" font-size="8.5" class="mi">ISM</text>
  <text x="643.5" y="293" text-anchor="middle" font-size="9.5" font-weight="700" class="cp">Gaussian</text>
  <text x="643.5" y="306" text-anchor="middle" font-size="8.5" class="mw">wind</text>
  <text x="752.5" y="293" text-anchor="middle" font-size="9.5" font-weight="700" class="cp">Power-law</text>
  <text x="752.5" y="306" text-anchor="middle" font-size="8.5" class="mi">ISM</text>
  <text x="861.5" y="293" text-anchor="middle" font-size="9.5" font-weight="700" class="cp">Power-law</text>
  <text x="861.5" y="306" text-anchor="middle" font-size="8.5" class="mw">wind</text>

  <text x="13" y="180" text-anchor="middle" font-size="9" class="cs" transform="rotate(-90, 13, 180)">Wall time (ms)</text>

</svg>
