<?xml version="1.0" encoding="UTF-8"?>
<svg xmlns="http://www.w3.org/2000/svg" viewBox="0 0 950 360"
     font-family="-apple-system, 'Segoe UI', Roboto, 'Helvetica Neue', Arial, sans-serif">

  <style>
    .cp { fill: #24292F; }
    .cs { fill: #57606A; }
    .cb { fill: #24292F; }
    .mi { fill: #0969DA; }
    .mw { fill: #1A7F37; }
    .gl { stroke: #D0D7DE; fill: none; }
  </style>

  <rect width="950" height="360" fill="transparent" rx="12"/>

  <text x="475" y="28" text-anchor="middle" font-size="15" font-weight="700" class="cp" letter-spacing="0.3">Performance · Synchrotron</text>
  <text x="475" y="44" text-anchor="middle" font-size="9" class="cs">CPU time by stage · Apple M2 · single core · default resolution</text>
  <text x="475" y="57" text-anchor="middle" font-size="9" class="cs">each group: θv/θc = 0 │ 1 │ 2 │ 4 (left → right)</text>

  <rect x="213" y="67" width="12" height="12" rx="2" fill="#D49B40"/>
  <text x="229" y="78" font-size="10" class="cb">Shock Dynamics</text>
  <rect x="328" y="67" width="12" height="12" rx="2" fill="#4DA5BB"/>
  <text x="344" y="78" font-size="10" class="cb">EAT Grid</text>
  <rect x="407" y="67" width="12" height="12" rx="2" fill="#45AB8A"/>
  <text x="423" y="78" font-size="10" class="cb">Syn. Electrons</text>
  <rect x="522" y="67" width="12" height="12" rx="2" fill="#D46565"/>
  <text x="538" y="78" font-size="10" class="cb">Syn. Photons</text>
  <rect x="625" y="67" width="12" height="12" rx="2" fill="#5B8ADB"/>
  <text x="641" y="78" font-size="10" class="cb">Flux Integration</text>

  <line x1="52" y1="265" x2="935" y2="265" class="gl" stroke-width="1"/>
  <line x1="52" y1="222.8" x2="935" y2="222.8" class="gl" stroke-width="1" stroke-dasharray="4,3"/>
  <text x="48" y="226.8" text-anchor="end" font-size="8" class="cs">5 ms</text>
  <line x1="52" y1="180.5" x2="935" y2="180.5" class="gl" stroke-width="1" stroke-dasharray="4,3"/>
  <text x="48" y="184.5" text-anchor="end" font-size="8" class="cs">10 ms</text>
  <line x1="52" y1="138.2" x2="935" y2="138.2" class="gl" stroke-width="1" stroke-dasharray="4,3"/>
  <text x="48" y="142.2" text-anchor="end" font-size="8" class="cs">15 ms</text>
  <line x1="52" y1="96.0" x2="935" y2="96.0" class="gl" stroke-width="1" stroke-dasharray="4,3"/>
  <text x="48" y="100.0" text-anchor="end" font-size="8" class="cs">20 ms</text>
  <text x="48" y="269" text-anchor="end" font-size="8" class="cs">0</text>

  <rect x="52.0" y="264.2" width="21" height="0.8" fill="#D49B40"/>
  <rect x="52.0" y="263.8" width="21" height="0.4" fill="#4DA5BB"/>
  <rect x="52.0" y="262.7" width="21" height="1.1" fill="#45AB8A"/>
  <rect x="52.0" y="261.2" width="21" height="1.5" fill="#D46565"/>
  <rect x="52.0" y="260.3" width="21" height="0.9" fill="#5B8ADB"/>
  <text x="62.5" y="256.3" text-anchor="middle" font-size="8" font-weight="600" class="cb">0.6</text>
  <rect x="76.0" y="263.3" width="21" height="1.7" fill="#D49B40"/>
  <rect x="76.0" y="247.6" width="21" height="15.6" fill="#4DA5BB"/>
  <rect x="76.0" y="246.3" width="21" height="1.3" fill="#45AB8A"/>
  <rect x="76.0" y="244.1" width="21" height="2.2" fill="#D46565"/>
  <rect x="76.0" y="206.0" width="21" height="38.2" fill="#5B8ADB"/>
  <text x="86.5" y="202.0" text-anchor="middle" font-size="8" font-weight="600" class="cb">7.0</text>
  <rect x="100.0" y="263.4" width="21" height="1.6" fill="#D49B40"/>
  <rect x="100.0" y="246.5" width="21" height="17.0" fill="#4DA5BB"/>
  <rect x="100.0" y="244.8" width="21" height="1.7" fill="#45AB8A"/>
  <rect x="100.0" y="242.9" width="21" height="1.8" fill="#D46565"/>
  <rect x="100.0" y="207.0" width="21" height="36.0" fill="#5B8ADB"/>
  <text x="110.5" y="203.0" text-anchor="middle" font-size="8" font-weight="600" class="cb">6.9</text>
  <rect x="124.0" y="263.5" width="21" height="1.5" fill="#D49B40"/>
  <rect x="124.0" y="244.5" width="21" height="19.0" fill="#4DA5BB"/>
  <rect x="124.0" y="243.1" width="21" height="1.4" fill="#45AB8A"/>
  <rect x="124.0" y="240.8" width="21" height="2.3" fill="#D46565"/>
  <rect x="124.0" y="207.2" width="21" height="33.6" fill="#5B8ADB"/>
  <text x="134.5" y="203.2" text-anchor="middle" font-size="8" font-weight="600" class="cb">6.8</text>
  <rect x="161.0" y="264.1" width="21" height="0.9" fill="#D49B40"/>
  <rect x="161.0" y="263.7" width="21" height="0.4" fill="#4DA5BB"/>
  <rect x="161.0" y="262.7" width="21" height="1.1" fill="#45AB8A"/>
  <rect x="161.0" y="261.3" width="21" height="1.4" fill="#D46565"/>
  <rect x="161.0" y="260.4" width="21" height="0.9" fill="#5B8ADB"/>
  <text x="171.5" y="256.4" text-anchor="middle" font-size="8" font-weight="600" class="cb">0.5</text>
  <rect x="185.0" y="263.1" width="21" height="1.9" fill="#D49B40"/>
  <rect x="185.0" y="248.2" width="21" height="14.9" fill="#4DA5BB"/>
  <rect x="185.0" y="247.0" width="21" height="1.2" fill="#45AB8A"/>
  <rect x="185.0" y="245.1" width="21" height="1.9" fill="#D46565"/>
  <rect x="185.0" y="211.0" width="21" height="34.2" fill="#5B8ADB"/>
  <text x="195.5" y="207.0" text-anchor="middle" font-size="8" font-weight="600" class="cb">6.4</text>
  <rect x="209.0" y="263.6" width="21" height="1.4" fill="#D49B40"/>
  <rect x="209.0" y="247.2" width="21" height="16.4" fill="#4DA5BB"/>
  <rect x="209.0" y="245.9" width="21" height="1.3" fill="#45AB8A"/>
  <rect x="209.0" y="244.0" width="21" height="1.9" fill="#D46565"/>
  <rect x="209.0" y="206.8" width="21" height="37.1" fill="#5B8ADB"/>
  <text x="219.5" y="202.8" text-anchor="middle" font-size="8" font-weight="600" class="cb">6.9</text>
  <rect x="233.0" y="263.7" width="21" height="1.3" fill="#D49B40"/>
  <rect x="233.0" y="245.9" width="21" height="17.8" fill="#4DA5BB"/>
  <rect x="233.0" y="245.1" width="21" height="0.8" fill="#45AB8A"/>
  <rect x="233.0" y="243.1" width="21" height="2.0" fill="#D46565"/>
  <rect x="233.0" y="202.7" width="21" height="40.3" fill="#5B8ADB"/>
  <text x="243.5" y="198.7" text-anchor="middle" font-size="8" font-weight="600" class="cb">7.4</text>
  <rect x="270.0" y="263.8" width="21" height="1.2" fill="#D49B40"/>
  <rect x="270.0" y="263.3" width="21" height="0.5" fill="#4DA5BB"/>
  <rect x="270.0" y="262.2" width="21" height="1.1" fill="#45AB8A"/>
  <rect x="270.0" y="260.6" width="21" height="1.6" fill="#D46565"/>
  <rect x="270.0" y="259.6" width="21" height="1.0" fill="#5B8ADB"/>
  <text x="280.5" y="255.6" text-anchor="middle" font-size="8" font-weight="600" class="cb">0.6</text>
  <rect x="294.0" y="262.5" width="21" height="2.5" fill="#D49B40"/>
  <rect x="294.0" y="237.4" width="21" height="25.2" fill="#4DA5BB"/>
  <rect x="294.0" y="236.1" width="21" height="1.3" fill="#45AB8A"/>
  <rect x="294.0" y="234.2" width="21" height="1.9" fill="#D46565"/>
  <rect x="294.0" y="175.3" width="21" height="58.9" fill="#5B8ADB"/>
  <text x="304.5" y="171.3" text-anchor="middle" font-size="8" font-weight="600" class="cb">10.6</text>
  <rect x="318.0" y="263.0" width="21" height="2.0" fill="#D49B40"/>
  <rect x="318.0" y="244.8" width="21" height="18.3" fill="#4DA5BB"/>
  <rect x="318.0" y="242.6" width="21" height="2.1" fill="#45AB8A"/>
  <rect x="318.0" y="239.3" width="21" height="3.3" fill="#D46565"/>
  <rect x="318.0" y="205.0" width="21" height="34.3" fill="#5B8ADB"/>
  <text x="328.5" y="201.0" text-anchor="middle" font-size="8" font-weight="600" class="cb">7.1</text>
  <rect x="342.0" y="262.8" width="21" height="2.2" fill="#D49B40"/>
  <rect x="342.0" y="240.5" width="21" height="22.3" fill="#4DA5BB"/>
  <rect x="342.0" y="239.1" width="21" height="1.4" fill="#45AB8A"/>
  <rect x="342.0" y="237.0" width="21" height="2.1" fill="#D46565"/>
  <rect x="342.0" y="193.1" width="21" height="43.9" fill="#5B8ADB"/>
  <text x="352.5" y="189.1" text-anchor="middle" font-size="8" font-weight="600" class="cb">8.5</text>
  <rect x="379.0" y="263.7" width="21" height="1.3" fill="#D49B40"/>
  <rect x="379.0" y="263.3" width="21" height="0.4" fill="#4DA5BB"/>
  <rect x="379.0" y="262.0" width="21" height="1.2" fill="#45AB8A"/>
  <rect x="379.0" y="260.4" width="21" height="1.7" fill="#D46565"/>
  <rect x="379.0" y="259.4" width="21" height="1.0" fill="#5B8ADB"/>
  <text x="389.5" y="255.4" text-anchor="middle" font-size="8" font-weight="600" class="cb">0.7</text>
  <rect x="403.0" y="262.5" width="21" height="2.5" fill="#D49B40"/>
  <rect x="403.0" y="237.3" width="21" height="25.2" fill="#4DA5BB"/>
  <rect x="403.0" y="236.0" width="21" height="1.3" fill="#45AB8A"/>
  <rect x="403.0" y="234.1" width="21" height="1.9" fill="#D46565"/>
  <rect x="403.0" y="170.4" width="21" height="63.7" fill="#5B8ADB"/>
  <text x="413.5" y="166.4" text-anchor="middle" font-size="8" font-weight="600" class="cb">11.2</text>
  <rect x="427.0" y="262.9" width="21" height="2.1" fill="#D49B40"/>
  <rect x="427.0" y="245.9" width="21" height="17.0" fill="#4DA5BB"/>
  <rect x="427.0" y="244.4" width="21" height="1.5" fill="#45AB8A"/>
  <rect x="427.0" y="242.0" width="21" height="2.4" fill="#D46565"/>
  <rect x="427.0" y="202.5" width="21" height="39.5" fill="#5B8ADB"/>
  <text x="437.5" y="198.5" text-anchor="middle" font-size="8" font-weight="600" class="cb">7.4</text>
  <rect x="451.0" y="262.7" width="21" height="2.3" fill="#D49B40"/>
  <rect x="451.0" y="239.6" width="21" height="23.2" fill="#4DA5BB"/>
  <rect x="451.0" y="237.2" width="21" height="2.3" fill="#45AB8A"/>
  <rect x="451.0" y="235.2" width="21" height="2.0" fill="#D46565"/>
  <rect x="451.0" y="184.8" width="21" height="50.5" fill="#5B8ADB"/>
  <text x="461.5" y="180.8" text-anchor="middle" font-size="8" font-weight="600" class="cb">9.5</text>
  <rect x="488.0" y="254.2" width="21" height="10.8" fill="#D49B40"/>
  <rect x="488.0" y="253.8" width="21" height="0.4" fill="#4DA5BB"/>
  <rect x="488.0" y="251.7" width="21" height="2.1" fill="#45AB8A"/>
  <rect x="488.0" y="249.5" width="21" height="2.3" fill="#D46565"/>
  <rect x="488.0" y="248.6" width="21" height="0.9" fill="#5B8ADB"/>
  <text x="498.5" y="244.6" text-anchor="middle" font-size="8" font-weight="600" class="cb">1.9</text>
  <rect x="512.0" y="250.2" width="21" height="14.8" fill="#D49B40"/>
  <rect x="512.0" y="218.6" width="21" height="31.6" fill="#4DA5BB"/>
  <rect x="512.0" y="215.5" width="21" height="3.1" fill="#45AB8A"/>
  <rect x="512.0" y="212.5" width="21" height="3.1" fill="#D46565"/>
  <rect x="512.0" y="149.7" width="21" height="62.8" fill="#5B8ADB"/>
  <text x="522.5" y="145.7" text-anchor="middle" font-size="8" font-weight="600" class="cb">13.6</text>
  <rect x="536.0" y="252.9" width="21" height="12.1" fill="#D49B40"/>
  <rect x="536.0" y="232.8" width="21" height="20.1" fill="#4DA5BB"/>
  <rect x="536.0" y="229.9" width="21" height="2.9" fill="#45AB8A"/>
  <rect x="536.0" y="226.8" width="21" height="3.1" fill="#D46565"/>
  <rect x="536.0" y="187.4" width="21" height="39.5" fill="#5B8ADB"/>
  <text x="546.5" y="183.4" text-anchor="middle" font-size="8" font-weight="600" class="cb">9.2</text>
  <rect x="560.0" y="253.7" width="21" height="11.3" fill="#D49B40"/>
  <rect x="560.0" y="234.0" width="21" height="19.7" fill="#4DA5BB"/>
  <rect x="560.0" y="231.1" width="21" height="2.9" fill="#45AB8A"/>
  <rect x="560.0" y="228.0" width="21" height="3.1" fill="#D46565"/>
  <rect x="560.0" y="195.7" width="21" height="32.4" fill="#5B8ADB"/>
  <text x="570.5" y="191.7" text-anchor="middle" font-size="8" font-weight="600" class="cb">8.2</text>
  <rect x="597.0" y="251.5" width="21" height="13.5" fill="#D49B40"/>
  <rect x="597.0" y="251.1" width="21" height="0.4" fill="#4DA5BB"/>
  <rect x="597.0" y="248.5" width="21" height="2.6" fill="#45AB8A"/>
  <rect x="597.0" y="246.0" width="21" height="2.5" fill="#D46565"/>
  <rect x="597.0" y="245.0" width="21" height="1.0" fill="#5B8ADB"/>
  <text x="607.5" y="241.0" text-anchor="middle" font-size="8" font-weight="600" class="cb">2.4</text>
  <rect x="621.0" y="248.8" width="21" height="16.2" fill="#D49B40"/>
  <rect x="621.0" y="215.2" width="21" height="33.6" fill="#4DA5BB"/>
  <rect x="621.0" y="212.4" width="21" height="2.9" fill="#45AB8A"/>
  <rect x="621.0" y="209.6" width="21" height="2.8" fill="#D46565"/>
  <rect x="621.0" y="138.8" width="21" height="70.8" fill="#5B8ADB"/>
  <text x="631.5" y="134.8" text-anchor="middle" font-size="8" font-weight="600" class="cb">14.9</text>
  <rect x="645.0" y="250.8" width="21" height="14.2" fill="#D49B40"/>
  <rect x="645.0" y="230.1" width="21" height="20.6" fill="#4DA5BB"/>
  <rect x="645.0" y="227.0" width="21" height="3.2" fill="#45AB8A"/>
  <rect x="645.0" y="223.7" width="21" height="3.3" fill="#D46565"/>
  <rect x="645.0" y="178.7" width="21" height="45.0" fill="#5B8ADB"/>
  <text x="655.5" y="174.7" text-anchor="middle" font-size="8" font-weight="600" class="cb">10.2</text>
  <rect x="669.0" y="251.6" width="21" height="13.4" fill="#D49B40"/>
  <rect x="669.0" y="232.6" width="21" height="19.0" fill="#4DA5BB"/>
  <rect x="669.0" y="229.2" width="21" height="3.4" fill="#45AB8A"/>
  <rect x="669.0" y="225.9" width="21" height="3.3" fill="#D46565"/>
  <rect x="669.0" y="185.0" width="21" height="40.9" fill="#5B8ADB"/>
  <text x="679.5" y="181.0" text-anchor="middle" font-size="8" font-weight="600" class="cb">9.5</text>
  <rect x="706.0" y="252.1" width="21" height="12.9" fill="#D49B40"/>
  <rect x="706.0" y="251.5" width="21" height="0.6" fill="#4DA5BB"/>
  <rect x="706.0" y="248.6" width="21" height="2.9" fill="#45AB8A"/>
  <rect x="706.0" y="246.0" width="21" height="2.6" fill="#D46565"/>
  <rect x="706.0" y="244.8" width="21" height="1.2" fill="#5B8ADB"/>
  <text x="716.5" y="240.8" text-anchor="middle" font-size="8" font-weight="600" class="cb">2.4</text>
  <rect x="730.0" y="246.5" width="21" height="18.5" fill="#D49B40"/>
  <rect x="730.0" y="208.3" width="21" height="38.2" fill="#4DA5BB"/>
  <rect x="730.0" y="204.8" width="21" height="3.5" fill="#45AB8A"/>
  <rect x="730.0" y="201.3" width="21" height="3.5" fill="#D46565"/>
  <rect x="730.0" y="129.1" width="21" height="72.2" fill="#5B8ADB"/>
  <text x="740.5" y="125.1" text-anchor="middle" font-size="8" font-weight="600" class="cb">16.1</text>
  <rect x="754.0" y="248.1" width="21" height="16.9" fill="#D49B40"/>
  <rect x="754.0" y="214.2" width="21" height="33.8" fill="#4DA5BB"/>
  <rect x="754.0" y="209.9" width="21" height="4.3" fill="#45AB8A"/>
  <rect x="754.0" y="206.3" width="21" height="3.6" fill="#D46565"/>
  <rect x="754.0" y="143.7" width="21" height="62.6" fill="#5B8ADB"/>
  <text x="764.5" y="139.7" text-anchor="middle" font-size="8" font-weight="600" class="cb">14.4</text>
  <rect x="778.0" y="249.7" width="21" height="15.3" fill="#D49B40"/>
  <rect x="778.0" y="223.6" width="21" height="26.1" fill="#4DA5BB"/>
  <rect x="778.0" y="219.5" width="21" height="4.1" fill="#45AB8A"/>
  <rect x="778.0" y="215.9" width="21" height="3.6" fill="#D46565"/>
  <rect x="778.0" y="168.0" width="21" height="47.9" fill="#5B8ADB"/>
  <text x="788.5" y="164.0" text-anchor="middle" font-size="8" font-weight="600" class="cb">11.5</text>
  <rect x="815.0" y="249.9" width="21" height="15.1" fill="#D49B40"/>
  <rect x="815.0" y="249.3" width="21" height="0.6" fill="#4DA5BB"/>
  <rect x="815.0" y="246.1" width="21" height="3.2" fill="#45AB8A"/>
  <rect x="815.0" y="242.7" width="21" height="3.4" fill="#D46565"/>
  <rect x="815.0" y="241.4" width="21" height="1.3" fill="#5B8ADB"/>
  <text x="825.5" y="237.4" text-anchor="middle" font-size="8" font-weight="600" class="cb">2.8</text>
  <rect x="839.0" y="245.4" width="21" height="19.6" fill="#D49B40"/>
  <rect x="839.0" y="207.5" width="21" height="37.8" fill="#4DA5BB"/>
  <rect x="839.0" y="203.4" width="21" height="4.1" fill="#45AB8A"/>
  <rect x="839.0" y="199.7" width="21" height="3.7" fill="#D46565"/>
  <rect x="839.0" y="113.9" width="21" height="85.8" fill="#5B8ADB"/>
  <text x="849.5" y="109.9" text-anchor="middle" font-size="8" font-weight="600" class="cb">17.9</text>
  <rect x="863.0" y="244.3" width="21" height="20.7" fill="#D49B40"/>
  <rect x="863.0" y="210.2" width="21" height="34.1" fill="#4DA5BB"/>
  <rect x="863.0" y="206.1" width="21" height="4.1" fill="#45AB8A"/>
  <rect x="863.0" y="202.5" width="21" height="3.7" fill="#D46565"/>
  <rect x="863.0" y="130.5" width="21" height="71.9" fill="#5B8ADB"/>
  <text x="873.5" y="126.5" text-anchor="middle" font-size="8" font-weight="600" class="cb">15.9</text>
  <rect x="887.0" y="246.8" width="21" height="18.2" fill="#D49B40"/>
  <rect x="887.0" y="220.1" width="21" height="26.7" fill="#4DA5BB"/>
  <rect x="887.0" y="215.9" width="21" height="4.2" fill="#45AB8A"/>
  <rect x="887.0" y="212.0" width="21" height="3.8" fill="#D46565"/>
  <rect x="887.0" y="155.7" width="21" height="56.4" fill="#5B8ADB"/>
  <text x="897.5" y="151.7" text-anchor="middle" font-size="8" font-weight="600" class="cb">12.9</text>

  <text x="62.5" y="278" text-anchor="middle" font-size="7.5" class="cs">0</text>
  <text x="86.5" y="278" text-anchor="middle" font-size="7.5" class="cs">1</text>
  <text x="110.5" y="278" text-anchor="middle" font-size="7.5" class="cs">2</text>
  <text x="134.5" y="278" text-anchor="middle" font-size="7.5" class="cs">4</text>
  <text x="171.5" y="278" text-anchor="middle" font-size="7.5" class="cs">0</text>
  <text x="195.5" y="278" text-anchor="middle" font-size="7.5" class="cs">1</text>
  <text x="219.5" y="278" text-anchor="middle" font-size="7.5" class="cs">2</text>
  <text x="243.5" y="278" text-anchor="middle" font-size="7.5" class="cs">4</text>
  <text x="280.5" y="278" text-anchor="middle" font-size="7.5" class="cs">0</text>
  <text x="304.5" y="278" text-anchor="middle" font-size="7.5" class="cs">1</text>
  <text x="328.5" y="278" text-anchor="middle" font-size="7.5" class="cs">2</text>
  <text x="352.5" y="278" text-anchor="middle" font-size="7.5" class="cs">4</text>
  <text x="389.5" y="278" text-anchor="middle" font-size="7.5" class="cs">0</text>
  <text x="413.5" y="278" text-anchor="middle" font-size="7.5" class="cs">1</text>
  <text x="437.5" y="278" text-anchor="middle" font-size="7.5" class="cs">2</text>
  <text x="461.5" y="278" text-anchor="middle" font-size="7.5" class="cs">4</text>
  <text x="498.5" y="278" text-anchor="middle" font-size="7.5" class="cs">0</text>
  <text x="522.5" y="278" text-anchor="middle" font-size="7.5" class="cs">1</text>
  <text x="546.5" y="278" text-anchor="middle" font-size="7.5" class="cs">2</text>
  <text x="570.5" y="278" text-anchor="middle" font-size="7.5" class="cs">4</text>
  <text x="607.5" y="278" text-anchor="middle" font-size="7.5" class="cs">0</text>
  <text x="631.5" y="278" text-anchor="middle" font-size="7.5" class="cs">1</text>
  <text x="655.5" y="278" text-anchor="middle" font-size="7.5" class="cs">2</text>
  <text x="679.5" y="278" text-anchor="middle" font-size="7.5" class="cs">4</text>
  <text x="716.5" y="278" text-anchor="middle" font-size="7.5" class="cs">0</text>
  <text x="740.5" y="278" text-anchor="middle" font-size="7.5" class="cs">1</text>
  <text x="764.5" y="278" text-anchor="middle" font-size="7.5" class="cs">2</text>
  <text x="788.5" y="278" text-anchor="middle" font-size="7.5" class="cs">4</text>
  <text x="825.5" y="278" text-anchor="middle" font-size="7.5" class="cs">0</text>
  <text x="849.5" y="278" text-anchor="middle" font-size="7.5" class="cs">1</text>
  <text x="873.5" y="278" text-anchor="middle" font-size="7.5" class="cs">2</text>
  <text x="897.5" y="278" text-anchor="middle" font-size="7.5" class="cs">4</text>

  <text x="98.5" y="293" text-anchor="middle" font-size="9.5" font-weight="700" class="cp">Tophat</text>
  <text x="98.5" y="306" text-anchor="middle" font-size="8.5" class="mi">ISM</text>
  <text x="207.5" y="293" text-anchor="middle" font-size="9.5" font-weight="700" class="cp">Tophat</text>
  <text x="207.5" y="306" text-anchor="middle" font-size="8.5" class="mw">wind</text>
  <text x="316.5" y="293" text-anchor="middle" font-size="9.5" font-weight="700" class="cp">Two-comp.</text>
  <text x="316.5" y="306" text-anchor="middle" font-size="8.5" class="mi">ISM</text>
  <text x="425.5" y="293" text-anchor="middle" font-size="9.5" font-weight="700" class="cp">Two-comp.</text>
  <text x="425.5" y="306" text-anchor="middle" font-size="8.5" class="mw">wind</text>
  <text x="534.5" y="293" text-anchor="middle" font-size="9.5" font-weight="700" class="cp">Gaussian</text>
  <text x="534.5" y="306" text-anchor="middle" font-size="8.5" class="mi">ISM</text>
  <text x="643.5" y="293" text-anchor="middle" font-size="9.5" font-weight="700" class="cp">Gaussian</text>
  <text x="643.5" y="306" text-anchor="middle" font-size="8.5" class="mw">wind</text>
  <text x="752.5" y="293" text-anchor="middle" font-size="9.5" font-weight="700" class="cp">Power-law</text>
  <text x="752.5" y="306" text-anchor="middle" font-size="8.5" class="mi">ISM</text>
  <text x="861.5" y="293" text-anchor="middle" font-size="9.5" font-weight="700" class="cp">Power-law</text>
  <text x="861.5" y="306" text-anchor="middle" font-size="8.5" class="mw">wind</text>

  <text x="13" y="180" text-anchor="middle" font-size="9" class="cs" transform="rotate(-90, 13, 180)">Wall time (ms)</text>

</svg>
