<?xml version="1.0" encoding="UTF-8"?>
<svg xmlns="http://www.w3.org/2000/svg" viewBox="0 0 950 360"
     font-family="-apple-system, 'Segoe UI', Roboto, 'Helvetica Neue', Arial, sans-serif">

  <style>
    .cp { fill: #E6EDF3; }
    .cs { fill: #A8B8CC; }
    .cb { fill: #D0DDE8; }
    .mi { fill: #5B8ADB; }
    .mw { fill: #45AB8A; }
    .gl { stroke: #2D3345; fill: none; }
  </style>

  <rect width="950" height="360" fill="transparent" rx="12"/>

  <text x="475" y="28" text-anchor="middle" font-size="15" font-weight="700" class="cp" letter-spacing="0.3">Performance · Synchrotron</text>
  <text x="475" y="44" text-anchor="middle" font-size="9" class="cs">CPU time by stage · Apple M2 · single core · default resolution</text>
  <text x="475" y="57" text-anchor="middle" font-size="9" class="cs">each group: θv/θc = 0 │ 1 │ 2 │ 4 (left → right)</text>

  <rect x="213" y="67" width="12" height="12" rx="2" fill="#D49B40"/>
  <text x="229" y="78" font-size="10" class="cb">Shock Dynamics</text>
  <rect x="328" y="67" width="12" height="12" rx="2" fill="#4DA5BB"/>
  <text x="344" y="78" font-size="10" class="cb">EAT Grid</text>
  <rect x="407" y="67" width="12" height="12" rx="2" fill="#45AB8A"/>
  <text x="423" y="78" font-size="10" class="cb">Syn. Electrons</text>
  <rect x="522" y="67" width="12" height="12" rx="2" fill="#D46565"/>
  <text x="538" y="78" font-size="10" class="cb">Syn. Photons</text>
  <rect x="625" y="67" width="12" height="12" rx="2" fill="#5B8ADB"/>
  <text x="641" y="78" font-size="10" class="cb">Flux Integration</text>

  <line x1="52" y1="265" x2="935" y2="265" class="gl" stroke-width="1"/>
  <line x1="52" y1="222.8" x2="935" y2="222.8" class="gl" stroke-width="1" stroke-dasharray="4,3"/>
  <text x="48" y="226.8" text-anchor="end" font-size="8" class="cs">1.2 ms</text>
  <line x1="52" y1="180.5" x2="935" y2="180.5" class="gl" stroke-width="1" stroke-dasharray="4,3"/>
  <text x="48" y="184.5" text-anchor="end" font-size="8" class="cs">2.4 ms</text>
  <line x1="52" y1="138.2" x2="935" y2="138.2" class="gl" stroke-width="1" stroke-dasharray="4,3"/>
  <text x="48" y="142.2" text-anchor="end" font-size="8" class="cs">3.6 ms</text>
  <line x1="52" y1="96.0" x2="935" y2="96.0" class="gl" stroke-width="1" stroke-dasharray="4,3"/>
  <text x="48" y="100.0" text-anchor="end" font-size="8" class="cs">4.8 ms</text>
  <text x="48" y="269" text-anchor="end" font-size="8" class="cs">0</text>

  <rect x="52.0" y="257.9" width="21" height="7.1" fill="#D49B40"/>
  <rect x="52.0" y="254.8" width="21" height="3.1" fill="#4DA5BB"/>
  <rect x="52.0" y="252.1" width="21" height="2.7" fill="#45AB8A"/>
  <rect x="52.0" y="249.0" width="21" height="3.1" fill="#D46565"/>
  <rect x="52.0" y="246.7" width="21" height="2.2" fill="#5B8ADB"/>
  <text x="62.5" y="242.7" text-anchor="middle" font-size="8" font-weight="600" class="cb">0.5</text>
  <rect x="76.0" y="260.9" width="21" height="4.1" fill="#D49B40"/>
  <rect x="76.0" y="244.2" width="21" height="16.7" fill="#4DA5BB"/>
  <rect x="76.0" y="241.5" width="21" height="2.7" fill="#45AB8A"/>
  <rect x="76.0" y="238.1" width="21" height="3.4" fill="#D46565"/>
  <rect x="76.0" y="194.2" width="21" height="43.9" fill="#5B8ADB"/>
  <text x="86.5" y="190.2" text-anchor="middle" font-size="8" font-weight="600" class="cb">2.0</text>
  <rect x="100.0" y="261.6" width="21" height="3.4" fill="#D49B40"/>
  <rect x="100.0" y="254.5" width="21" height="7.1" fill="#4DA5BB"/>
  <rect x="100.0" y="252.3" width="21" height="2.2" fill="#45AB8A"/>
  <rect x="100.0" y="249.2" width="21" height="3.1" fill="#D46565"/>
  <rect x="100.0" y="230.8" width="21" height="18.3" fill="#5B8ADB"/>
  <text x="110.5" y="226.8" text-anchor="middle" font-size="8" font-weight="600" class="cb">1.0</text>
  <rect x="124.0" y="261.9" width="21" height="3.1" fill="#D49B40"/>
  <rect x="124.0" y="255.7" width="21" height="6.2" fill="#4DA5BB"/>
  <rect x="124.0" y="254.4" width="21" height="1.3" fill="#45AB8A"/>
  <rect x="124.0" y="251.4" width="21" height="3.0" fill="#D46565"/>
  <rect x="124.0" y="235.9" width="21" height="15.5" fill="#5B8ADB"/>
  <text x="134.5" y="231.9" text-anchor="middle" font-size="8" font-weight="600" class="cb">0.8</text>
  <rect x="161.0" y="257.8" width="21" height="7.2" fill="#D49B40"/>
  <rect x="161.0" y="256.9" width="21" height="0.9" fill="#4DA5BB"/>
  <rect x="161.0" y="254.8" width="21" height="2.1" fill="#45AB8A"/>
  <rect x="161.0" y="251.9" width="21" height="2.8" fill="#D46565"/>
  <rect x="161.0" y="250.2" width="21" height="1.8" fill="#5B8ADB"/>
  <text x="171.5" y="246.2" text-anchor="middle" font-size="8" font-weight="600" class="cb">0.4</text>
  <rect x="185.0" y="260.2" width="21" height="4.8" fill="#D49B40"/>
  <rect x="185.0" y="244.1" width="21" height="16.1" fill="#4DA5BB"/>
  <rect x="185.0" y="241.6" width="21" height="2.4" fill="#45AB8A"/>
  <rect x="185.0" y="238.2" width="21" height="3.5" fill="#D46565"/>
  <rect x="185.0" y="187.4" width="21" height="50.8" fill="#5B8ADB"/>
  <text x="195.5" y="183.4" text-anchor="middle" font-size="8" font-weight="600" class="cb">2.2</text>
  <rect x="209.0" y="261.2" width="21" height="3.8" fill="#D49B40"/>
  <rect x="209.0" y="254.3" width="21" height="6.9" fill="#4DA5BB"/>
  <rect x="209.0" y="252.0" width="21" height="2.2" fill="#45AB8A"/>
  <rect x="209.0" y="250.4" width="21" height="1.6" fill="#D46565"/>
  <rect x="209.0" y="225.3" width="21" height="25.1" fill="#5B8ADB"/>
  <text x="219.5" y="221.3" text-anchor="middle" font-size="8" font-weight="600" class="cb">1.1</text>
  <rect x="233.0" y="261.5" width="21" height="3.5" fill="#D49B40"/>
  <rect x="233.0" y="254.8" width="21" height="6.8" fill="#4DA5BB"/>
  <rect x="233.0" y="252.5" width="21" height="2.3" fill="#45AB8A"/>
  <rect x="233.0" y="250.6" width="21" height="1.9" fill="#D46565"/>
  <rect x="233.0" y="224.8" width="21" height="25.8" fill="#5B8ADB"/>
  <text x="243.5" y="220.8" text-anchor="middle" font-size="8" font-weight="600" class="cb">1.1</text>
  <rect x="270.0" y="248.4" width="21" height="16.6" fill="#D49B40"/>
  <rect x="270.0" y="245.4" width="21" height="3.0" fill="#4DA5BB"/>
  <rect x="270.0" y="242.8" width="21" height="2.6" fill="#45AB8A"/>
  <rect x="270.0" y="239.5" width="21" height="3.3" fill="#D46565"/>
  <rect x="270.0" y="237.7" width="21" height="1.8" fill="#5B8ADB"/>
  <text x="280.5" y="233.7" text-anchor="middle" font-size="8" font-weight="600" class="cb">0.8</text>
  <rect x="294.0" y="259.0" width="21" height="6.0" fill="#D49B40"/>
  <rect x="294.0" y="251.1" width="21" height="7.9" fill="#4DA5BB"/>
  <rect x="294.0" y="248.6" width="21" height="2.5" fill="#45AB8A"/>
  <rect x="294.0" y="244.9" width="21" height="3.7" fill="#D46565"/>
  <rect x="294.0" y="220.1" width="21" height="24.8" fill="#5B8ADB"/>
  <text x="304.5" y="216.1" text-anchor="middle" font-size="8" font-weight="600" class="cb">1.3</text>
  <rect x="318.0" y="259.3" width="21" height="5.7" fill="#D49B40"/>
  <rect x="318.0" y="251.9" width="21" height="7.4" fill="#4DA5BB"/>
  <rect x="318.0" y="249.5" width="21" height="2.4" fill="#45AB8A"/>
  <rect x="318.0" y="245.8" width="21" height="3.7" fill="#D46565"/>
  <rect x="318.0" y="225.9" width="21" height="19.9" fill="#5B8ADB"/>
  <text x="328.5" y="221.9" text-anchor="middle" font-size="8" font-weight="600" class="cb">1.1</text>
  <rect x="342.0" y="259.0" width="21" height="6.0" fill="#D49B40"/>
  <rect x="342.0" y="247.1" width="21" height="11.9" fill="#4DA5BB"/>
  <rect x="342.0" y="244.7" width="21" height="2.4" fill="#45AB8A"/>
  <rect x="342.0" y="240.9" width="21" height="3.8" fill="#D46565"/>
  <rect x="342.0" y="212.2" width="21" height="28.7" fill="#5B8ADB"/>
  <text x="352.5" y="208.2" text-anchor="middle" font-size="8" font-weight="600" class="cb">1.5</text>
  <rect x="379.0" y="261.1" width="21" height="3.9" fill="#D49B40"/>
  <rect x="379.0" y="260.2" width="21" height="0.9" fill="#4DA5BB"/>
  <rect x="379.0" y="258.9" width="21" height="1.3" fill="#45AB8A"/>
  <rect x="379.0" y="256.6" width="21" height="2.3" fill="#D46565"/>
  <rect x="379.0" y="254.7" width="21" height="1.9" fill="#5B8ADB"/>
  <text x="389.5" y="250.7" text-anchor="middle" font-size="8" font-weight="600" class="cb">0.3</text>
  <rect x="403.0" y="258.5" width="21" height="6.5" fill="#D49B40"/>
  <rect x="403.0" y="250.7" width="21" height="7.8" fill="#4DA5BB"/>
  <rect x="403.0" y="247.6" width="21" height="3.1" fill="#45AB8A"/>
  <rect x="403.0" y="242.9" width="21" height="4.7" fill="#D46565"/>
  <rect x="403.0" y="216.8" width="21" height="26.1" fill="#5B8ADB"/>
  <text x="413.5" y="212.8" text-anchor="middle" font-size="8" font-weight="600" class="cb">1.4</text>
  <rect x="427.0" y="258.8" width="21" height="6.2" fill="#D49B40"/>
  <rect x="427.0" y="251.1" width="21" height="7.6" fill="#4DA5BB"/>
  <rect x="427.0" y="248.8" width="21" height="2.3" fill="#45AB8A"/>
  <rect x="427.0" y="245.8" width="21" height="3.1" fill="#D46565"/>
  <rect x="427.0" y="222.4" width="21" height="23.4" fill="#5B8ADB"/>
  <text x="437.5" y="218.4" text-anchor="middle" font-size="8" font-weight="600" class="cb">1.2</text>
  <rect x="451.0" y="258.5" width="21" height="6.5" fill="#D49B40"/>
  <rect x="451.0" y="247.1" width="21" height="11.4" fill="#4DA5BB"/>
  <rect x="451.0" y="244.7" width="21" height="2.4" fill="#45AB8A"/>
  <rect x="451.0" y="241.4" width="21" height="3.2" fill="#D46565"/>
  <rect x="451.0" y="203.9" width="21" height="37.5" fill="#5B8ADB"/>
  <text x="461.5" y="199.9" text-anchor="middle" font-size="8" font-weight="600" class="cb">1.7</text>
  <rect x="488.0" y="227.1" width="21" height="37.9" fill="#D49B40"/>
  <rect x="488.0" y="226.2" width="21" height="0.9" fill="#4DA5BB"/>
  <rect x="488.0" y="222.3" width="21" height="3.8" fill="#45AB8A"/>
  <rect x="488.0" y="216.8" width="21" height="5.5" fill="#D46565"/>
  <rect x="488.0" y="215.0" width="21" height="1.7" fill="#5B8ADB"/>
  <text x="498.5" y="211.0" text-anchor="middle" font-size="8" font-weight="600" class="cb">1.4</text>
  <rect x="512.0" y="217.2" width="21" height="47.8" fill="#D49B40"/>
  <rect x="512.0" y="202.6" width="21" height="14.6" fill="#4DA5BB"/>
  <rect x="512.0" y="196.8" width="21" height="5.8" fill="#45AB8A"/>
  <rect x="512.0" y="190.3" width="21" height="6.6" fill="#D46565"/>
  <rect x="512.0" y="155.4" width="21" height="34.9" fill="#5B8ADB"/>
  <text x="522.5" y="151.4" text-anchor="middle" font-size="8" font-weight="600" class="cb">3.1</text>
  <rect x="536.0" y="222.1" width="21" height="42.9" fill="#D49B40"/>
  <rect x="536.0" y="212.6" width="21" height="9.5" fill="#4DA5BB"/>
  <rect x="536.0" y="207.7" width="21" height="4.9" fill="#45AB8A"/>
  <rect x="536.0" y="201.1" width="21" height="6.6" fill="#D46565"/>
  <rect x="536.0" y="177.2" width="21" height="23.9" fill="#5B8ADB"/>
  <text x="546.5" y="173.2" text-anchor="middle" font-size="8" font-weight="600" class="cb">2.5</text>
  <rect x="560.0" y="225.7" width="21" height="39.3" fill="#D49B40"/>
  <rect x="560.0" y="217.0" width="21" height="8.7" fill="#4DA5BB"/>
  <rect x="560.0" y="210.0" width="21" height="7.1" fill="#45AB8A"/>
  <rect x="560.0" y="203.5" width="21" height="6.4" fill="#D46565"/>
  <rect x="560.0" y="187.0" width="21" height="16.5" fill="#5B8ADB"/>
  <text x="570.5" y="183.0" text-anchor="middle" font-size="8" font-weight="600" class="cb">2.2</text>
  <rect x="597.0" y="216.3" width="21" height="48.7" fill="#D49B40"/>
  <rect x="597.0" y="215.1" width="21" height="1.2" fill="#4DA5BB"/>
  <rect x="597.0" y="209.1" width="21" height="6.0" fill="#45AB8A"/>
  <rect x="597.0" y="202.5" width="21" height="6.6" fill="#D46565"/>
  <rect x="597.0" y="200.5" width="21" height="2.0" fill="#5B8ADB"/>
  <text x="607.5" y="196.5" text-anchor="middle" font-size="8" font-weight="600" class="cb">1.8</text>
  <rect x="621.0" y="205.2" width="21" height="59.8" fill="#D49B40"/>
  <rect x="621.0" y="192.0" width="21" height="13.2" fill="#4DA5BB"/>
  <rect x="621.0" y="184.8" width="21" height="7.3" fill="#45AB8A"/>
  <rect x="621.0" y="177.4" width="21" height="7.4" fill="#D46565"/>
  <rect x="621.0" y="137.9" width="21" height="39.5" fill="#5B8ADB"/>
  <text x="631.5" y="133.9" text-anchor="middle" font-size="8" font-weight="600" class="cb">3.6</text>
  <rect x="645.0" y="211.0" width="21" height="54.0" fill="#D49B40"/>
  <rect x="645.0" y="201.3" width="21" height="9.7" fill="#4DA5BB"/>
  <rect x="645.0" y="194.4" width="21" height="6.9" fill="#45AB8A"/>
  <rect x="645.0" y="188.0" width="21" height="6.5" fill="#D46565"/>
  <rect x="645.0" y="157.9" width="21" height="30.1" fill="#5B8ADB"/>
  <text x="655.5" y="153.9" text-anchor="middle" font-size="8" font-weight="600" class="cb">3.0</text>
  <rect x="669.0" y="214.8" width="21" height="50.2" fill="#D49B40"/>
  <rect x="669.0" y="206.7" width="21" height="8.1" fill="#4DA5BB"/>
  <rect x="669.0" y="199.9" width="21" height="6.8" fill="#45AB8A"/>
  <rect x="669.0" y="193.6" width="21" height="6.3" fill="#D46565"/>
  <rect x="669.0" y="170.1" width="21" height="23.5" fill="#5B8ADB"/>
  <text x="679.5" y="166.1" text-anchor="middle" font-size="8" font-weight="600" class="cb">2.7</text>
  <rect x="706.0" y="207.4" width="21" height="57.6" fill="#D49B40"/>
  <rect x="706.0" y="206.2" width="21" height="1.1" fill="#4DA5BB"/>
  <rect x="706.0" y="201.7" width="21" height="4.6" fill="#45AB8A"/>
  <rect x="706.0" y="195.1" width="21" height="6.6" fill="#D46565"/>
  <rect x="706.0" y="193.1" width="21" height="2.0" fill="#5B8ADB"/>
  <text x="716.5" y="189.1" text-anchor="middle" font-size="8" font-weight="600" class="cb">2.0</text>
  <rect x="730.0" y="207.3" width="21" height="57.7" fill="#D49B40"/>
  <rect x="730.0" y="194.0" width="21" height="13.3" fill="#4DA5BB"/>
  <rect x="730.0" y="187.0" width="21" height="7.0" fill="#45AB8A"/>
  <rect x="730.0" y="179.0" width="21" height="8.0" fill="#D46565"/>
  <rect x="730.0" y="147.8" width="21" height="31.2" fill="#5B8ADB"/>
  <text x="740.5" y="143.8" text-anchor="middle" font-size="8" font-weight="600" class="cb">3.3</text>
  <rect x="754.0" y="210.0" width="21" height="55.0" fill="#D49B40"/>
  <rect x="754.0" y="199.0" width="21" height="11.0" fill="#4DA5BB"/>
  <rect x="754.0" y="193.0" width="21" height="6.0" fill="#45AB8A"/>
  <rect x="754.0" y="185.3" width="21" height="7.7" fill="#D46565"/>
  <rect x="754.0" y="157.5" width="21" height="27.8" fill="#5B8ADB"/>
  <text x="764.5" y="153.5" text-anchor="middle" font-size="8" font-weight="600" class="cb">3.1</text>
  <rect x="778.0" y="212.8" width="21" height="52.2" fill="#D49B40"/>
  <rect x="778.0" y="203.3" width="21" height="9.5" fill="#4DA5BB"/>
  <rect x="778.0" y="197.3" width="21" height="6.0" fill="#45AB8A"/>
  <rect x="778.0" y="189.7" width="21" height="7.7" fill="#D46565"/>
  <rect x="778.0" y="168.3" width="21" height="21.4" fill="#5B8ADB"/>
  <text x="788.5" y="164.3" text-anchor="middle" font-size="8" font-weight="600" class="cb">2.7</text>
  <rect x="815.0" y="212.3" width="21" height="52.7" fill="#D49B40"/>
  <rect x="815.0" y="209.3" width="21" height="3.0" fill="#4DA5BB"/>
  <rect x="815.0" y="201.7" width="21" height="7.6" fill="#45AB8A"/>
  <rect x="815.0" y="194.7" width="21" height="6.9" fill="#D46565"/>
  <rect x="815.0" y="192.4" width="21" height="2.3" fill="#5B8ADB"/>
  <text x="825.5" y="188.4" text-anchor="middle" font-size="8" font-weight="600" class="cb">2.1</text>
  <rect x="839.0" y="196.1" width="21" height="68.9" fill="#D49B40"/>
  <rect x="839.0" y="184.2" width="21" height="11.9" fill="#4DA5BB"/>
  <rect x="839.0" y="175.9" width="21" height="8.2" fill="#45AB8A"/>
  <rect x="839.0" y="167.8" width="21" height="8.1" fill="#D46565"/>
  <rect x="839.0" y="130.3" width="21" height="37.5" fill="#5B8ADB"/>
  <text x="849.5" y="126.3" text-anchor="middle" font-size="8" font-weight="600" class="cb">3.8</text>
  <rect x="863.0" y="196.7" width="21" height="68.3" fill="#D49B40"/>
  <rect x="863.0" y="183.1" width="21" height="13.6" fill="#4DA5BB"/>
  <rect x="863.0" y="173.3" width="21" height="9.8" fill="#45AB8A"/>
  <rect x="863.0" y="163.2" width="21" height="10.1" fill="#D46565"/>
  <rect x="863.0" y="128.5" width="21" height="34.7" fill="#5B8ADB"/>
  <text x="873.5" y="124.5" text-anchor="middle" font-size="8" font-weight="600" class="cb">3.9</text>
  <rect x="887.0" y="202.8" width="21" height="62.2" fill="#D49B40"/>
  <rect x="887.0" y="192.0" width="21" height="10.8" fill="#4DA5BB"/>
  <rect x="887.0" y="183.0" width="21" height="8.9" fill="#45AB8A"/>
  <rect x="887.0" y="174.8" width="21" height="8.2" fill="#D46565"/>
  <rect x="887.0" y="147.0" width="21" height="27.8" fill="#5B8ADB"/>
  <text x="897.5" y="143.0" text-anchor="middle" font-size="8" font-weight="600" class="cb">3.4</text>

  <text x="62.5" y="278" text-anchor="middle" font-size="7.5" class="cs">0</text>
  <text x="86.5" y="278" text-anchor="middle" font-size="7.5" class="cs">1</text>
  <text x="110.5" y="278" text-anchor="middle" font-size="7.5" class="cs">2</text>
  <text x="134.5" y="278" text-anchor="middle" font-size="7.5" class="cs">4</text>
  <text x="171.5" y="278" text-anchor="middle" font-size="7.5" class="cs">0</text>
  <text x="195.5" y="278" text-anchor="middle" font-size="7.5" class="cs">1</text>
  <text x="219.5" y="278" text-anchor="middle" font-size="7.5" class="cs">2</text>
  <text x="243.5" y="278" text-anchor="middle" font-size="7.5" class="cs">4</text>
  <text x="280.5" y="278" text-anchor="middle" font-size="7.5" class="cs">0</text>
  <text x="304.5" y="278" text-anchor="middle" font-size="7.5" class="cs">1</text>
  <text x="328.5" y="278" text-anchor="middle" font-size="7.5" class="cs">2</text>
  <text x="352.5" y="278" text-anchor="middle" font-size="7.5" class="cs">4</text>
  <text x="389.5" y="278" text-anchor="middle" font-size="7.5" class="cs">0</text>
  <text x="413.5" y="278" text-anchor="middle" font-size="7.5" class="cs">1</text>
  <text x="437.5" y="278" text-anchor="middle" font-size="7.5" class="cs">2</text>
  <text x="461.5" y="278" text-anchor="middle" font-size="7.5" class="cs">4</text>
  <text x="498.5" y="278" text-anchor="middle" font-size="7.5" class="cs">0</text>
  <text x="522.5" y="278" text-anchor="middle" font-size="7.5" class="cs">1</text>
  <text x="546.5" y="278" text-anchor="middle" font-size="7.5" class="cs">2</text>
  <text x="570.5" y="278" text-anchor="middle" font-size="7.5" class="cs">4</text>
  <text x="607.5" y="278" text-anchor="middle" font-size="7.5" class="cs">0</text>
  <text x="631.5" y="278" text-anchor="middle" font-size="7.5" class="cs">1</text>
  <text x="655.5" y="278" text-anchor="middle" font-size="7.5" class="cs">2</text>
  <text x="679.5" y="278" text-anchor="middle" font-size="7.5" class="cs">4</text>
  <text x="716.5" y="278" text-anchor="middle" font-size="7.5" class="cs">0</text>
  <text x="740.5" y="278" text-anchor="middle" font-size="7.5" class="cs">1</text>
  <text x="764.5" y="278" text-anchor="middle" font-size="7.5" class="cs">2</text>
  <text x="788.5" y="278" text-anchor="middle" font-size="7.5" class="cs">4</text>
  <text x="825.5" y="278" text-anchor="middle" font-size="7.5" class="cs">0</text>
  <text x="849.5" y="278" text-anchor="middle" font-size="7.5" class="cs">1</text>
  <text x="873.5" y="278" text-anchor="middle" font-size="7.5" class="cs">2</text>
  <text x="897.5" y="278" text-anchor="middle" font-size="7.5" class="cs">4</text>

  <text x="98.5" y="293" text-anchor="middle" font-size="9.5" font-weight="700" class="cp">Tophat</text>
  <text x="98.5" y="306" text-anchor="middle" font-size="8.5" class="mi">ISM</text>
  <text x="207.5" y="293" text-anchor="middle" font-size="9.5" font-weight="700" class="cp">Tophat</text>
  <text x="207.5" y="306" text-anchor="middle" font-size="8.5" class="mw">wind</text>
  <text x="316.5" y="293" text-anchor="middle" font-size="9.5" font-weight="700" class="cp">Two-comp.</text>
  <text x="316.5" y="306" text-anchor="middle" font-size="8.5" class="mi">ISM</text>
  <text x="425.5" y="293" text-anchor="middle" font-size="9.5" font-weight="700" class="cp">Two-comp.</text>
  <text x="425.5" y="306" text-anchor="middle" font-size="8.5" class="mw">wind</text>
  <text x="534.5" y="293" text-anchor="middle" font-size="9.5" font-weight="700" class="cp">Gaussian</text>
  <text x="534.5" y="306" text-anchor="middle" font-size="8.5" class="mi">ISM</text>
  <text x="643.5" y="293" text-anchor="middle" font-size="9.5" font-weight="700" class="cp">Gaussian</text>
  <text x="643.5" y="306" text-anchor="middle" font-size="8.5" class="mw">wind</text>
  <text x="752.5" y="293" text-anchor="middle" font-size="9.5" font-weight="700" class="cp">Power-law</text>
  <text x="752.5" y="306" text-anchor="middle" font-size="8.5" class="mi">ISM</text>
  <text x="861.5" y="293" text-anchor="middle" font-size="9.5" font-weight="700" class="cp">Power-law</text>
  <text x="861.5" y="306" text-anchor="middle" font-size="8.5" class="mw">wind</text>

  <text x="13" y="180" text-anchor="middle" font-size="9" class="cs" transform="rotate(-90, 13, 180)">Wall time (ms)</text>

</svg>
